<?xml version="1.0" standalone="no"?>
<!DOCTYPE svg PUBLIC "-//W3C//DTD SVG 1.1//EN" "http://www.w3.org/Graphics/SVG/1.1/DTD/svg11.dtd" >
<svg xmlns="http://www.w3.org/2000/svg">
<metadata>
This is a custom SVG webfont generated by Font Squirrel.
Copyright   : Made with yourfontscom Copyright  2012 Gerren Lamson All rights reserved
</metadata>
<defs>
<font id="HandSlabRegular" horiz-adv-x="1902" >
<font-face units-per-em="2048" ascent="1638" descent="-410" />
<missing-glyph horiz-adv-x="819" />
<glyph unicode=" "  horiz-adv-x="819" />
<glyph unicode="&#x09;" horiz-adv-x="819" />
<glyph unicode="&#xa0;" horiz-adv-x="819" />
<glyph unicode="!" horiz-adv-x="350" d="M60 1388q12 20 12 47v46q0 68 -12 187q17 47 35 47h128q29 0 35 -140q0 -24 -11 -24l11 -81v-210q0 -204 12 -420l-12 -105q12 -182 12 -374v-93l-58 -12h-117q-23 0 -23 24l11 58q0 23 -11 23q11 64 11 94q0 328 -11 910zM72 140q11 20 11 46q49 0 129 12q53 -23 58 -47 v-140q-23 -46 -70 -46v11q-12 0 -12 -11q-105 14 -105 46v82q0 26 -11 47z" />
<glyph unicode="&#x22;" horiz-adv-x="793" d="M60 1715q0 81 82 81h11q129 -17 129 -46v-560l-12 -59h-23q-39 0 -59 -11l-105 23zM492 1166v572l11 58h94q105 0 105 -105v-163q0 -26 11 -47q-11 -20 -11 -46q0 -48 11 -210h-11q0 -12 11 -12q0 -82 -46 -82q-13 0 -35 -11q-140 23 -140 46z" />
<glyph unicode="#" horiz-adv-x="1995" d="M60 525q0 128 47 198l81 -12h82q26 0 47 12q20 -12 46 -12l70 12q47 -12 82 -12q53 0 117 292q11 0 11 23h-198q-49 0 -128 -11q-23 11 -35 11q-21 -11 -47 -11l-23 35q9 101 35 105l-12 23v12q4 23 23 23h292l70 12q19 -12 58 -12h12q54 67 128 397q13 105 105 105 q43 23 94 23h23q23 -4 23 -23q-140 -459 -140 -490h374l140 478q23 19 198 35q-93 -384 -152 -525h12q18 0 420 12v-47q0 -26 -12 -47q12 -20 12 -46l-47 -82l-58 12h-385q-35 -164 -93 -315h70q116 0 350 11l11 -23v-12q-23 -163 -46 -163h-432q-21 -4 -152 -455 q0 -27 -151 -58q-70 15 -70 35q93 252 151 466q-12 0 -35 12q-152 -12 -245 -12h-105q-124 -478 -163 -478l-70 -12h-23l-24 12q0 -23 -23 -23q-35 11 -35 23q140 437 140 478v12h-58q-104 0 -234 -12l-58 12q-19 -12 -58 -12zM748 711h385q0 22 94 304h-362 q-32 -25 -117 -304z" />
<glyph unicode="$" horiz-adv-x="1808" d="M60 326q35 45 35 59q193 11 292 11h35q11 0 11 -11q12 0 12 11l58 -11h152q17 0 35 -35v-82q0 -23 -23 -23h-187q79 -140 187 -140h105q11 0 11 -12l24 12h70q513 30 513 256q0 172 -163 245q-680 117 -922 234q-24 47 -82 81q-46 123 -46 152h11q0 12 -11 12l11 46 l-11 47q36 234 256 443q108 59 304 82q0 187 46 187q20 11 59 11h35q81 0 81 -163q0 -47 24 -47q250 0 478 -256l58 -175q24 0 24 -12l23 12h35q117 0 117 -35q11 -65 11 -94l-58 -35q-23 12 -35 12t-35 -12q-9 0 -70 12q-103 -12 -128 -12q-13 0 -35 12l-70 -12h-94 q-26 0 -46 140q11 0 11 12q13 0 35 -12q80 12 129 12q0 133 -152 187q-35 55 -222 105q-22 -12 -35 -12l-70 12q-206 0 -338 -105q0 -19 -70 -82q-33 -68 -70 -233q29 -112 210 -199q875 -140 875 -256q49 0 117 -175q0 -13 11 -35q-58 -385 -140 -385q-132 -129 -396 -129 q-82 -11 -82 -81q12 -23 12 -35l-12 -24l12 -23q-12 -35 -24 -35q-146 -12 -175 -12v12q-8 175 -23 175q-332 0 -490 280q-12 20 -12 47h-163q-23 0 -35 81z" />
<glyph unicode="%" horiz-adv-x="1715" d="M60 1341q57 315 315 315h93q198 0 257 -198q19 0 35 -93q0 -229 -257 -362q-29 0 -93 -12q-350 43 -350 350zM165 0q0 42 268 420q0 29 269 431q85 109 525 805l46 47h70q79 0 117 -47q-247 -398 -338 -513q-509 -836 -735 -1155l-24 -12h-23q-12 0 -12 12l-23 -12 q-30 0 -140 24zM247 1341q26 -186 140 -186h23q145 0 187 198q0 152 -175 152h-35q-122 0 -140 -152v-12zM912 396q52 245 128 245q0 59 210 59q281 0 373 -269q12 -61 12 -70q0 -209 -175 -291q-88 -47 -175 -47q-373 87 -373 373zM1087 431q15 -186 70 -186q0 -30 116 -59 h35l59 12v-12q105 47 105 210q-94 129 -152 129q-43 11 -105 11q-77 -23 -128 -93v-12z" />
<glyph unicode="&#x26;" horiz-adv-x="1855" d="M60 525q0 139 163 396q164 152 315 245l-11 59v105q0 217 198 350q77 35 163 35h35q286 0 327 -245v-24q0 -210 -397 -338q0 -9 -93 -58q45 -201 478 -677h12q47 82 70 210l-12 23v70h-210l-23 82v23q0 63 70 70l58 -11h47q86 0 128 11q77 -11 152 -11h198q0 -20 24 -70 q-12 -105 -35 -105h-210q0 -12 -12 -12q0 -12 12 -35q0 -138 -94 -338q182 -129 315 -129q0 -11 47 -11q-31 -164 -70 -164q-231 0 -432 152q-136 -152 -571 -152q-285 0 -467 199q-52 0 -152 233zM258 571q0 -157 129 -268q46 -83 280 -152l23 12h117q280 23 280 93 q-79 53 -339 409q-151 221 -175 291q-225 -105 -315 -361v-24zM713 1225q362 114 362 210q0 114 -163 128q-199 -74 -199 -292v-46z" />
<glyph unicode="'" horiz-adv-x="373" d="M60 1225q12 20 12 46q0 35 -12 35l12 59v186l-12 70q8 28 23 175h94q93 0 93 -70q12 -66 12 -186v-187q0 -26 11 -47q-11 -20 -11 -46v-12q0 -26 11 -47q0 -81 -81 -81q-152 0 -152 105z" />
<glyph unicode="(" horiz-adv-x="922" d="M60 175q12 22 12 35h186v11q-58 325 -58 514q0 11 12 11q0 12 -12 12q44 415 140 572q117 182 117 221h-70q-117 0 -117 117v35q0 20 175 47l23 -12q12 0 12 12l58 -12h24q75 0 151 12q105 0 105 -94q24 -3 24 -23v-47q0 -38 -187 -58q0 -29 -58 -117 q-245 -514 -245 -688q11 -87 46 -233h-11q23 -70 58 -280h245q17 0 35 -47q-9 -128 -35 -128h-128q-12 0 -12 11q-23 -11 -35 -11q-79 0 -140 -12q-90 12 -198 12h-82z" />
<glyph unicode=")" horiz-adv-x="770" d="M60 58q15 152 58 152l82 -12q128 9 128 23q117 380 117 584q0 422 -187 816l-140 -11h-35q0 12 -11 35q9 128 35 128h116q27 0 47 12q20 -12 47 -12q11 0 11 12l59 -12h46q234 0 234 -58v-59q0 -18 -47 -46h-140q47 -70 105 -397h-12q24 -59 24 -210v-222 q0 -235 -94 -571h152q35 -8 35 -94v-70q0 -23 -23 -23q-236 12 -327 12l-23 11q-23 -11 -35 -11v11l-24 -11q-11 0 -11 11q-12 0 -12 -11q-150 11 -175 23z" />
<glyph unicode="*" horiz-adv-x="1400" d="M60 1190v116h222q26 0 46 12q21 -12 47 -12q12 0 35 12q20 -12 47 -12h23q-11 35 -233 304v11q0 59 128 140q6 0 315 -373q245 329 245 362q6 0 47 11l151 -105v-23l-233 -315v-12h12q11 0 11 12l47 -12q232 12 315 12q15 -85 35 -140q-16 -82 -35 -82q-48 0 -93 12 q-47 -12 -82 -12v12l-23 -12h-175l-24 12v-12l245 -291v-12q-111 -140 -175 -140q0 32 -280 373l-268 -361q-46 0 -163 93v12q53 88 233 338h-163q-12 0 -12 12l-140 -24q-20 12 -47 12h-46z" />
<glyph unicode="+" horiz-adv-x="1412" d="M60 606v129q0 16 35 35h128q93 0 245 -12l24 12q20 -12 46 -12h47v47l-12 70q0 11 12 11l-12 117v70q0 39 12 58l-12 70v59q0 18 47 46h140q28 -23 47 -23v-222q0 -26 11 -46q-11 -21 -11 -47v-58l11 -140h35q27 0 47 11l23 -11q80 11 129 11q11 0 11 -11l24 11l70 -11 q79 11 128 11q47 -17 47 -35v-163q0 -17 -35 -35h-362l-117 -12q0 -81 -11 -93q11 -80 11 -128v-269q-11 -35 -70 -35h-93q-61 0 -70 35v257q0 26 12 47q-12 20 -12 46q0 12 12 12l-12 58v70h-35q-67 0 -82 12q-63 -12 -105 -12h-268q-35 12 -35 70z" />
<glyph unicode="," horiz-adv-x="618" d="M60 -220q0 31 128 81q129 141 129 304v128q7 70 35 70q132 0 186 -58v-117q0 -240 -245 -502q-74 -23 -93 -23q-140 0 -140 117z" />
<glyph unicode="-" horiz-adv-x="1178" d="M60 653l47 140q278 23 513 58l58 -11h280l70 11q70 -11 70 -140q0 -81 -81 -81q-417 -47 -852 -70l-23 11q-21 -11 -47 -11q-35 49 -35 93z" />
<glyph unicode="." horiz-adv-x="490" d="M60 173q35 117 128 117h94q128 -67 128 -128q-24 -175 -175 -175h-12q-163 35 -163 186z" />
<glyph unicode="/" horiz-adv-x="1190" d="M60 70q0 42 152 315l583 1225q62 140 82 140q0 11 35 11h46q152 -20 152 -46v-12q-251 -470 -478 -968q-39 -50 -362 -712q-210 7 -210 47z" />
<glyph unicode="0" horiz-adv-x="1633" d="M60 933v58q0 12 12 12q0 12 -12 12q20 210 187 501q196 245 466 245l24 -11q152 11 245 11q536 -142 536 -536q35 -121 35 -257l-11 -105l11 -23q-55 -344 -210 -549q-178 -198 -280 -198q0 -35 -221 -58h-140q-59 0 -59 23l-23 -12q-303 105 -432 339q-128 212 -128 548 zM235 875q0 -234 222 -502q167 -152 408 -152q164 0 350 222q92 149 163 490l-11 23v164q0 128 -152 338q-174 140 -280 140h-23q-376 0 -560 -245q-117 -249 -117 -478z" />
<glyph unicode="1" horiz-adv-x="1820" d="M60 910v140q0 23 210 46q111 220 350 549q82 108 82 128h35q35 0 35 12l58 -12h187q35 -12 35 -70v-303q0 -27 11 -47q-11 -23 -11 -35q0 -23 11 -23l-11 -82q-12 -855 -12 -1003h198q27 0 47 -12q20 12 47 12h93q12 0 12 -12l23 12h23q12 0 12 -12l23 12h12q39 0 58 -12 l70 12h59q23 -4 23 -24v-105l-12 -58h-198q-35 0 -35 -12l-58 12h-409q-203 0 -420 -12q-59 12 -245 12l-46 -12q-20 12 -59 12q-26 0 -46 -12q-21 12 -47 12h-58v105q0 82 105 82v-12l23 12l58 -12q12 0 12 12l58 -12h420l59 12v58q0 62 11 105q0 26 -11 47q11 164 11 280 v105l12 70q0 11 -12 11l12 140v257q0 12 12 12l-12 23q12 211 12 280h-12q-84 0 -140 -140q-133 -169 -257 -385l59 12h128q0 -35 12 -35q-12 -140 -35 -140h-374q-11 0 -11 11l-24 -11h-163z" />
<glyph unicode="2" horiz-adv-x="1750" d="M60 1061q0 94 70 94h128q54 261 187 396q250 257 548 257q404 0 514 -280q11 -103 11 -128q-47 -199 -466 -665q0 -36 -117 -140q0 -51 -338 -362v-12h70q122 0 256 -11l82 11q116 -11 175 -11l70 11q61 -11 117 -11h93q0 82 23 128l-11 23q0 175 93 175h58q18 0 47 -46 q-23 -319 -23 -432q-35 0 -35 -35q-129 0 -129 -12q-119 12 -186 12h-105q-82 0 -257 -12v12q-12 0 -12 -12l-116 12h-105q-27 0 -47 -12q-12 0 -12 12l-58 -12q-12 0 -35 12q-12 0 -12 -12l-116 12h-187l-12 58v24q293 336 689 746q52 73 151 187q206 189 269 432 q-45 163 -280 163h-82q-315 -90 -315 -163q-135 -109 -163 -222q-24 0 -24 -82h47q26 0 47 -11q22 11 35 11q58 -16 58 -81q0 -86 -35 -94h-82q-48 0 -93 -11q-45 11 -93 11h-35q-27 0 -47 -11q-20 11 -47 11q-26 0 -46 -11q-117 0 -117 81z" />
<glyph unicode="3" horiz-adv-x="1610" d="M60 560v46q0 105 93 105q12 0 12 -11l47 11q296 12 396 12q14 -56 47 -93v-47q0 -28 -210 -47q0 -204 245 -326q163 -12 210 -12q385 63 385 198v70q0 214 -198 292q-47 0 -47 12q-12 0 -12 -12l-58 12h-47l-81 -12q0 12 -12 12q0 -24 -23 -24h-47l-35 164q0 58 385 93 q233 71 233 187q0 283 -268 385q-128 0 -128 11q-191 0 -444 -221l-35 -47v-23h117q82 0 82 -82q0 -12 -12 -12l12 -23q-24 -48 -24 -70q-137 12 -198 12h-303q-12 0 -12 11l-23 -11q-24 0 -24 23v117q0 16 35 35h129q20 0 46 105q190 283 514 373q19 12 58 12h35 q12 0 12 -12l23 12h47q153 0 350 -164q177 -189 198 -385v-23q0 -189 -233 -350q186 -173 186 -397v-58q0 -74 -105 -222q-147 -175 -513 -175h-12l-70 12l-23 -12q-214 22 -408 222q-94 222 -94 292h-128q-61 0 -70 35z" />
<glyph unicode="4" horiz-adv-x="1972" d="M60 665q0 54 222 291q0 31 396 432q431 442 455 443l70 -23l70 12q94 0 94 -117q0 -140 11 -140q-23 -187 -23 -618v-175q35 0 35 -12l23 12q307 11 455 11l24 -35q0 -151 -47 -151q-77 -12 -152 -12q-26 0 -46 12q-21 -12 -47 -12q-12 0 -12 12l-23 -12h-198v-12 q0 -74 -12 -303q12 -82 35 -82h23q42 0 105 12q47 -12 82 -35q0 12 12 12q0 -39 35 -129l-35 -23h-70q-183 0 -374 -12q-8 0 -70 12q-73 -12 -163 -12h-47q-23 122 -23 129q23 53 47 58h221l59 -12v12q0 373 -24 373q-304 0 -501 -11q-203 11 -514 11q-62 0 -93 94zM328 735 h12l23 11q24 0 24 -11l81 11h164l58 12v-12l23 12h444q23 0 23 23v152q0 93 12 245l-12 23l12 59q0 59 -12 373v12h-12q0 -20 -408 -432q-235 -267 -408 -432q0 -18 -24 -46z" />
<glyph unicode="5" horiz-adv-x="1575" d="M60 420q0 11 12 11l-12 24v105q4 23 23 23q24 0 24 -12l140 12h303q12 0 12 -12l23 12l58 -12l70 12q24 -46 24 -128v-12q-24 -29 -24 -47h-151l-59 -11v-24q106 -163 327 -163q0 -12 58 -12q366 0 420 432v23q0 187 -256 327q-79 35 -210 58q-219 -5 -455 -105 q-129 46 -129 129v198q0 12 12 12l-12 23v93q0 26 12 47l-12 23q12 152 12 245v12q63 0 105 23q12 0 35 -11q99 11 163 11h82q39 0 58 -11l70 11h187l70 12q19 -12 58 -12h105v59l-11 116l70 35q22 -11 35 -11q3 23 23 23q82 0 82 -140l-12 -23l23 -187h-11l23 -128l-12 -24 l12 -70v-23q0 -23 -23 -23h-105q-61 0 -70 35v93l-12 82q-203 -24 -432 -24h-303l-12 -140v-233q111 50 374 70q233 -23 233 -35q283 -87 373 -245q47 -139 47 -233v-82q0 -322 -152 -478q-124 -129 -186 -129q-219 -35 -304 -35q-282 0 -501 257q-59 99 -59 152h-81 q-152 0 -152 35z" />
<glyph unicode="6" horiz-adv-x="1458" d="M60 536v47q0 12 12 12l-12 23v12q0 26 12 46q0 12 -12 12q0 156 163 525q129 213 304 408q0 12 23 12v12q-23 0 -23 11l-24 -11q-23 0 -23 11l-82 -11h-35q-81 0 -81 46l-12 59q0 70 163 70q12 0 12 -12l82 12h396q152 0 152 -47q0 -19 23 -93q-11 -21 -11 -47h-94 q-61 0 -198 12q-308 -306 -385 -514q218 82 327 82q187 0 408 -128q203 -171 233 -339v-93q0 -252 -210 -467q-99 -97 -361 -163l-164 -23q-144 0 -385 140q-183 192 -198 396zM258 676q64 -361 187 -361q0 -54 315 -105q249 63 350 221q47 70 93 222q0 275 -396 362 q-9 0 -70 11q-310 0 -444 -186q-23 -65 -35 -164z" />
<glyph unicode="7" horiz-adv-x="1762" d="M60 1073v82q0 16 35 35h12q11 0 11 -12l24 12h163q0 93 -23 501l11 24q-11 20 -11 46l23 12q767 12 1108 12l164 11l105 -35v-70q-75 -101 -444 -828q-186 -342 -326 -677h198q82 0 82 -81v-24q0 -70 -94 -70h-233q-150 0 -327 -11q-116 14 -116 35q0 151 35 151h233 q23 12 163 327q0 46 467 875q0 14 93 187v11l-105 -11q-23 0 -23 11l-117 -11h-256q-56 0 -117 -12q-43 12 -105 12h-117l-81 -12v-385h210l35 -23l-12 -82v-58l-58 -12h-327q-26 0 -47 12q-20 -12 -46 -12h-152q-35 12 -35 70z" />
<glyph unicode="8" horiz-adv-x="1552" d="M60 595v35q0 193 175 408l140 93q-117 191 -117 280v70q0 322 210 374l24 -12q124 35 186 35h105q272 0 479 -163q93 -178 93 -304q-35 -167 -105 -350q138 -82 222 -385v-116q0 -285 -339 -525q-128 -47 -303 -59v12q-23 -12 -35 -12q-362 0 -607 245q-85 65 -128 374z M293 548q0 -194 245 -315q105 -35 175 -35h94q11 0 11 -12q259 0 385 222q59 103 59 163v94q0 175 -245 245q-68 43 -339 58q-303 -16 -303 -128q-82 -46 -82 -269v-23zM457 1493q0 -248 245 -327h128q26 0 47 -11q170 0 256 198v140q-76 152 -233 152q0 20 -140 23h-105 q-139 0 -175 -93q-23 -4 -23 -24v-58z" />
<glyph unicode="9" horiz-adv-x="1598" d="M60 1143q0 508 443 653l152 24q120 -15 163 -35q21 11 47 11q276 -106 303 -210q32 0 70 -140h24q0 80 93 210q163 -43 163 -81q-46 -101 -245 -712q-140 -343 -291 -642v-23h46q64 0 164 12q70 0 70 -70v-12q0 -12 -12 -12l12 -23v-58q-302 -12 -362 -24q-9 0 -70 12 q-143 -12 -280 -12q-93 16 -93 152l35 23h70l81 12v-12q25 12 105 24q0 -12 12 -12l198 467q-86 -47 -268 -70q-301 0 -513 186q-117 184 -117 362zM235 1190q0 -173 117 -292q128 -128 350 -128q227 59 291 151q129 131 129 234q-3 131 -175 373l-94 58q-81 12 -81 24 q-444 -30 -444 -187q-42 0 -93 -233z" />
<glyph unicode=":" horiz-adv-x="443" d="M60 758q0 64 82 105h93q128 -23 128 -128q0 -107 -163 -140q-104 0 -140 163zM72 268q0 152 116 152h82q32 -6 93 -105v-47q0 -105 -175 -105q-80 0 -116 105z" />
<glyph unicode=";" horiz-adv-x="642" d="M60 -229q0 25 128 70q129 144 129 339v151h35q132 0 186 -58v-82q0 -222 -186 -455q-77 -81 -140 -81h-35q-117 0 -117 93v23zM293 541v59q0 63 70 93h70q105 0 129 -105v-47q-39 -93 -164 -93q-80 35 -105 93z" />
<glyph unicode="&#x3c;" horiz-adv-x="898" d="M60 898q151 197 420 630q65 82 152 233h11q95 0 175 -81v-47l-385 -572q-85 -131 -128 -221q216 -251 455 -700q23 0 23 -59v-11q-67 -7 -105 -35h-70q-56 0 -233 338q-72 72 -303 478q-12 21 -12 47z" />
<glyph unicode="=" horiz-adv-x="1178" d="M60 618q0 163 140 163q128 0 443 24h327q26 0 47 11q66 0 81 -128q0 -70 -163 -70q-448 -47 -852 -47q-23 29 -23 47zM72 980v105q0 116 116 116q12 0 12 -11l58 11h175l59 12v-12q11 0 11 12q251 12 374 12h23l117 11q58 -73 58 -116v-70q-41 -12 -47 -12 q-571 -23 -956 -58z" />
<glyph unicode="&#x3e;" horiz-adv-x="898" d="M60 128q0 24 245 385q268 381 268 432q0 11 -186 268q-280 435 -280 513l46 12v-12q60 35 117 35q63 -6 198 -256q220 -336 339 -549q11 0 11 -70l-175 -256q-148 -207 -373 -595h-12q-150 0 -198 93z" />
<glyph unicode="?" horiz-adv-x="1563" d="M60 956l12 82h163q23 0 23 23v24q0 448 420 595q205 35 339 35q182 -22 361 -187q105 -189 105 -397q-49 -234 -140 -303q-119 -119 -361 -210q-117 -106 -117 -187v-116q0 -26 -117 -35q-70 0 -70 163v12q40 221 94 221q79 74 338 187q163 113 163 292v93 q0 202 -256 268q-36 0 -82 12q-12 0 -12 -12l-58 12q-205 -28 -362 -198q-39 -176 -58 -199l12 -58v-35h23q35 0 35 12l58 -12h59l11 -105q0 -58 -93 -58h-408q-82 0 -82 81zM678 0v175q0 25 105 35q94 -14 94 -47q0 -12 -12 -12l12 -23v-35q0 -26 -12 -47q12 -20 12 -46 v-12l-59 -12h-116q-24 0 -24 24z" />
<glyph unicode="@" horiz-adv-x="1727" d="M60 840q0 11 12 11l-12 59v23q0 12 12 12q0 11 -12 11q16 226 140 467q196 229 338 257q59 43 362 81v-11q12 0 12 11q496 -76 548 -233q140 -302 187 -677q0 -268 -152 -385q-51 -39 -187 -58q-134 38 -245 163q-56 -51 -210 -93h-58q-245 0 -338 303q0 114 -12 117 q16 163 163 315q189 105 304 105q85 -12 151 -47q0 70 47 70v-11l23 11q97 0 105 -116l-11 -59q0 -11 11 -11q-11 -60 -23 -257q12 -23 12 -35h-12l12 -23v-94q0 -172 81 -186q111 0 164 186v187q0 254 -187 548q-207 105 -303 105h-245q-502 -144 -502 -688 q0 -475 385 -665q76 -23 105 -23h70q197 0 315 116q70 0 70 -93q12 0 12 -12q0 -93 -105 -93q-122 -82 -350 -82q-309 0 -549 292q-128 311 -128 502zM608 840q0 -108 175 -199q47 0 47 -11q175 0 233 361v12q0 156 -140 187q-161 -29 -256 -129q-59 -100 -59 -221z" />
<glyph unicode="A" horiz-adv-x="2520" d="M60 0v81q0 82 105 82h163q20 0 140 280q15 0 187 338q288 522 362 712h-12q-245 0 -245 58q-12 45 -12 94v23l12 23q460 24 863 24h175q59 -29 59 -140q0 -59 -222 -59h-47v-11q315 -767 584 -1342h221q42 0 47 -152q-43 -23 -93 -23h-560q-27 0 -47 12q-23 -12 -35 -12 q-35 58 -35 93v59q81 23 140 23h140q-152 319 -152 350q-157 12 -233 12h-163q-137 0 -280 -12q-52 12 -187 12q-23 -12 -35 -12v12l-23 -12h-164q-58 -167 -163 -350h140q32 0 70 -23q23 11 35 11q23 -38 23 -70v-58q0 -17 -35 -35h-606zM842 723q233 12 350 12h93l140 11 v-11l23 11h47q12 0 12 -11q11 0 11 11l59 -11h128q-58 110 -338 770h-117q-26 0 -93 -175q-79 -138 -315 -595v-12z" />
<glyph unicode="B" horiz-adv-x="2112" d="M60 1621h12l-12 24q0 70 163 70h257q12 0 12 -12l23 12h35q26 0 47 -12q22 12 35 12v-12l23 12h35q12 0 12 -12l23 12h385q12 0 12 -12q11 0 11 12l59 -12h280q431 0 431 -327h-11q0 -11 11 -11q0 -239 -326 -327q-12 -12 -94 -12v-11q262 0 455 -187q35 -50 94 -268 q0 -180 -175 -374q-290 -198 -677 -198h-245q-59 0 -175 -12v12l-23 -12q-257 12 -257 24q-12 0 -12 -12l-58 12h-327v11q0 49 -11 129q7 46 93 46h187v549q0 11 11 11l-11 24v198q0 35 11 35l-11 58v82q0 122 11 373h-268q-23 0 -35 105zM538 361q12 -80 12 -128v-47 q35 0 35 -11l23 11q12 0 12 -11q12 0 12 11l46 -11q64 11 94 11v-11l23 11h58q12 0 12 -11l23 11h105q703 0 794 257l23 82v23q0 174 -187 257q-377 70 -385 70q-11 0 -11 -12q-242 33 -595 35q-11 0 -94 -12v-431l12 -70zM538 1096h12l82 12v-12l23 12q39 0 58 -12 q1004 56 1004 234q0 175 -175 175q-294 23 -467 23l-23 -12q-21 12 -47 12h-47q-58 0 -175 -12v12q-22 -12 -35 -12q-26 0 -46 12q-164 -8 -164 -35q0 -35 12 -35l-12 -117v-245z" />
<glyph unicode="C" horiz-adv-x="1983" d="M60 933q0 368 280 642q179 124 455 151v-11l23 11h175q438 0 549 -233q60 -45 105 -198h70q58 0 175 -12l11 -58v-82q0 -27 -81 -35q-437 -12 -584 -12q-35 68 -35 117q15 58 35 58h70l140 12q0 169 -291 257q-19 0 -140 11q-518 0 -630 -233q-129 -174 -129 -513 q0 -437 444 -607q186 -23 373 -23h35q180 0 315 198h-152q-70 0 -70 70v93q0 35 210 35q12 0 12 -11l58 11h245q12 0 12 -11l23 11h105q17 0 35 -35q0 -163 -70 -163q-99 12 -151 12q-102 -203 -350 -362q-111 -47 -397 -47l-47 12q-11 0 -11 -12q-173 12 -479 152 q-217 178 -291 408q-47 202 -47 397z" />
<glyph unicode="D" horiz-adv-x="2205" d="M60 0v128l23 35q13 0 35 -12q128 12 222 12q23 0 23 23v584q0 26 12 46q-12 21 -12 47v35q0 12 12 12q0 11 -12 11q0 25 12 129q-12 359 -12 466h-256q-47 0 -47 140v24q0 26 58 35v-12l24 12l58 -12q12 0 35 12l47 -12q19 0 140 12q61 -12 70 -12l58 12l82 -12 q198 12 198 23l82 -11h198q646 0 817 -327q186 -255 186 -513v-70q0 -27 12 -47q-28 -283 -93 -420q-192 -258 -385 -327q-162 -35 -350 -35h-455q-35 0 -35 -11l-59 11h-665q-23 0 -23 24zM562 163h151q35 0 35 12l59 -12h291q42 0 105 12q12 0 12 -12q490 37 490 105 q137 107 222 385v23l-12 24q0 11 12 11l-12 59v210l-82 221q-117 201 -303 269q-117 70 -513 70q-234 -8 -234 -24l-58 12h-140v-12l-12 -116q0 -27 12 -47q-12 -80 -12 -128v-175q0 -35 -11 -35l11 -59v-11q0 -227 -11 -630l11 -24q-11 -20 -11 -46v-82z" />
<glyph unicode="E" horiz-adv-x="1983" d="M60 1516v187q304 0 747 12q307 -12 513 -12q12 0 12 12l58 -12h502l11 -58v-397h-35l-81 -12v12l-24 -12q-46 18 -46 35v117l-12 82h12q-12 22 -12 35l-82 -12h-81q-47 0 -47 12l-82 -12h-408q-26 0 -47 12q-11 0 -11 -12l-47 12l-105 -12l-58 12q-102 -12 -175 -12h-35 q-38 0 -47 -723h233q27 0 47 -12q20 12 47 12h163q48 0 128 -12q12 12 94 12v140l58 11h117l11 -81v-12q0 -12 -11 -12q0 -11 11 -11l-11 -59q0 -23 11 -23l-11 -58v-129q0 -130 -59 -140h-58q-70 0 -70 94v70h-385q-12 0 -12 11l-23 -11h-12q-66 0 -81 11q-63 -11 -105 -11 h-70v-187q0 -59 -12 -175h105q12 0 12 -12l23 12h373q27 0 47 -12l23 12q307 -12 420 -12q13 0 35 -11q12 0 12 11l82 -11h70v11q11 285 11 315q43 35 82 35q105 0 105 -70v-373q0 -12 -12 -12l12 -23q0 -70 -140 -70h-105q-35 0 -35 -12l-58 12h-1237q-12 0 -12 12l-23 -12 h-187l-11 58v12q0 59 23 140h175q0 23 12 23l-12 59v373q0 42 12 105q-12 23 -12 35h12q0 12 -12 12l12 58v93q0 64 -12 164q12 20 12 46q0 12 -12 12l12 58v199l11 58h-163q-12 0 -12 12l-23 -12h-12q-23 0 -23 23z" />
<glyph unicode="F" horiz-adv-x="2053" d="M60 46v117q113 23 315 23v409q0 64 12 163q-12 23 -12 35q12 77 12 152q0 42 -12 105q12 17 12 70l-12 23q12 20 12 47l-12 23q0 12 12 12l-12 116v175h-35q-35 0 -35 -11l-58 11h-82v24l-12 70l12 23q-12 20 -12 47q8 35 94 35h11q12 0 12 -12l23 12h70q64 0 164 -12 l23 12q12 0 12 -12l58 12q39 0 58 -12l70 12h59q35 0 35 -12l58 12h140l70 -12q23 12 35 12l163 -12q174 12 292 12v-12q12 0 12 12l58 -12h198q94 0 94 -70q0 -26 11 -47q-11 -44 -23 -350l-82 -23q-105 14 -105 35v245q0 23 -35 23l-23 -11q-23 11 -35 11t-12 -11l-58 11 h-1027v-58q0 -240 12 -420q-12 -102 -12 -268h245q12 0 12 -12l23 12h47q12 0 12 -12l23 12h315q6 151 23 151q21 12 47 12h105v-397q0 -26 12 -46q0 -117 -140 -117q-47 0 -47 128v59h-595l-82 -12v-140q0 -39 12 -58l-12 -70v-94q24 0 24 -11l23 11h23q27 0 47 -11 q23 11 35 11v-11q12 0 12 11l58 -11h105q12 -104 23 -129q-11 -19 -11 -58h-222l-70 -12q-19 12 -58 12h-94q-11 0 -11 12l-24 -12h-175q-26 0 -46 -12q-12 0 -12 12l-58 -12h-12q-70 0 -70 70z" />
<glyph unicode="G" horiz-adv-x="1960" d="M60 863q0 503 350 735q250 140 537 140q406 0 501 -140q205 -170 234 -268l116 11h35q18 0 47 -46v-129q0 -23 -23 -23h-362q-26 0 -47 12q-22 -12 -35 -12q-210 0 -210 35v128q12 35 70 35h152q-128 210 -420 210q-452 0 -618 -245q-117 -96 -117 -373v-82 q0 -204 128 -443q154 -222 549 -222h163q285 0 408 315l35 129h-361q-432 0 -432 35l-12 70v11q0 39 35 82q76 0 117 -12q294 12 467 12h81q100 0 315 -12l12 -23q-23 -228 -23 -338v-409q0 -26 -59 -35q-116 21 -116 47v128l11 24h-11q-147 -234 -490 -234q-21 12 -47 12 q-12 0 -35 -12q-499 31 -537 105q-182 66 -291 292q-117 204 -117 490z" />
<glyph unicode="H" horiz-adv-x="2415" d="M60 1528v12q0 11 12 11l-12 24q0 26 12 46q-12 21 -12 47v23q4 24 23 24q35 0 35 -12l59 12h291q27 0 47 11q20 -11 47 -11h198q128 0 128 -59v-58q0 -82 -81 -82q-65 12 -94 12q-121 -12 -140 -12l12 -23v-735q64 -12 93 -12q12 0 12 12q12 0 35 -12q457 12 688 12h362 v152q0 11 12 11l-12 24q0 40 12 245q0 12 -12 35l12 70v221h-222l-82 -11l-23 35q0 11 12 11l-12 24v140q7 0 152 -12q122 0 373 12l163 -12q64 12 129 12q37 -24 58 -24v-93q0 -12 -12 -12l12 -23v-12q0 -35 -128 -35h-199q-23 -3 -23 -23v-478q0 -80 -12 -140 q12 -61 12 -140v-409q0 -26 12 -46q-12 -21 -12 -47v-70q147 12 175 12q103 -12 128 -12v-12q0 -7 12 -151l-23 -12h-280q-27 0 -47 -12q-20 12 -47 12h-210q-48 0 -128 -12q-15 12 -82 12v35q0 12 12 12l-12 23v12q0 86 35 93h234q35 0 35 210l-12 58q12 45 12 94v35h-70 q-65 0 -164 -12q-11 0 -11 12l-82 -12h-793l-82 -12l-12 -163l12 -140q-12 -19 -12 -58q23 -12 35 -12q234 -12 257 -12l12 -23v-128q0 -24 -35 -24q-13 0 -35 12q-24 0 -24 -12q-116 12 -175 12h-93q-99 0 -292 -12v12l-23 -12q-93 10 -93 47l11 23l-11 70v12q0 35 186 35 h70v175q0 26 -11 47l11 23q0 86 -11 128q11 294 11 467v268q0 82 12 257h-93l-117 -12v12l-23 -12q-12 0 -12 12q-23 -12 -35 -12q-23 12 -35 12z" />
<glyph unicode="I" horiz-adv-x="1435" d="M60 -12q12 140 35 210l58 -12h420v199l12 70q-12 22 -12 35l12 23q0 23 -12 23l12 140v152q0 137 12 280q-12 64 -12 93q12 163 12 315h-117q-73 0 -175 12q-43 -12 -105 -12v12l-23 -12h-70q-24 0 -35 94q0 105 105 105q137 11 198 11v-11q12 0 12 11l116 -11h12l58 11 v-11l24 11h735q23 -3 23 -23v-140q0 -23 -23 -23h-24q-73 0 -175 -12l-58 12q-23 -12 -35 -12t-35 12q-99 -12 -163 -12h-35v-198q0 -12 -12 -12l12 -23v-269q0 -35 -12 -35l12 -58v-175q0 -100 -12 -315h-12l12 -23v-82l-12 -140l24 -12q334 -11 373 -23q45 12 93 12h35 q24 -105 24 -152h-12l12 -23q0 -20 -59 -35q-415 11 -653 11h-70q-104 0 -233 12q-33 -12 -175 -12h-12l-58 -11z" />
<glyph unicode="J" horiz-adv-x="2182" d="M60 571v35q0 12 12 12l-12 23v35q0 32 23 70l59 -11h116q180 0 549 11q2 -46 23 -46l-12 -82v-47q-64 -11 -93 -11l-70 11q-45 -11 -93 -11h-24v-12q0 -138 117 -257q161 -116 315 -116q195 0 303 151q70 58 94 782q11 0 11 23q-11 21 -11 47h11l-11 23l11 24 q-11 22 -11 35q0 12 11 35q-11 63 -11 105q0 11 11 11l-11 24v70h-455q-105 0 -105 105v70l23 35l58 -12h280l140 12v-12l24 12h711q47 0 59 -164q-12 -22 -12 -35h-490l-23 -11l11 -24q-23 -118 -35 -816q-11 0 -23 -117q0 -12 12 -12q0 -369 -374 -525q-164 -35 -233 -35 h-12q-334 0 -548 385q-23 122 -47 152q12 20 12 47h-128l-140 -12z" />
<glyph unicode="K" horiz-adv-x="2205" d="M60 1516v117l12 58h105q231 0 688 12q58 -16 58 -82v-11q0 -94 -70 -94q-17 0 -163 -11q-80 11 -128 11v-688q221 140 630 455q152 71 326 233h-116q-12 0 -12 12q-12 0 -12 -12l-81 12h-82q0 47 -12 47l12 58v70h12l23 -12l23 12q12 0 12 -12l82 12h128q186 0 385 12 q245 0 245 -82l-23 -117h-140q-108 0 -199 -70q-280 -186 -560 -408v-12q0 -57 455 -758q73 -93 82 -93h117q58 0 175 11q46 -49 46 -93v-70q0 -47 -140 -47h-595q-128 0 -128 47l12 23l-12 24l12 46q-12 23 -12 35l23 12h12q76 0 233 12v11q-418 656 -478 724 q-78 -67 -362 -257q-81 -69 -81 -82v-140q0 -26 11 -46q-11 -21 -11 -47v-175h105q48 0 93 12q140 0 140 -59q0 -12 -12 -35l12 -70q0 -35 -47 -35l-23 12q-20 -12 -47 -12v12l-23 -12h-373q-12 0 -12 12l-23 -12h-59q-11 0 -11 12l-24 -12l-116 12l-24 -12q-20 12 -46 12 v105q7 70 35 70h245l11 117v140q0 48 -11 128q0 12 11 12q0 23 -11 23q11 251 11 373v444l-11 116h-105q-27 0 -47 -11q-12 0 -12 11l-58 -11h-12z" />
<glyph unicode="L" horiz-adv-x="2263" d="M60 1610q12 93 35 93h105q39 0 58 -12l70 12h199q11 0 11 -12l24 12h93q12 0 12 -12l23 12h152q11 0 11 -12l24 12h210q58 0 70 -47q-12 -80 -12 -128v-12l-117 -11h-315l-11 -140v-82q0 -12 -12 -12q0 -11 12 -11l-12 -59v-116l12 -70l-12 -24l12 -23l-12 -82 q0 -35 12 -81q-12 -158 -12 -269v-23q0 -117 12 -350h291q74 0 175 12q140 -12 140 -24l24 12h198q26 0 47 -12q20 12 46 12h70q0 35 12 35l-12 82v70q0 58 12 175h-292q-23 0 -23 23v128q35 0 82 12l23 -12q46 12 82 12q11 0 11 -12l59 12h501q35 0 35 -152v-11l-58 -12 h-233v-455q0 -63 -47 -82h-245q-82 0 -93 -11q-80 11 -129 11h-501q-80 0 -140 12q-61 -12 -140 -12h-152q-93 0 -245 12l-23 -12q-21 12 -47 12h-35q0 17 -23 105l11 70q59 0 175 12v-12l24 12h116l82 -12v175q0 12 12 12q0 11 -12 11l12 59v23q0 26 -12 47q12 20 12 46 q0 47 -12 47l12 140v653l11 70q-11 59 -23 59q-48 0 -93 11q-102 -11 -175 -11h-24l-116 11q0 48 -12 94z" />
<glyph unicode="M" horiz-adv-x="2835" d="M60 23q9 128 23 128q23 12 35 12v-12l24 12h291v23q0 35 -11 35l11 59v350q0 26 12 46q0 12 -12 12q0 19 12 140q0 76 -12 233q12 119 12 187l-12 58q12 61 12 117v93h-338v82q0 26 -12 47q17 46 35 46h198q27 0 47 12q23 -12 35 -12q35 0 82 12q101 -12 175 -12h23 q26 0 47 12q41 0 175 -362q58 -93 490 -1120h23q198 429 490 1179q115 276 163 291q110 12 210 12h397q70 -7 70 -35v-82q0 -60 -35 -70h-82q-39 0 -58 12l-70 -12h-117q-23 -3 -23 -23v-257q0 -359 -12 -1073l24 12q11 0 11 -12l24 12q12 0 35 -12q83 12 93 12 q116 -12 175 -12q0 -26 12 -47q-15 -120 -24 -140q-75 0 -151 12q-388 -12 -677 -12h-58q-35 12 -35 70v105l58 12h315q23 0 23 23v59q0 26 -11 46q0 12 11 12q0 35 -11 35q11 157 11 233v852q0 12 12 12q-12 17 -12 70h-11q-117 -227 -374 -887q-241 -525 -315 -630 l-35 -23h-46q-121 0 -350 583q-269 603 -397 922l-23 -12l11 -23q0 -13 -11 -35q11 -80 11 -129v-35q0 -48 -11 -128q0 -12 11 -12l-11 -116v-817h361v-187h-11q-54 0 -269 12q-22 -12 -35 -12v12l-23 -12h-467q-26 0 -46 12q-21 -12 -47 -12h-23z" />
<glyph unicode="N" horiz-adv-x="2438" d="M60 151l35 24h93l70 -12q23 12 35 12l82 -12q56 0 82 58q0 12 -12 12l12 82v606q0 12 11 12q0 12 -11 12l11 58v117q0 26 -11 46q11 21 11 47q0 74 -11 303h-269q-11 0 -11 12l-24 -12h-11q-17 0 -35 35v117q0 17 35 35h478q39 0 58 12l70 -12h304q16 0 35 -35v-47 q0 -26 -12 -46q12 -21 12 -47v-12h-315q255 -325 1015 -1201l11 23v222q0 39 -11 58q23 156 23 607v280h-222q-26 0 -46 -12q-21 12 -47 12h-82v175q4 23 24 23h11q12 0 12 -12q12 0 12 12q12 0 35 -12q159 12 198 12q55 0 362 -12q22 12 35 12v-12l23 12h210q23 -4 23 -23 v-140q0 -24 -23 -24h-327v-11q-11 -145 -11 -152q0 -23 11 -23l-11 -82v-152q0 -42 -12 -105q0 -11 12 -11l-12 -59v-186q0 -12 -12 -12l12 -23v-467l-12 -58h292l23 -129q-23 -70 -46 -70q-12 0 -12 12l-23 -12h-105l-70 12q-21 -12 -47 -12v12l-23 -12q-12 0 -12 12 l-23 -12h-59q-26 0 -46 12l-24 -12q-12 0 -35 12q-23 0 -23 -12q-117 12 -175 12h-163q-24 0 -24 23v94l12 58h257q-254 300 -467 583q-119 119 -525 607l-12 -58q0 -39 12 -59q-12 -80 -12 -128v-140l12 -58h-12l12 -24v-478q0 -12 -12 -12l12 -23v-93q0 -27 -12 -47 q12 -19 12 -58h303q70 0 70 -59q0 -128 -58 -128q-82 0 -93 -12l-70 12q-74 0 -175 -12q-46 12 -94 12l-23 -12q-12 0 -12 12q-116 -12 -175 -12h-233q-23 0 -23 24v70z" />
<glyph unicode="O" d="M60 641q12 63 12 105q0 13 -12 35q67 384 198 560q318 362 642 362h35q26 0 47 -12l23 12q266 -23 443 -117q129 -98 129 -116q96 -108 140 -210q42 0 105 -397q0 -434 -245 -688q-158 -150 -420 -187q-48 0 -94 -12q-64 12 -93 12q-26 0 -47 -12q-276 0 -653 234 q-131 93 -198 385q0 26 -12 46zM258 688q0 -171 175 -350q302 -175 514 -175q389 31 396 93q269 196 269 455v129q0 377 -350 630q-169 46 -257 46q-290 0 -420 -128q-181 -98 -280 -397q-23 -56 -47 -303z" />
<glyph unicode="P" horiz-adv-x="2135" d="M60 35q0 140 82 140h116q27 0 47 11q20 -11 47 -11h70v175q0 81 11 93q-11 80 -11 128v315q0 42 11 105q-11 15 -11 82l11 82q-11 22 -11 35l11 46l-11 70h11l-11 24v11q0 39 11 59l-11 70v35h-269q-81 0 -81 81v59q27 58 58 58q462 0 840 12q696 0 840 -105 q245 -170 245 -420q0 -133 -163 -327q-179 -140 -385 -140q-12 0 -12 12l-117 -12h-245q-11 0 -11 12l-24 -12h-105q-11 0 -11 12l-24 -12h-11q-12 0 -12 12q-12 0 -12 -12l-116 12h-187v-269q0 -98 12 -291q35 0 35 11l58 -11h140q26 0 47 11q20 -11 46 -11h12l58 11 l12 -23v-152q0 -23 -23 -23h-467q-173 0 -467 -12zM620 991q0 -70 105 -70h222q222 0 490 -11q355 0 431 303q-83 292 -478 292h-432q-64 0 -163 11l-23 -11q-12 0 -12 11q-61 -11 -140 -11l12 -24v-35q0 -11 -12 -11l12 -24v-70q0 -11 -12 -11l12 -24v-23q0 -35 -12 -35 l12 -58v-152q0 -12 -12 -12l12 -23q0 -12 -12 -12z" />
<glyph unicode="Q" horiz-adv-x="1925" d="M60 840q0 423 420 723q133 82 408 128h94q277 0 361 -70q189 -97 222 -198q210 -262 210 -548v-47q0 -26 12 -47q-59 -373 -105 -373q0 -41 -117 -163l82 -59q198 -36 198 -70q-12 -22 -12 -35l12 -23q-35 -70 -35 -82h-23q-278 0 -362 152q-122 -103 -303 -152v12 l-24 -12h-105q-26 0 -46 -11q-258 0 -502 186q-84 0 -292 350q-93 158 -93 339zM258 770q70 -280 175 -350q233 -245 572 -245q12 0 12 -12l23 12h70q82 0 163 70h24q-106 116 -292 116v24q56 151 140 151h23q137 0 292 -128q97 58 152 338v117q-29 240 -187 432 q-189 210 -292 210l-23 -12q-26 0 -47 12q-11 0 -11 -12l-59 12q-485 0 -711 -467q0 -7 -24 -175v-93z" />
<glyph unicode="R" horiz-adv-x="2380" d="M60 1551v12q0 12 12 12q-12 22 -12 35l12 105l46 -12l24 12q22 -12 35 -12l23 12q23 -12 35 -12l58 12q62 -12 117 -12q6 0 47 12l23 -12l23 12q47 0 47 -12q216 12 315 12h548q437 0 537 -152q57 -88 93 -222v-175l12 -70q0 -176 -315 -361h-82v-12q57 -127 315 -560 q64 0 164 12q151 0 151 -47q0 -39 12 -58q-16 -82 -35 -82h-852l-11 70q0 117 93 117l70 -12l70 12l23 -12q18 12 70 12q-148 319 -315 536h-280l-70 -11l-23 11q-23 0 -23 -11l-117 11h-140l-70 -11h-47q-11 -80 -11 -129v-396q157 -12 233 -12h70q17 0 35 -58l-12 -59v-58 h-863v175q236 12 327 12v58q0 26 11 47l-11 23q11 23 11 35l-11 23q11 21 11 47l-11 47h11q0 11 -11 11l11 140v35q0 12 12 12l-12 23v327q0 26 -11 47q11 20 11 46v210q0 12 12 12l-12 23l12 47l-12 82l12 23q-12 35 -23 35q-53 0 -70 -12q-80 12 -129 12h-140 q-23 0 -23 23zM643 910q12 0 12 -12q12 0 12 12l58 -12h560q58 0 175 12v-12l23 12q27 0 47 -12q133 0 292 140q46 97 46 105q0 252 -105 327q-108 58 -303 58h-292q-175 0 -408 12q-43 -12 -105 -12l-12 -82v-186q0 -42 12 -105q-12 -15 -12 -82q0 -26 12 -47l-12 -23 q12 -23 12 -35z" />
<glyph unicode="S" horiz-adv-x="1738" d="M60 1166q0 400 292 490q116 47 233 47h140l70 -12q17 12 70 12q82 0 93 -12q99 12 164 12h455l11 -82v-221q0 -27 12 -47q-15 -70 -35 -70h-128q-24 0 -24 23v210h-58q-12 0 -12 12q-22 -12 -35 -12q-11 0 -11 12l-59 -12h-81q-12 0 -12 12l-23 -12h-35q-47 0 -47 12 l-82 -12h-373q-257 0 -327 -221q-11 -147 -11 -175q42 -152 175 -152h70q11 0 11 -12q12 0 12 12l58 -12h47q39 0 58 12l70 -12h175q39 0 59 -11q46 11 81 11q386 0 514 -233q35 -47 81 -280q0 -283 -175 -373q-166 -94 -618 -94h-770q-23 0 -23 24v396q3 24 23 24h117 q58 -3 58 -24q0 -60 -12 -233h339q26 0 46 -12q23 12 35 12v-12q12 0 12 12q23 0 23 -12q654 15 654 82q105 50 105 152v35q0 251 -280 350h-420q-49 0 -129 11q-17 -11 -70 -11v11q-11 0 -11 -11q-359 0 -432 140q-65 104 -70 256z" />
<glyph unicode="T" d="M60 1423q0 12 12 12l-12 58v163q0 17 35 35h583q27 0 47 12l23 -12l24 12q11 0 11 -12l82 12h198q35 0 35 -12l59 12h210q135 0 431 -12q12 -74 24 -303h-12l12 -23v-47l-12 -58h-93l-82 11v129q0 26 -12 46q12 21 12 47v12q-58 0 -58 11l-24 -11h-46q-109 0 -199 11 q-61 -11 -116 -11l-24 11l-23 -11l-23 11q-47 -11 -82 -11v-467q0 -42 -12 -105l12 -23q-12 -208 -12 -339v-256q0 -12 -11 -12l11 -23v-94h479v-11q0 -49 11 -129l-11 -70h-12q-12 0 -12 12l-23 -12q-150 0 -327 12l-58 -12l-23 12l-70 -12q-12 0 -12 12l-58 -12h-304 q-26 0 -46 12q-21 -12 -47 -12h-117q-23 0 -23 24v175h152q26 0 46 11q21 -11 47 -11h82l116 11v1190q0 26 -11 47q11 20 11 47v23h-560v-82q0 -42 -11 -105q11 -20 11 -46l-23 -12h-163v12q0 17 -12 163z" />
<glyph unicode="U" horiz-adv-x="2415" d="M60 1586h12l-12 24v11q0 94 70 94h12q11 0 11 -12l24 12h23q35 0 35 -12l58 12h222q48 0 128 -12q20 12 59 12l23 -12l70 12q39 0 58 -12l70 12h47q12 0 35 -47l-12 -58v-70q-251 -12 -361 -12v-12q-12 -164 -12 -280v-245q0 -227 23 -396h-11q44 -340 186 -374 q134 -35 467 -46q279 0 385 256q35 103 58 234l-11 23l11 23q0 12 -11 12q23 93 23 222v525l-12 58h-268q-93 0 -93 70v93q3 24 23 24h280q131 0 338 -12l24 12q20 -12 46 -12q12 0 12 12l58 -12h152q26 0 35 -152q-38 -23 -70 -23h-292q-23 -4 -23 -23v-94q0 -26 -12 -46 q12 -21 12 -47v-23q0 -12 -12 -12l12 -23l-12 -24q12 -22 12 -35h-12q0 -11 12 -11l-12 -140v-70q0 -754 -303 -910q-174 -94 -373 -94h-59q-571 30 -571 129q-210 108 -210 665q0 63 -12 221l12 47l-12 70q12 207 12 350v70h-327q-27 0 -35 58z" />
<glyph unicode="V" horiz-adv-x="2555" d="M60 1621v35q17 47 35 47h875l12 -82v-70q0 -23 -24 -23h-151q-27 0 -47 -12q-20 12 -47 12h-81l245 -478l373 -747h12q514 969 630 1225h-350v152l23 35q193 -12 292 -12h595q23 -4 23 -23v-152h-338q-62 -94 -455 -840l-280 -490v-23h11l140 11l24 -11q20 11 46 11 q140 -6 140 -35v-93l-11 -82q-137 12 -199 12h-828l-12 58v140h374v12q-241 521 -654 1307v11h-221q-152 0 -152 105z" />
<glyph unicode="W" horiz-adv-x="3173" d="M52 1540l8 116q0 59 70 59q83 -12 93 -12l59 12q79 -12 128 -12q55 0 117 12q73 -12 163 -12h117v-35l11 -70q-11 -18 -11 -70q-11 0 -94 12q-11 0 -11 -12l-59 12h-93v-12q58 -110 327 -817q163 -345 163 -385h12q105 338 408 1202h-292q-23 0 -23 23v129q4 23 23 23 h747q12 0 12 -12l23 12h12q81 0 81 -47q12 -20 12 -46l-12 -82h-326q291 -765 291 -782q113 -406 164 -466l455 1248h-12q-10 0 -280 12v11q12 63 12 105v47h163q35 0 35 -12l58 12h59q155 0 451 -12v-105q0 -58 -46 -70l-47 12q-12 0 -12 -12l-58 12h-105 q-89 -119 -292 -735q-221 -577 -221 -618h280l11 -82v-47l-11 -58h-257q-199 0 -603 12v105q0 26 -12 46q12 23 12 35l70 -11l23 11l23 -11l70 11h24l23 -11q12 22 12 35l-397 1131q-41 -24 -222 -560q-93 -228 -210 -606h292l12 -82v-82q0 -23 -24 -23q-11 0 -11 12 l-59 -12h-743q-23 0 -23 23v35l11 70l-11 24q11 20 11 46l47 -11l23 11q21 -11 47 -11q12 0 35 11q20 -11 47 -11h11l59 11q0 -11 11 -11v11q0 31 -140 362l-408 957q0 35 -152 35l-23 -12q-20 12 -47 12h-81z" />
<glyph unicode="X" horiz-adv-x="2450" d="M60 35q0 128 82 128h315q29 0 571 572q17 0 82 81q-60 39 -712 724h-303q-26 0 -35 116q16 59 82 59h338q39 0 58 -12l70 12h152q42 0 105 -12q20 12 47 12l23 -12q23 12 35 12q23 -53 23 -152l-23 -35q-117 12 -175 12h-163q276 -256 618 -607q0 27 315 327 q103 102 233 268h-23q-83 0 -315 12q-20 -12 -47 -12q-23 43 -23 93q0 12 12 12q-12 22 -12 35q17 47 35 47q104 0 140 -12q102 12 175 12h198q27 0 47 -12q12 0 12 12l58 -12q61 12 70 12l23 -12l24 12q23 0 23 -12l82 12h70q23 -4 23 -24q-12 -80 -12 -128v-23l-58 -12 h-58q-12 0 -12 12l-23 -12h-12q-39 0 -58 12q-94 0 -175 -129q-12 -4 -584 -583q39 -78 222 -257q373 -375 373 -408h362q23 0 35 -128q-12 -20 -12 -59h-466q-12 0 -12 12l-23 -12q-12 0 -12 12l-23 -12h-397l-35 24q9 151 35 151h303q0 23 -221 245l-269 280 q-22 0 -525 -525h35l59 12v-12q11 0 11 12l59 -12q103 12 128 12q0 -23 12 -23l-12 -59v-93l-82 -12q-11 0 -11 12l-24 -12q-11 0 -11 12l-24 -12h-46q-12 0 -12 12q-23 -12 -35 -12l-47 12q-11 0 -11 -12q-65 12 -94 12q-52 0 -70 -12q-80 12 -128 12h-210l-58 -12v12 l-24 -12q-38 4 -58 59z" />
<glyph unicode="Y" horiz-adv-x="2368" d="M60 1691l58 12h94q26 0 46 -12q23 12 35 12v-12l24 12h735q35 0 35 -128v-24q0 -23 -24 -23h-140q-11 0 -11 12l-24 -12h-35q-11 0 -11 12l-24 -12h-140q0 -51 350 -537q111 -163 129 -163q237 269 548 700h-338q-17 0 -35 35v82l11 58h934l31 -58v-24q0 -86 -35 -93 h-326q-66 -51 -187 -210l-408 -548q-82 -109 -94 -210v-245l-11 -140q23 0 23 -12l23 12h339q29 0 46 -129q-11 -19 -11 -58h-242l-82 -12v12l-23 -12h-408q-12 0 -12 12l-23 -12h-245q-24 0 -24 24q0 11 12 11l-12 82v70q175 12 257 12h175v105q0 61 12 105q-12 61 -12 116 v152q-467 677 -583 863q-21 12 -47 12h-338v12q-12 144 -12 151z" />
<glyph unicode="Z" horiz-adv-x="1855" d="M60 81q253 300 607 665q0 15 175 187q0 22 373 373q0 31 152 152l70 70h-327q-12 0 -12 12l-23 -12q-58 0 -140 12q-175 -12 -257 -12q-58 0 -175 12q-65 -12 -210 -12v-12q0 -7 12 -151q-7 -117 -35 -117h-70q-93 0 -93 70q0 39 -12 58q12 80 12 129v105q0 26 -12 46 q12 21 12 47q215 12 315 12h676q12 0 12 -12l23 12q158 -12 234 -12l70 12q61 -12 116 -12h199q23 -4 23 -23v-70q-164 -209 -560 -572q0 -27 -443 -455q0 -19 -117 -128l-245 -280h268q150 0 327 -12q45 12 93 12q12 0 12 -12l58 12h409v245q0 9 35 35q163 -12 163 -47 v-373q0 -12 -12 -12l12 -23v-12l-117 -12h-175q-124 0 -175 12q-89 -12 -198 -12h-257q-94 0 -151 12q-73 -12 -164 -12h-326q-12 0 -12 12l-23 -12q-117 12 -117 105z" />
<glyph unicode="[" horiz-adv-x="898" d="M60 35v11l12 70q0 12 -12 12l12 58v152q0 173 11 467q0 12 -11 35q11 64 11 93q0 141 12 665l-12 117q12 22 12 35h268l59 11v-11q11 0 11 11l59 -11h280q18 0 46 -47v-58l-11 -82q-137 -12 -199 -12h-11q-39 0 -59 12l-70 -12h-163v-303q-35 -776 -35 -980h-12l24 -47 l23 12h385q26 0 47 -12q20 12 46 12l35 -47v-81q0 -70 -105 -70h-175q-11 0 -11 11l-24 -11h-175q-94 0 -221 -12q-21 12 -47 12z" />
<glyph unicode="\" horiz-adv-x="1202" d="M60 1703q0 23 163 58v-11l24 11q77 0 128 -175q101 -171 665 -1365q27 0 82 -163q-23 -23 -222 -35q0 22 -537 1073q-54 148 -303 607z" />
<glyph unicode="]" horiz-adv-x="887" d="M60 70v93q0 70 58 70q12 0 12 -12l58 12h420q0 128 -23 595h12l-12 23v24q0 117 -23 291l11 187l-11 105l11 58q-11 23 -11 35h-175q-27 0 -47 12q-20 -12 -47 -12h-23q-210 0 -210 35v129q12 35 70 35h653v-560l12 -117h-12l12 -23v-210q0 -39 -12 -59l24 -221h-12 l12 -24q0 -11 -12 -11l12 -24v-466q-24 0 -24 -12q-157 12 -233 12h-338q-152 0 -152 35z" />
<glyph unicode="^" horiz-adv-x="2578" d="M60 280v35q0 121 268 291v82l-58 -12h-47q-93 0 -93 94v11q23 129 128 129h59q62 0 81 -47v-12q0 -23 -23 -23l-117 12q-58 -17 -58 -82l23 -12h24q84 0 93 70h58q0 -23 12 -23l-12 -82v-46q175 76 175 163q79 140 175 140h24q23 -4 23 -23v-70q-1 -25 -128 -140v-12h23 q58 0 303 187l59 23q22 -12 35 -12v-23q0 -29 -24 -105q156 117 210 117h47q23 0 35 -117h12q98 0 163 117q49 46 93 46h12q23 0 23 -35q0 -25 -93 -128q239 105 280 105h23v-58l-11 -24h23q179 0 490 12q80 -12 128 -12v-58q-12 0 -35 -12q-61 0 -105 12q-216 -12 -385 -12 h-151q-32 0 -35 59q-171 -82 -234 -82h-35l-35 23q-76 -23 -105 -23h-11q-73 0 -117 105q-211 -152 -233 -152q-23 12 -35 12v105l11 23q-205 -163 -291 -163h-24q-20 0 -105 35l-186 -128q0 -420 -222 -420q-105 0 -105 140zM130 280q12 -70 35 -70h23q129 93 129 303 q-187 -132 -187 -233z" />
<glyph unicode="_" horiz-adv-x="1645" d="M60 291h35l70 12q12 0 12 -12l58 12h268q248 0 409 12q113 -12 315 -12q40 0 245 12v-12l23 12h47q23 -99 23 -257q-12 0 -12 -12l-58 12h-735q-26 0 -47 12q-11 0 -11 -12q-158 12 -234 12h-81q-99 0 -292 -12q-23 26 -35 233z" />
<glyph unicode="`" horiz-adv-x="601" d="M60 1363q0 31 20.5 51t53.5 20q20 0 40.5 -12t55.5 -47l291 -296h-69l-330 202q-31 20 -46.5 40t-15.5 42z" />
<glyph unicode="a" horiz-adv-x="1482" d="M60 338q0 293 315 397q154 23 257 23q292 0 396 -105v12q0 268 -268 268q0 16 -93 23q-235 -6 -502 -128v58q0 140 82 140q116 59 373 82q395 0 490 -140q56 0 105 -502q0 -11 -12 -11l12 -59v-140q0 -11 -12 -11q12 -23 12 -35l-12 -82h199v-93l-12 -59l-117 12h-93 q-26 0 -47 -12l-23 12q-20 -12 -47 -12q-23 38 -23 152q-140 -105 -257 -105q-13 0 -128 -23h-128q-333 0 -420 151q-47 109 -47 187zM235 350q0 -146 233 -210h47l58 11v-11q396 56 420 221v35q0 210 -431 210q-327 -60 -327 -256z" />
<glyph unicode="b" horiz-adv-x="1470" d="M60 1621v82q4 23 23 23h152q48 0 93 12q46 -12 94 -12h105q26 0 46 12q53 0 70 -105q-23 0 -23 -47h-163l-24 -11q0 -12 12 -12l-12 -58v-385q0 -62 -11 -199q146 187 408 187h12q395 0 525 -327l23 -186q0 -218 -128 -327q0 -70 -304 -187h-175q-162 24 -350 199v-152 h47q29 0 105 -23v-35q0 -82 -82 -82h-315q-60 0 -70 35l12 117h47l81 11v152q0 39 -11 58l11 47q12 630 24 677q-12 83 -12 210v268q0 23 -23 23h-117q-61 0 -70 35zM468 548q0 -104 234 -268q69 -47 140 -47h23q263 0 350 233q23 54 23 117q0 271 -198 327q-195 15 -210 23 q-228 0 -338 -210q-24 -112 -24 -175z" />
<glyph unicode="c" horiz-adv-x="1307" d="M60 525h12q0 11 -12 11q0 366 245 502q164 70 187 70h128q206 0 362 -175q47 -115 70 -117q5 0 46 12q117 0 129 -105q0 -58 -129 -58q-100 0 -210 11q-71 -11 -175 -11l-23 35v81q12 35 70 35h93v12q-111 140 -233 140h-23q-220 0 -350 -245q-12 -99 -12 -163v-94 q0 -209 210 -350q75 -35 152 -35h35l151 70q0 12 82 94v23l-58 -12q-117 0 -117 94v46l58 12q23 -12 35 -12l24 12l23 -12q23 12 35 12v-12l23 12h304l11 -117q-175 0 -175 -93q-45 -112 -151 -163q-87 -58 -245 -94q-386 0 -537 315q-23 75 -35 269z" />
<glyph unicode="d" horiz-adv-x="1622" d="M60 396h12l-12 24v81q0 450 385 560q124 24 163 24h47q323 0 443 -164v490l-11 140h-82q-42 0 -105 -11q-15 11 -82 11v47q0 26 -11 47q15 81 35 81h256q42 0 105 12l24 -12q11 0 11 12l82 -12h187l35 -23l-12 -82v-58h-35q-26 0 -47 -12q-22 12 -35 12q-80 -12 -128 -12 v-70q0 -26 -12 -46l12 -24q0 -46 -12 -46q12 -138 12 -199v-81q0 -213 -12 -537l12 -23l-12 -70v-222q0 -12 -11 -12l11 -23v-58l82 11h105l58 -11v-70q0 -51 -23 -94l-82 12h-221q-27 0 -47 -12q-47 12 -47 70v140q-116 -116 -268 -140q-134 -46 -233 -46h-47 q-350 39 -350 105q-100 85 -140 291zM223 478q80 -327 280 -327q332 0 490 199q82 75 82 186q0 280 -222 362q0 26 -268 35q-132 0 -315 -210q-23 -23 -47 -175v-70z" />
<glyph unicode="e" horiz-adv-x="1412" d="M60 513v12q0 193 105 396q114 175 513 175h70q248 -50 339 -140q72 -72 116 -175v-105q0 -93 -70 -93q-89 -12 -198 -12h-233q-91 0 -164 12q-57 -12 -151 -12h-164q0 -317 269 -420q75 -23 105 -23h116q133 0 245 122l12 23h-140q-82 0 -82 105q0 35 140 47v-12l24 12 h81q100 0 315 -12q24 -94 24 -117q0 -35 -152 -35h-35q0 -92 -350 -285q-99 -23 -117 -23q-463 0 -571 303q-38 0 -47 257zM258 723q126 0 210 12q289 -12 409 -24q42 12 128 12h35q0 106 -303 222q-108 0 -164 11q-171 0 -315 -221v-12z" />
<glyph unicode="f" horiz-adv-x="1260" d="M60 840l23 11h105q27 0 47 12q20 -12 47 -12l11 24v548q42 315 222 315q365 0 420 -175q23 -46 35 -210h47l140 12l23 -35v-105q0 -24 -23 -24h-537q-12 21 -12 47v58q4 24 24 24h93q29 0 105 23v47q0 169 -245 210h-12q-128 0 -128 -455v-292h198l140 12q35 -41 35 -140 q-11 -35 -70 -35h-11q-12 0 -12 11l-23 -11h-245v-327l11 -117h-11q14 -105 35 -105h210q35 0 46 -93q-15 -58 -35 -58h-81l-140 -12v12l-24 -12h-58q-26 0 -47 12q-11 0 -11 -12l-59 12h-11q-27 0 -47 -12q-12 0 -12 12l-58 -12h-58l-24 82h12l-12 23q0 70 82 70h117v525 h-210q0 7 -12 152z" />
<glyph unicode="g" horiz-adv-x="1400" d="M60 -229l12 24q310 11 490 11h81q82 0 82 -105q-23 -38 -23 -58q-158 -12 -234 -12v-23q105 -203 397 -203q233 36 233 233q12 0 12 70v82q0 11 12 11q0 12 -12 12q12 116 12 175v140q-128 -128 -327 -128q-325 0 -502 315q-35 102 -35 233v47q0 247 234 431 q132 47 210 47q172 0 431 -117v24l-11 58q11 46 11 82h70q27 0 47 11l70 -23l-12 -82v-280l12 -70q0 -11 -12 -11l12 -105q0 -1120 -82 -1120q-180 -222 -373 -222q-259 0 -490 198q-31 0 -93 145v59q-27 0 -47 11l-47 -11q-61 11 -116 11q0 27 -12 47l12 23zM410 560 q82 -385 327 -385q284 0 385 268q0 95 11 187q-78 221 -186 221q0 26 -234 59q-187 0 -256 -164z" />
<glyph unicode="h" horiz-adv-x="1680" d="M60 1563v117l23 35q216 11 315 11h140q12 0 12 -11l23 11h117v-11q0 -42 12 -105q-18 -47 -35 -47h-175q-12 -137 -12 -198v-82q0 -26 12 -47l-12 -23q12 -99 12 -163v-47l-12 -58h12q159 105 338 105h23q308 0 444 -164q81 -271 81 -571v-140h12q198 0 198 -47l12 -70 l-35 -70q-12 0 -35 12l-105 -12q-15 0 -117 12q-22 -12 -35 -12v12q-11 0 -11 -12l-117 12h-163q-24 0 -35 116q0 59 151 59v-12l24 12h70v70q-24 595 -129 595q-197 46 -210 46q-247 -38 -361 -151q-24 -59 -24 -210v-350q4 -24 24 -24h105l81 -11v-12l12 -117 q-23 -11 -35 -11q-61 0 -198 -12l-70 12q-12 0 -12 -12l-82 12h-175v58q0 93 70 93h94v292q0 279 11 432q-11 120 -11 408v93q0 26 11 47q-11 22 -11 35q11 64 11 93l-23 12h-210z" />
<glyph unicode="i" horiz-adv-x="793" d="M60 46v70q0 39 152 47h58q23 513 35 560q-12 45 -12 93v82q-35 0 -35 12q-11 0 -11 -12q-152 0 -152 70v70q0 15 70 47h280l35 -24q-12 -355 -12 -525v-186q0 -12 -11 -12l11 -23l-11 -140l23 -12h198q0 -18 35 -47v-105q0 -23 -23 -23q-12 0 -12 12l-23 -12 q-47 0 -47 12l-81 -12h-455zM247 1353q0 93 140 117q140 -21 140 -164q0 -93 -129 -116h-11q-140 0 -140 163z" />
<glyph unicode="j" horiz-adv-x="1307" d="M60 -182q9 0 70 12q12 0 35 -12q198 12 198 23l59 -11h233l23 -82v-47q0 -35 -198 -35q0 12 -12 12q56 -262 362 -262h23q175 0 175 245q0 352 -23 1249h-140l-117 -12q-11 103 -11 128q0 51 186 59l24 -12q46 12 81 12l24 -12q22 12 35 12q116 -7 116 -35q0 -11 -11 -94 q0 -29 11 -93l-11 -70q11 -339 23 -455l-12 -23q12 -100 12 -164v-245q0 -11 -12 -11l12 -24q0 -11 -12 -11q0 -12 12 -12l-12 -117v-58q0 -12 -11 -12q0 -11 11 -11q0 -310 -175 -374q0 -35 -151 -35h-82q-423 0 -513 425h-199q-23 0 -23 35l12 82q-12 23 -12 35zM958 1283 v93q58 82 140 82q129 0 129 -105v-47q0 -101 -140 -116q-121 0 -129 93z" />
<glyph unicode="k" horiz-adv-x="1645" d="M60 0v128q19 47 82 47h151v945l12 70q-12 19 -12 58v58q0 82 12 257l-23 12h-140q-24 0 -24 23v12q0 128 35 128q12 0 12 -12l23 12h210q225 0 339 23q31 0 46 -70q-19 -105 -46 -105q-76 0 -234 -11q0 -24 -11 -24q0 -11 11 -11l-11 -59q0 -99 -12 -443l-12 -23l12 -24 q-12 -152 -12 -245v-46q263 221 362 338l-23 -12h-105q0 55 -24 82v35q0 70 47 70q524 35 583 35q35 0 35 -187q-291 -26 -291 -81q-24 0 -257 -234q0 -21 222 -315q136 -233 186 -233q39 0 59 -12q79 12 128 12h163v-35q0 -42 12 -105q-12 -23 -12 -35q-273 -12 -350 -23 v11l-23 -11h-128q-94 0 -210 23v12q0 46 23 151h93v12q-241 367 -303 420l-175 -140v-292h35q55 0 117 12q45 -12 93 -12v-35l-12 -70l12 -23q0 -31 -58 -58l-24 11q-63 -11 -105 -11q-11 0 -11 11l-24 -11h-128q-26 0 -47 11l-140 -23q-20 12 -46 12h-82z" />
<glyph unicode="l" horiz-adv-x="968" d="M60 1633h12q0 12 -12 12q12 93 58 93l59 -12l23 12l47 -12q148 12 163 24q20 -12 47 -12q12 0 35 12q105 -22 105 -47q-12 -260 -12 -420v-12l12 -70q-12 -19 -12 -58v-35q0 -35 12 -35l-12 -58v-817q35 0 35 -12l117 12h116q35 -12 35 -70v-47q0 -70 -105 -70 q-81 0 -93 -11l-23 11q-196 -11 -304 -11h-35l-70 -12q-175 0 -175 93v24q0 93 70 93h245v222l12 70l-12 23l12 23q0 12 -12 12l12 58v292q0 75 -12 152q12 42 12 128q0 12 -12 35q0 12 12 12l-12 116v12q0 61 12 198q-12 0 -12 -11l-58 11h-47q-26 0 -46 -11q-21 11 -47 11 h-93q-31 0 -47 82z" />
<glyph unicode="m" horiz-adv-x="2427" d="M60 58v70q0 17 35 35h70l117 12q11 215 11 315v58l-11 70q11 23 11 35l-11 23q0 13 11 35l-11 105q0 9 11 70q0 12 -11 12l11 58v47h-175q-23 0 -23 23v94l12 58l116 -12h269l23 -11l-12 -59q12 -22 12 -35h12q87 94 408 94q268 -70 268 -129h35q0 69 234 152 q61 12 116 12h82q338 -54 338 -257q38 0 70 -747h82q187 0 187 -35v-35q0 -11 -12 -11l12 -24q0 -70 -94 -81h-595q-23 0 -35 116q0 59 105 59h164v81l-12 59h12q-12 22 -12 35q0 618 -152 618q-83 12 -93 12q-313 0 -373 -210v-572q137 -12 198 -12h12q23 -3 23 -23 q0 -40 -35 -152q-26 0 -47 12q-20 -12 -46 -12q-12 0 -12 12q-59 -23 -175 -23q-23 0 -23 11l-59 -11h-151q-12 0 -12 11l-23 -11h-24q-23 0 -23 23v58q0 105 105 105q62 0 105 12v222q0 513 -128 513q-77 35 -164 35q-154 0 -291 -152h-12q-12 -215 -12 -315v-186 q0 -12 -11 -12l11 -23q-11 -65 -11 -94h11q210 0 210 -35v-46q0 -27 -11 -47q11 -23 11 -35l-35 -23q-325 -12 -420 -12q-7 0 -151 12z" />
<glyph unicode="n" horiz-adv-x="1785" d="M60 1003l12 58v82h408v-105q192 105 315 105h105q205 0 373 -187q129 -264 129 -676l-12 -24q12 -46 12 -81h11q292 0 292 -59v-81q0 -35 -47 -35q-174 0 -641 11l-24 -11q-70 15 -70 35v105q20 0 59 35h233v11q0 35 -12 35l12 59v116q0 486 -163 549q-109 46 -199 46 q-258 0 -373 -186v-397q0 -76 12 -233h11q234 -12 257 -12l23 -105q0 -58 -93 -70l-58 12h-234q-39 0 -58 -12l-70 12h-117q-60 0 -70 35v70q29 70 105 70l24 -12q22 12 35 12v-12l81 23l-11 47q0 100 11 210q-11 311 -35 490q12 20 12 47h-210z" />
<glyph unicode="o" horiz-adv-x="1365" d="M60 548q77 432 175 432q88 116 397 128q22 -12 35 -12q20 12 46 12q397 -100 397 -175q79 0 163 -373q0 -86 12 -129h-12l12 -23q-86 -269 -198 -315q-105 -86 -409 -128q-401 0 -560 326q-58 150 -58 257zM235 630q0 -324 280 -467q43 -23 93 -23h105q350 0 409 326 q0 317 -269 455l-221 35l-24 -11q-11 0 -11 11q-201 0 -280 -140q-47 0 -82 -186z" />
<glyph unicode="p" horiz-adv-x="1517" d="M60 -630l12 58h175q23 0 23 23v385q0 213 -12 537q0 12 -11 12l11 58v128q0 277 35 537q83 23 94 23h46q35 0 35 -128q121 105 374 105q149 0 361 -117q234 -136 234 -338v-82q0 -355 -152 -443q-153 -123 -268 -140h-94q-204 0 -466 152v-245q0 -27 -12 -47 q0 -12 12 -12l-12 -58q9 -338 23 -338q27 0 47 -12q20 12 47 12l23 -12l23 12q70 0 70 -94v-46l-23 -35q-296 -12 -432 -12h-140q-23 0 -23 23v94zM457 513q0 -159 245 -315q161 -47 280 -47q221 104 221 164q82 0 82 315v70q-132 245 -537 245h-23q-112 -15 -175 -82 q-93 -169 -93 -350z" />
<glyph unicode="q" horiz-adv-x="1657" d="M60 490v70q0 486 513 560q269 0 455 -129h12v70q0 82 58 82q104 -12 129 -12v-11q0 -146 11 -210q-11 -266 -11 -502v-268l11 -140h-11q0 -12 11 -12l-11 -58v-490q157 11 233 11h105l12 -58v-47q0 -93 -164 -93l-70 12h-58q-26 0 -47 -12h-35v-12l-23 12h-23 q-27 0 -47 -12q-82 28 -82 47q0 12 12 12l-12 23v222q0 179 12 548q-181 -140 -420 -140q-338 0 -502 327q-58 80 -58 210zM223 595q47 -385 187 -385q21 -59 245 -94h12q222 0 373 374q12 79 12 128q0 256 -362 362l-23 -12h-35q-12 0 -12 12q-277 0 -397 -362v-23z" />
<glyph unicode="r" horiz-adv-x="1505" d="M60 1001v58l12 82h256q12 0 12 -12l23 12h105l12 -58v-129q162 152 292 152q411 0 466 -315v-82h140q19 0 47 -46q0 -105 -93 -105l-245 -24q-44 12 -105 12h-47l-12 58q0 12 12 12l-12 23v24q0 18 47 46h117q-29 222 -199 222h-46q-210 0 -350 -233l-12 -70 q0 -93 12 -245q-12 -80 -12 -129l12 -70h46l140 -11v-129q0 -18 -46 -46h-70q-42 0 -105 11l-24 -11l-23 11l-23 -11l-47 11q-23 -11 -35 -11l-23 11q-12 0 -12 -11l-58 11h-59q-11 104 -23 129q7 46 93 46h82v794h-222q-23 0 -23 23z" />
<glyph unicode="s" horiz-adv-x="1330" d="M60 245h12l-12 23v70l117 12q29 -24 58 -24v-35q0 -128 58 -128h12q82 0 93 12q80 -12 129 -12h338q187 0 187 140v12q0 113 -199 163h-46q-104 0 -234 12l-46 -12q-77 12 -152 12h-58q-187 59 -187 291q90 292 222 292q0 70 606 70q102 -12 117 -12v12q0 19 -12 140h94 q81 0 81 -163q12 -112 12 -245v-82q0 -82 -105 -82q-53 23 -58 47v175h-12q-175 5 -175 23q-12 0 -12 -11q-161 23 -315 23q-268 -43 -268 -210v-12q0 -105 303 -105h234q11 0 11 -11l24 11q350 -77 350 -408q0 -105 -164 -198q0 -30 -571 -47q-23 12 -35 12q-13 0 -35 -12 l-82 12l-82 -12v-128q0 -61 -35 -70h-81l-59 11v24q0 11 12 11l-12 24v105l-11 70q0 11 11 11z" />
<glyph unicode="t" horiz-adv-x="1225" d="M60 1201q12 35 70 35h163q24 0 24 24v455q3 23 23 23q75 0 163 -23v-210l12 -70q-12 -23 -12 -35q12 -77 12 -152h245q70 0 70 -93v-35q0 -47 -198 -47h-117v-140q0 -35 -12 -35l12 -58v-327q0 -288 128 -350q12 0 12 12q87 -24 105 -24q128 0 210 175h-70l-117 -11 l-23 35l12 140h46q35 0 35 -12q46 12 245 23q47 -7 47 -93q0 -255 -187 -350q-136 -47 -210 -47h-70q-236 0 -303 175q-58 269 -58 304l11 58q0 99 -11 537q-137 -12 -199 -12h-23q-35 0 -35 128z" />
<glyph unicode="u" horiz-adv-x="1645" d="M60 980v46q14 87 47 94h221q27 0 47 -12q20 12 47 12h233v-12q12 -102 12 -117q0 -58 -129 -58q-80 12 -128 12v-257q0 -432 93 -432q24 -58 187 -93q145 -12 152 -12q191 0 280 222l58 478v12q-12 70 -23 70q-18 0 -187 12v93l-12 58l24 12q323 -12 536 -12 q38 0 47 -140l-35 -23h-198v-93q0 -65 -12 -164q0 -11 12 -11l-12 -59v-105q-49 -466 -327 -466q-77 -24 -198 -35q-537 0 -537 396q0 151 -11 234q0 11 11 11l-11 59v245l-117 11h-47q-23 0 -23 24z" />
<glyph unicode="v" horiz-adv-x="1960" d="M60 991v12q0 93 93 93l140 -11q23 11 35 11t12 -11l58 11h304l11 -58v-105l-116 -12h-82q217 -392 443 -723q502 702 502 723h-163q-21 0 -35 105q15 59 35 59q63 0 326 11q177 -11 245 -11l12 -24v-70q0 -49 -47 -81l-58 11h-47q-67 0 -186 -210q-76 -87 -385 -525 q-125 -163 -210 -210h-59q-210 281 -396 630q-109 264 -164 315q-121 -11 -140 -11v11l-23 -11q-105 0 -105 81z" />
<glyph unicode="w" horiz-adv-x="2707" d="M60 1061q12 23 12 35h81q160 0 420 12q23 -12 35 -12q20 12 59 12q23 -38 23 -70v-58q0 -20 -210 -47q197 -407 397 -700h11l327 712l-23 -12h-117q-61 0 -70 35v70q23 29 23 58q216 12 315 12h175l70 -12q20 12 59 12l11 -58v-59q0 -18 -46 -46q-12 0 -12 11l-23 -11 h-117q327 -597 327 -642l23 -12l373 642v12h-175q-20 0 -46 128q26 21 128 35q12 0 12 -12l140 12h361q0 -19 24 -35q0 -117 -24 -117q-245 0 -245 -58q-408 -689 -408 -723l23 11h129q70 0 70 -93q0 -70 -70 -70l-24 12q-22 -12 -35 -12v12l-23 -12h-93q-42 0 -105 -12 q-12 0 -12 12l-117 -12h-210q-23 0 -23 24q12 79 12 128l58 12h128q-171 400 -338 641q0 -36 -245 -606q0 -13 -12 -35q12 0 12 11l58 -11h117l12 -59v-58q0 -27 -82 -35q-489 -12 -607 -12q-23 39 -23 70v82q152 12 152 35q-292 502 -409 747l-58 -12h-82l-81 12v11 q0 42 -12 105z" />
<glyph unicode="x" horiz-adv-x="1797" d="M60 11v12q35 114 35 140q293 0 350 117l315 268q-396 348 -397 397l-81 -12h-59q-128 0 -128 58v82q4 23 23 23h339l58 12v-12l23 12h59q42 0 105 -12q17 12 70 12q35 -43 35 -82v-11l-12 -59h-35q-59 0 -175 -11v-12q256 -272 292 -280q144 121 326 292h-221l-12 58v82 q125 14 152 23q11 0 11 -12q137 12 199 12h373l12 -82q-12 -70 -35 -70h-12q-201 0 -280 -58q0 -26 -373 -338l-24 -35q392 -350 444 -350q43 -12 105 -12h81l12 -58v-59q0 -35 -128 -35h-210q-27 0 -47 -11q-12 0 -12 11l-116 -11h-105q-70 0 -70 93v35q0 35 210 35 q-270 268 -292 268q-268 -245 -268 -256h186l12 -117q0 -30 -105 -47q-12 0 -12 12l-116 -12h-502z" />
<glyph unicode="y" horiz-adv-x="1867" d="M60 1026v59h12q174 0 641 11q14 -19 24 -116q0 -47 -152 -47h-12q-11 0 -11 12q-20 -12 -59 -12q147 -229 409 -735l23 -12l408 747l-116 12l-105 -12v12l-24 -12q-9 0 -35 35q0 25 35 117h572q26 0 47 11q70 0 70 -81v-47q-12 -35 -70 -35h-210q-156 -327 -665 -1318 q-82 -169 -82 -199h58q12 0 12 -11l23 11h47l82 -11v-129q-199 -15 -199 -23l-58 12h-373q-35 7 -35 93v58h11q76 0 234 12q0 17 256 537v11q-31 107 -280 549q-194 368 -245 408h-175q-58 30 -58 93z" />
<glyph unicode="z" horiz-adv-x="1482" d="M60 81q0 93 93 129q474 403 934 735h-164q-81 0 -256 -12v12l-24 -12h-268l-70 12q-23 -12 -35 -12v-23q0 -27 12 -47q0 -61 -105 -70q-70 0 -70 163v70l-12 59h12l-12 23v128q4 24 23 24h117q35 0 35 -164h117q11 0 11 -11q23 11 35 11q124 0 502 12v-12q23 12 35 12 q52 0 350 -12l23 -35v-70q0 -79 -256 -256l-584 -444q-115 -103 -116 -116h455q26 0 46 11q12 0 12 -11l117 11h198l23 12l-11 23v47l11 58h152v-70l12 -70l-12 -23q12 -23 12 -35l-12 -23q12 -21 12 -47q0 -12 -12 -12q0 -11 12 -11l-12 -59v-93l-58 -12h-70q-24 0 -24 24 v116h-571q-42 0 -105 -11q-15 11 -82 11h-23l-59 -11v11l-23 -11h-233l-59 -12q0 21 -23 93z" />
<glyph unicode="{" horiz-adv-x="805" d="M60 875v35q58 0 93 140q-11 307 -11 361h11q0 12 -11 12q0 362 175 362h140q186 0 186 -94v-46q0 -24 -23 -24q-12 0 -12 12q-11 0 -11 -12l-117 12h-12q-140 0 -140 -47v-35l12 -70l-12 -23q12 -21 12 -47h-12q0 -11 12 -11q-12 -62 -12 -70q24 -172 24 -257v-35 q0 -94 -82 -140l-12 -23q105 -23 105 -152v-175q0 -12 -11 -12q0 -11 11 -11l-11 -82v-117q0 -99 70 -140q303 0 303 -58v-23q0 -12 -12 -12q12 -23 12 -35q-16 -58 -82 -58h-151q-27 0 -47 -12q-170 0 -245 198q-23 70 -35 350l12 117q0 135 -117 222z" />
<glyph unicode="|" horiz-adv-x="397" d="M60 326h12l-12 24l12 23q0 12 -12 35q12 46 12 82l-12 46l12 24q-12 22 -12 35h12q0 11 -12 11q0 24 12 24q-12 116 -12 175v256q0 64 12 164q0 11 -12 11l12 47v455q159 35 198 35l47 -12v-723q0 -12 -12 -12q0 -11 12 -11q-12 -138 -12 -199v-245q0 -42 -12 -105 q12 -22 12 -35l-12 -46l12 -70q0 -12 -12 -12l12 -58v-175q-59 -24 -222 -35l-11 23v187z" />
<glyph unicode="}" horiz-adv-x="852" d="M60 1656v12q0 117 93 117h12q350 0 350 -117q93 -108 93 -210q0 -87 -11 -408q80 -117 151 -117q24 -76 24 -105q0 -11 -152 -93q-28 -94 -35 -94l12 -140v-233q0 -268 -362 -268h-163v23q0 152 46 152q98 0 105 11q21 -11 47 -11h47q105 15 105 105v221q0 12 11 12 q0 12 -11 12q38 326 105 326v24q-90 0 -105 140v116q0 12 11 12q0 12 -11 12q11 46 23 256q0 199 -128 199h-117q-12 0 -12 11l-23 -11h-58q-19 0 -47 46z" />
<glyph unicode="~" horiz-adv-x="1575" d="M60 805v46q0 24 93 35q181 117 315 117q208 0 409 -117l58 -11q257 0 397 198h23q98 -65 140 -152v-23q-177 -233 -432 -233h-58q-86 0 -338 93l-70 12q-183 -20 -350 -129h-24q-22 0 -93 94q-47 70 -70 70z" />
<glyph unicode="&#xa1;" horiz-adv-x="350" d="M60 280l12 116q-12 92 -12 280v70l58 12h117l23 -12l-11 -46q11 -1036 11 -1225q12 -102 12 -117q-18 -47 -35 -47h-128q-17 0 -35 35q0 12 11 12l-11 23v280q0 262 -12 619zM60 886v234q18 0 47 23h70q70 0 70 -70v-222l-140 -11z" />
<glyph unicode="&#xa2;" horiz-adv-x="1517" d="M60 688q0 734 303 875q61 44 199 82h35v233h35q26 0 46 12q117 -12 117 -117q-12 -23 -12 -35l12 -23q-12 -21 -12 -47v-23h35q374 -94 374 -350l35 -129l23 12h128q16 0 59 -58v-94h-292q-39 0 -58 -11l-70 11h-175l-12 47q0 105 70 105h12q45 -12 93 -12l12 24 q0 194 -199 291q-17 0 -163 12q-175 0 -338 -245q-59 -231 -59 -607q12 -20 12 -46l-12 -24q0 -142 222 -315q43 -35 163 -35h59q291 29 291 234l-23 11h-187l-11 59v70q58 8 58 35q560 0 560 -59q12 -20 12 -46v-70h-187q0 -277 -303 -362q-25 -12 -129 -23v-187 q-46 -58 -105 -58h-46q-19 0 -35 93l11 58v82q-242 31 -431 222q-82 190 -117 408z" />
<glyph unicode="&#xa3;" horiz-adv-x="1668" d="M60 933q71 35 210 35l47 -12v12q-24 237 -24 268q35 277 105 385q144 164 362 164h47q245 -38 245 -269q0 -48 11 -93q-11 -23 -11 -35l11 -70q-73 -58 -116 -58q-59 15 -59 35v105q0 160 -116 245q-126 0 -257 -175q-23 -46 -23 -129q0 -98 11 -373l24 -12h116 q62 0 199 -11q0 -55 23 -82v-47q-35 -45 -35 -70h-58q-12 0 -12 12l-23 -12h-129l-116 -11v-35q0 -214 -94 -397l59 12q153 -24 490 -117q63 -12 105 -12q102 0 163 222h-140q-82 0 -82 58q12 129 47 129h478q70 0 70 -105v-12l-11 -82h-187q-74 -326 -175 -326 q-55 -70 -152 -70q-120 0 -455 105q-93 7 -93 23l-23 -12h-12q-12 0 -12 12q-132 -39 -221 -128l-59 -12v12l-23 -12h-23q-43 22 -59 70q0 43 82 152q152 412 152 548q-12 0 -12 -12l-58 12q-9 0 -70 -12v12l-24 -12l-23 12l-23 -12q-35 12 -35 24q0 17 -12 163z" />
<glyph unicode="&#xa4;" horiz-adv-x="1027" d="M60 1726q50 82 93 82h12q47 0 128 -105q29 -23 47 -23q105 35 140 35h23q74 0 199 -47q83 105 151 105q64 0 94 -70v-58q-91 -91 -152 -105v-12q0 -35 12 -35q-24 -123 -24 -152q70 -32 140 -140v-23q0 -15 -70 -58h-35q-58 0 -175 105q-169 -24 -233 -24l-58 12 q-67 -152 -105 -152q-114 32 -117 59v11q105 148 105 175q-23 125 -23 164v93q-152 70 -152 163zM352 1435q0 -105 116 -129q175 31 175 140q0 164 -140 164q-151 -39 -151 -152v-23z" />
<glyph unicode="&#xa7;" horiz-adv-x="1073" d="M60 291v24q3 65 35 128l58 12q140 -16 140 -82v-12q-27 0 -35 -81q132 -59 187 -59q175 21 175 199q12 0 12 58q-166 268 -304 268q-221 105 -221 280h11q-23 46 -23 129v23q77 315 140 315l-12 82v35q0 11 12 11l-12 24q79 315 199 315q0 16 105 23q385 -76 385 -222 q9 0 46 -116l-11 -47q0 -16 46 -82v-58l-70 -12q-175 0 -175 129q0 159 -81 210q-19 0 -47 23h-82q-93 -27 -93 -152q-21 0 -23 -128q0 -149 315 -268q198 -152 198 -210q35 -82 47 -210q-68 -208 -152 -292l23 -152q-104 -326 -233 -326q0 -24 -175 -24q-385 65 -385 245z M293 1085q0 -152 234 -234q148 -72 163 -116h23q47 106 47 198q-151 245 -257 245q-97 39 -163 93h-12q-35 -109 -35 -186z" />
<glyph unicode="&#xa8;" horiz-adv-x="721" d="M60 1263q0 13 14 26l71 72q13 12 25 12q11 0 27 -14l69 -73q10 -14 10 -25q0 -13 -12 -27l-69 -75q-17 -17 -25 -17q-14 0 -25 12l-76 86q-9 12 -9 23zM425 1263q0 13 14 26l71 72q13 12 25 12q11 0 27 -13l69 -74q10 -14 10 -25q0 -13 -12 -26l-69 -76q-17 -17 -25 -17 q-14 0 -25 12l-76 87q-9 11 -9 22z" />
<glyph unicode="&#xa9;" horiz-adv-x="1353" d="M60 910q0 187 152 431q159 210 455 210q361 -62 361 -116q123 -74 210 -257q0 -56 35 -245q0 -333 -128 -420q0 -74 -350 -175h-105q-430 0 -583 327q-38 95 -47 245zM200 968q0 -355 280 -443q0 -40 210 -59q241 39 350 129q93 117 93 256q0 400 -326 549l-117 11 q-279 0 -467 -315l12 -46zM375 933q0 290 198 327l140 11q137 0 210 -128v-12q0 -60 -35 -70h-81q-36 105 -129 105h-23q-140 0 -140 -198q12 -21 12 -47h-12q55 -210 163 -210h35q62 0 117 94h58q59 -3 59 -24q-73 -186 -245 -186h-47q-235 0 -268 256q0 36 -12 82z" />
<glyph unicode="&#xaa;" horiz-adv-x="1482" d="M60 338q0 293 315 397q154 23 257 23q292 0 396 -105v12q0 268 -268 268q0 16 -93 23q-235 -6 -502 -128v58q0 140 82 140q116 59 373 82q395 0 490 -140q56 0 105 -502q0 -11 -12 -11l12 -59v-140q0 -11 -12 -11q12 -23 12 -35l-12 -82h199v-93l-12 -59l-117 12h-93 q-26 0 -47 -12l-23 12q-20 -12 -47 -12q-23 38 -23 152q-140 -105 -257 -105q-13 0 -128 -23h-128q-333 0 -420 151q-47 109 -47 187zM235 350q0 -146 233 -210h47l58 11v-11q396 56 420 221v35q0 210 -431 210q-327 -60 -327 -256z" />
<glyph unicode="&#xab;" horiz-adv-x="1283" d="M60 583v12q33 72 513 548q117 -78 117 -128q0 -19 -385 -420q408 -410 408 -432q-58 -105 -128 -105q-403 390 -408 408q-16 0 -117 117zM538 606v12q398 413 549 525q50 0 116 -105q0 -31 -280 -292l-140 -151q21 0 385 -397v-23q-28 -63 -116 -105h-24q0 15 -233 245 q-257 275 -257 291z" />
<glyph unicode="&#xac;" horiz-adv-x="1610" d="M60 1026q12 21 12 47l-12 23q12 21 12 47q8 0 70 -12q52 0 70 12q19 0 140 -12q608 12 805 12q12 0 35 12q22 -12 35 -12q12 0 35 12l58 -12q7 0 152 12q46 -18 46 -35q0 -96 -11 -187q11 -241 11 -455l12 -105l-35 -23h-105l-58 11q0 12 11 12l-11 23v35q0 12 11 12 l-11 23v140q0 111 -12 269q12 45 12 93l-82 -12h-280q-204 0 -420 -11l-117 11q-160 -11 -350 -11z" />
<glyph unicode="&#xad;" horiz-adv-x="1178" d="M60 653l47 140q278 23 513 58l58 -11h280l70 11q70 -11 70 -140q0 -81 -81 -81q-417 -47 -852 -70l-23 11q-21 -11 -47 -11q-35 49 -35 93z" />
<glyph unicode="&#xb0;" horiz-adv-x="898" d="M60 1470v11q23 146 105 245q97 70 280 70v-11q12 0 12 11q128 0 245 -116q116 -80 116 -280q0 -241 -303 -315h-93q-362 101 -362 385zM247 1493q0 -198 105 -198q0 -31 93 -47q187 0 187 140q11 15 11 82q-65 151 -245 151h-11q-139 -74 -140 -128z" />
<glyph unicode="&#xb1;" horiz-adv-x="1248" d="M60 840v46q7 70 35 70h303q12 0 12 -11l23 11h82v397q7 35 93 35h24l81 -23v-409h152q26 0 47 12q20 -12 46 -12q64 0 164 12q46 -18 46 -35v-93l-11 -59q-108 0 -304 -11q-22 11 -35 11q-19 -11 -58 -11h-35q0 -39 -12 -59q12 -119 12 -186v-140q-12 -35 -70 -35h-70 q-32 0 -70 23l12 82v315h-432q-35 11 -35 70zM107 186q15 59 35 59h11q12 0 12 -12l23 12h257q26 0 47 11l23 -11q23 0 23 11l140 -11h175q12 0 12 -12q23 12 35 12q152 -6 152 -24l23 12h12q16 0 35 -35v-23q-17 -129 -82 -129h-327q-500 24 -536 24q-70 0 -70 116z" />
<glyph unicode="&#xb2;" horiz-adv-x="828" d="M60 1505q0 58 93 70q85 256 304 256q233 -19 233 -163v-23q0 -81 -327 -455q59 0 59 -12l23 12h70q12 0 12 -12l23 12h23l59 -12v58q0 66 58 82l58 -12v-198q0 -18 -46 -47h-549q-23 0 -23 24v46q443 467 443 537v12q-42 35 -81 35h-35q-96 0 -175 -129v-23q58 0 58 -23 v-59q0 -23 -23 -23h-222q-18 0 -35 47z" />
<glyph unicode="&#xb3;" horiz-adv-x="1610" d="M60 560v46q0 105 93 105q12 0 12 -11l47 11q296 12 396 12q14 -56 47 -93v-47q0 -28 -210 -47q0 -204 245 -326q163 -12 210 -12q385 63 385 198v70q0 214 -198 292q-47 0 -47 12q-12 0 -12 -12l-58 12h-47l-81 -12q0 12 -12 12q0 -24 -23 -24h-47l-35 164q0 58 385 93 q233 71 233 187q0 283 -268 385q-128 0 -128 11q-191 0 -444 -221l-35 -47v-23h117q82 0 82 -82q0 -12 -12 -12l12 -23q-24 -48 -24 -70q-137 12 -198 12h-303q-12 0 -12 11l-23 -11q-24 0 -24 23v117q0 16 35 35h129q20 0 46 105q190 283 514 373q19 12 58 12h35 q12 0 12 -12l23 12h47q153 0 350 -164q177 -189 198 -385v-23q0 -189 -233 -350q186 -173 186 -397v-58q0 -74 -105 -222q-147 -175 -513 -175h-12l-70 12l-23 -12q-214 22 -408 222q-94 222 -94 292h-128q-61 0 -70 35z" />
<glyph unicode="&#xb4;" horiz-adv-x="601" d="M60 1078l291 297q35 35 55.5 47t40.5 12q33 0 53.5 -20t20.5 -51q0 -22 -15.5 -42t-46.5 -40l-330 -203h-69z" />
<glyph unicode="&#xb5;" horiz-adv-x="1762" d="M60 1050v11q0 105 105 105v-11q12 0 12 11l58 -11h338q27 0 47 11q47 0 47 -128l-12 -58h-245v-105l12 -70q-12 -21 -12 -47l12 -23l-12 -59q0 -373 128 -420q86 -58 280 -58h59q162 0 245 210q35 161 58 572q-12 0 -12 -12l-58 12h-117q-23 0 -23 23v140h58 q116 0 280 -12l24 12q22 -12 35 -12l81 12q117 0 117 -140v-12l-35 -23h-198v-187q0 -26 -12 -46q12 -21 12 -47l-12 -58q12 -23 12 -35h-12q0 -12 12 -12l-12 -58v-12q0 -251 117 -303l70 -24q58 0 70 140h58q47 -61 47 -81v-24q0 -161 -222 -186q-118 0 -245 140 q-128 -129 -373 -129h-35q-277 0 -385 70v-583q0 -64 11 -163q-15 -59 -35 -59h-116q-35 0 -35 175q0 24 11 24l-11 81v385q0 250 -12 467q12 102 12 175q-12 190 -12 373h-163z" />
<glyph unicode="&#xb6;" horiz-adv-x="1027" d="M60 1481q0 9 12 70q0 9 -12 70q0 166 198 269q196 46 234 46l105 -11v-164q0 -128 11 -128q-11 -119 -11 -187v-618q0 -26 -12 -47q12 -20 12 -46q0 -12 -12 -12l12 -58q0 -113 -12 -245q12 -100 12 -164q-12 -103 -12 -128q12 -46 12 -82q-38 -23 -59 -23 q-151 9 -151 23q0 27 -12 47q23 261 23 572q0 12 -11 35q11 20 11 46q0 12 -11 12l11 58v292q-11 0 -11 -12q-304 77 -304 304q-23 0 -23 81zM713 93v70q0 12 12 12l-12 23l12 23q0 13 -12 35q12 129 24 129q0 11 -12 11l12 59v151l-12 117h12q0 12 -12 12l12 116v350 q0 39 11 59l-11 70q0 149 11 326l-11 70h11l-11 24q0 11 11 11l-11 82v58q0 20 70 35q112 -23 128 -23q0 -12 -12 -12l12 -23v-140q0 -86 12 -128q-12 -77 -12 -152v-163q0 -152 -12 -315q12 -62 12 -117q-12 -102 -12 -117l12 -105q-12 -154 -12 -256l12 -82 q-12 -19 -12 -58q0 -13 12 -35l-12 -70v-12l12 -82l-35 -23h-47q-26 0 -46 12q-21 -12 -47 -12q-47 12 -47 70z" />
<glyph unicode="&#xb7;" horiz-adv-x="607" d="M60 968q0 175 268 175q199 -66 199 -198v-35q-69 -187 -199 -187h-81q-187 89 -187 245z" />
<glyph unicode="&#x2219;" horiz-adv-x="607" d="M60 968q0 175 268 175q199 -66 199 -198v-35q-69 -187 -199 -187h-81q-187 89 -187 245z" />
<glyph unicode="&#x2022;" horiz-adv-x="607" d="M60 968q0 175 268 175q199 -66 199 -198v-35q-69 -187 -199 -187h-81q-187 89 -187 245z" />
<glyph unicode="&#xb8;" horiz-adv-x="548" d="M60 -290q85 -52 152 -52q66 0 94.5 21.5t28.5 66.5t-49 64q-40 16 -102 16q-16 0 -34 -2l48 176h63l-37 -104q32 4 62 5q86 0 134 -40.5t48 -113.5q0 -76 -58.5 -120.5t-160.5 -44.5q-109 0 -189 32v96z" />
<glyph unicode="&#xb9;" horiz-adv-x="1820" d="M60 910v140q0 23 210 46q111 220 350 549q82 108 82 128h35q35 0 35 12l58 -12h187q35 -12 35 -70v-303q0 -27 11 -47q-11 -23 -11 -35q0 -23 11 -23l-11 -82q-12 -855 -12 -1003h198q27 0 47 -12q20 12 47 12h93q12 0 12 -12l23 12h23q12 0 12 -12l23 12h12q39 0 58 -12 l70 12h59q23 -4 23 -24v-105l-12 -58h-198q-35 0 -35 -12l-58 12h-409q-203 0 -420 -12q-59 12 -245 12l-46 -12q-20 12 -59 12q-26 0 -46 -12q-21 12 -47 12h-58v105q0 82 105 82v-12l23 12l58 -12q12 0 12 12l58 -12h420l59 12v58q0 62 11 105q0 26 -11 47q11 164 11 280 v105l12 70q0 11 -12 11l12 140v257q0 12 12 12l-12 23q12 211 12 280h-12q-84 0 -140 -140q-133 -169 -257 -385l59 12h128q0 -35 12 -35q-12 -140 -35 -140h-374q-11 0 -11 11l-24 -11h-163z" />
<glyph unicode="&#xba;" horiz-adv-x="1365" d="M60 548q77 432 175 432q88 116 397 128q22 -12 35 -12q20 12 46 12q397 -100 397 -175q79 0 163 -373q0 -86 12 -129h-12l12 -23q-86 -269 -198 -315q-105 -86 -409 -128q-401 0 -560 326q-58 150 -58 257zM235 630q0 -324 280 -467q43 -23 93 -23h105q350 0 409 326 q0 317 -269 455l-221 35l-24 -11q-11 0 -11 11q-201 0 -280 -140q-47 0 -82 -186z" />
<glyph unicode="&#xbb;" horiz-adv-x="1237" d="M60 1015v58q92 70 117 70q452 -436 513 -525v-12q0 -37 -490 -536h-12q-105 69 -105 116q3 23 374 420zM527 151q0 59 221 257q0 13 164 187l-362 408v35q1 18 93 93v12h12q502 -507 502 -572q-20 -2 -385 -396q-117 -93 -117 -117h-12q-55 0 -116 93z" />
<glyph unicode="&#xbf;" horiz-adv-x="1563" d="M60 -187q0 231 163 397q135 107 292 151q152 91 152 222q11 85 11 222q29 11 117 23q70 0 70 -163v-117q0 -250 -408 -385q-187 -113 -187 -338v-70q54 -257 257 -257q42 -12 128 -12h35q303 70 303 164q48 0 105 233l-11 23v59h-175l-12 81v47q0 17 35 35h280 q42 0 105 12q163 -12 163 -59v-23q0 -86 -35 -93q-10 0 -93 11l-70 -11v-59q0 -362 -350 -560q-133 -35 -350 -58q-234 0 -443 222q-47 98 -82 303zM667 945v175l46 11v-11l24 11h93q17 0 35 -35v-163q-7 -35 -82 -35q-116 9 -116 47z" />
<glyph unicode="&#xc0;" horiz-adv-x="2520" d="M60 -24v129q0 32 117 46h175q0 56 455 899q210 401 210 431q-257 0 -257 59q-12 45 -12 93v47q35 0 35 11q24 0 24 -11q316 23 840 23h151q44 -21 70 -105q0 -93 -198 -93h-82v-12q521 -1256 619 -1353h221l12 -140q0 -20 -58 -35l-82 11l-70 -11q-64 11 -128 11l-24 -11 q-11 0 -11 11l-59 -11h-35q-48 0 -128 11l-23 -11q-63 11 -105 11h-24q0 35 -23 94q0 70 105 70h187q-44 71 -164 361h-70q-94 0 -221 12q-23 -12 -35 -12v12l-24 -12h-46q-12 0 -12 12l-23 -12h-595q-73 0 -129 -175q-81 -150 -81 -186h70q58 0 175 -12l11 -82v-46 q0 -24 -93 -35l-70 11l-82 -11q-11 0 -11 11l-59 -11h-58q-116 0 -280 11l-23 -11q-21 11 -47 11h-35zM842 711h175q48 0 128 12q23 -12 35 -12q19 12 58 12v-12l24 12h443q-336 770 -350 770h-105q-23 -26 -408 -782zM935 2135q0 28 93 105h24q297 -296 303 -327v-23 q-25 -52 -105 -94h-12q-187 182 -303 339z" />
<glyph unicode="&#xc1;" horiz-adv-x="2532" d="M60 0v46q0 105 105 105h187q100 253 373 735l303 595q-268 0 -268 59q-12 63 -12 105v11l12 24q429 23 910 23h140q29 0 58 -117q0 -81 -163 -81h-105q0 -75 537 -1260q35 -105 105 -105h186q24 -105 24 -152l-70 -23l-70 11l-70 -11q-62 11 -117 11q-26 0 -47 -11 q-11 0 -11 11l-59 -11q-75 0 -151 11l-47 -11q-140 0 -140 105q0 70 105 70h187q-149 339 -175 361h-12q-99 0 -292 12l-70 -12q-11 0 -11 12l-59 -12h-571q-72 0 -117 -163q-35 -44 -93 -198h11q35 0 35 11q137 -23 199 -23l23 -93q0 -59 -93 -70q-63 11 -105 11l-47 -11 q-12 0 -12 11l-81 -11h-24q-107 0 -303 11l-23 -11q-82 15 -82 35zM842 711h233q26 0 47 12q20 -12 46 -12q9 0 70 12v-12l24 12h443q-284 669 -350 770h-105q-19 0 -93 -187zM1203 1901q269 324 315 327q75 -27 105 -93v-24q-282 -322 -315 -326q-105 59 -105 116z" />
<glyph unicode="&#xc2;" horiz-adv-x="2532" d="M60 0v46q0 105 105 105h187q100 253 373 735l303 595q-268 0 -268 59q-12 63 -12 105v11l12 24q429 23 910 23h140q29 0 58 -117q0 -81 -163 -81h-105q0 -62 502 -1190q70 -175 140 -175h186q24 -105 24 -152l-70 -23l-70 11l-70 -11q-62 11 -117 11q-26 0 -47 -11 q-11 0 -11 11l-59 -11q-75 0 -151 11q-41 -11 -47 -11q-128 0 -128 81v82l140 12h140q-149 339 -175 361h-12q-99 0 -292 12l-70 -12q-11 0 -11 12l-59 -12h-571q-72 0 -117 -163q-7 0 -93 -187q22 -11 35 -11q11 0 11 11q137 -23 199 -23q23 -88 23 -105q0 -42 -93 -58 q-63 11 -105 11l-47 -11q-12 0 -12 11l-81 -11h-24q-107 0 -303 11l-23 -11q-82 15 -82 35zM842 711h233q26 0 47 12q20 -12 46 -12q9 0 70 12v-12l24 12h443v12q-298 679 -350 758h-105q-16 -1 -152 -303q-23 -24 -256 -479zM970 1855v46q198 198 338 292q156 -97 362 -280 h12v-35l-94 -70q-20 -12 -46 -12l-234 187q-190 -187 -245 -187h-11q-61 59 -82 59z" />
<glyph unicode="&#xc3;" horiz-adv-x="2532" d="M60 -24v94q0 81 117 81h175q96 244 373 735l303 595q-268 0 -268 59q-12 61 -12 116l12 24q429 23 910 23h152q0 -19 46 -93q0 -94 -70 -94q-76 -11 -151 -11h-59q529 -1288 619 -1365h221q14 -104 24 -129q0 -31 -70 -46l-59 11q-29 0 -93 -11q-61 11 -117 11 q-12 0 -35 -11q-11 0 -11 11l-59 -11q-75 0 -151 11q-41 -11 -47 -11q-45 11 -93 11h-24q0 35 -23 94q0 70 105 70h187q-156 345 -175 361h-35q-93 0 -245 12q-23 -12 -35 -12v12l-24 -12h-11q-35 0 -35 12l-59 -12h-571q-72 0 -117 -163q-30 -18 -93 -198h70q58 0 175 -12 l11 -82v-46q0 -20 -81 -35q-63 11 -105 11l-47 -11q-12 0 -12 11l-81 -11h-24q-107 0 -303 11l-23 -11q-21 11 -47 11h-35zM842 711h210l70 12q19 -12 58 -12l58 12v-12l24 12h443q-296 693 -350 770h-105q-15 0 -187 -362q-6 0 -221 -420zM923 1960v23h12l23 -12 q13 28 129 94h35q125 0 268 -82h12q123 0 198 140h23l70 -117q-88 -186 -256 -186q-43 0 -222 81q-53 0 -210 -93h-12q-70 109 -70 152z" />
<glyph unicode="&#xc4;" horiz-adv-x="2520" d="M60 -24v129q0 32 117 46h175q83 226 373 735q250 502 292 560v35q-257 0 -257 59q-12 63 -12 105v11q0 9 35 35q24 0 24 -11q316 23 840 23h175q0 -19 46 -93q0 -94 -70 -94q-101 -11 -175 -11h-35v-12q509 -1212 607 -1342q20 -11 47 -11h186l12 -47h-12l12 -23v-94 q-39 0 -58 -11l-59 11q-29 0 -93 -11q-61 11 -117 11q-12 0 -35 -11q-11 0 -11 11l-59 -11h-35q-48 0 -128 11l-23 -11q-63 11 -105 11h-24q0 35 -23 94q0 70 105 70h187q-140 288 -164 361h-46q-93 0 -245 12q-23 -12 -35 -12v12l-24 -12h-46q-12 0 -12 12l-23 -12h-595 q-72 0 -117 -163q-23 0 -93 -198h70q58 0 175 -12l11 -82v-46q0 -20 -81 -35q-63 11 -105 11l-47 -11q-12 0 -12 11l-81 -11h-24q-107 0 -303 11l-23 -11q-21 11 -47 11h-35zM842 711h210l70 12q19 -12 58 -12l58 12v-12l24 12h443q-301 701 -350 770h-105q-15 0 -175 -338 q-18 -15 -233 -444zM935 1983v35q26 55 82 82h58q152 0 152 -140v-12q-75 -117 -140 -117q-152 30 -152 152zM1378 1971v12q0 93 129 117q133 0 186 -140q-35 -129 -175 -129h-11q-97 0 -129 140z" />
<glyph unicode="&#xc5;" horiz-adv-x="2520" d="M60 -24v129q0 32 117 46h175q83 226 373 735q247 499 292 560v35q-257 0 -257 59q-12 61 -12 116q0 9 35 35q24 0 24 -11q316 23 840 23h175q0 -19 46 -93q0 -94 -70 -94q-101 -11 -175 -11h-35v-12q506 -1209 607 -1342q20 -11 47 -11h186l12 -47h-12l12 -23v-94 q-39 0 -58 -11l-70 11q-36 0 -82 -11q-64 11 -128 11l-24 -11q-11 0 -11 11l-59 -11h-35q-48 0 -128 11l-23 -11q-63 11 -105 11h-24q0 35 -23 94q0 70 105 70h187q-140 288 -164 361h-46q-93 0 -245 12q-23 -12 -35 -12v12l-24 -12h-46q-12 0 -12 12l-23 -12h-595 q-72 0 -117 -163q-23 0 -93 -198h70q58 0 175 -12l11 -82v-46q0 -20 -81 -35q-63 11 -105 11l-47 -11q-12 0 -12 11l-81 -11h-24q-107 0 -303 11l-23 -11q-21 11 -47 11h-35zM842 711h210l70 12q19 -12 58 -12l58 12v-12l24 12h443l-338 770h-117q-15 0 -175 -338 q-21 -20 -233 -444zM1063 2006q0 191 280 222q148 0 187 -163v-105q0 -126 -187 -164h-46q-174 0 -234 210zM1215 1983q0 -38 82 -82q105 63 105 82v35q0 70 -82 93q-105 -46 -105 -128z" />
<glyph unicode="&#xc6;" horiz-adv-x="3383" d="M60 81l12 70v35q75 24 105 24h175q0 47 478 933q150 289 198 420h-256q-24 0 -24 23v140q0 18 47 35q23 0 23 -11l82 11h117q11 0 11 -11l24 11h140l58 12v-12q23 12 35 12l82 -12q11 0 11 12l59 -12h116l59 12v-12q11 0 11 12l59 -12h81q35 0 35 12l59 -12h1120 q26 0 46 -11q21 11 47 11h70q163 0 163 -70v-58q0 -67 -11 -82q11 -63 11 -105v-140q0 -21 -105 -35q-81 8 -81 47q-12 205 -12 245h-1283q-42 0 -105 -12q-23 12 -35 12q-47 -9 -47 -23q66 -225 280 -735q223 -12 303 -12l24 12q20 -12 46 -12q23 12 35 12v-12q12 0 12 12 l140 -12h93q24 0 24 35q0 12 -12 12q12 116 35 116h140q15 -179 23 -210l-11 -23l11 -23q0 -12 -11 -12l11 -82v-128q0 -18 -46 -47h-105q-35 0 -35 164q-12 0 -12 -12q-175 12 -257 12h-303v-12q143 -362 187 -362h385q64 0 163 -11q12 0 12 11l81 -11h234q0 58 11 58 q0 12 -11 12l11 58v175q33 58 94 58q79 -6 105 -46l-12 -59v-210q0 -42 12 -105q-17 -116 -105 -116q-75 0 -152 -12v12q-23 -12 -35 -12q-68 0 -187 12q-9 0 -70 -12l-81 12l-105 -12q-77 12 -152 12q-23 0 -23 -12l-59 12h-606q-35 7 -35 93v70q3 23 23 23h245v12 l-152 327q-12 0 -35 11q-11 0 -11 -11l-82 11h-280q-123 0 -257 -11q-61 11 -116 11q-193 -11 -292 -11q-124 -283 -163 -350h128q140 -12 140 -94v-35q-18 -46 -35 -46h-700q-18 0 -35 46zM842 770q157 11 233 11h140l117 12v-12l23 12h117q75 0 233 -12q-315 763 -338 770 h-82l-58 12q-52 -182 -385 -793z" />
<glyph unicode="&#xc7;" horiz-adv-x="1995" d="M60 956q0 273 233 572q245 187 560 187h117q419 0 525 -164q130 -135 152 -268h46q222 0 222 -58v-35q0 -94 -70 -94q-323 -11 -525 -11h-82q-23 81 -23 140v23l233 23q0 236 -431 269q-560 0 -665 -292q-94 -171 -94 -467q0 -352 315 -548q159 -82 514 -82 q202 0 338 199v11h-187q-35 8 -35 94v58q0 17 35 35h269q48 0 128 12q23 -12 35 -12l23 12q63 -12 105 -12h24l58 12q23 -47 35 -47q-12 -152 -47 -152h-186q-257 -396 -502 -396v11q-140 0 -140 -58q0 -12 -12 -35q177 0 222 -175v-70q-66 -268 -198 -268q-292 39 -292 186 q34 82 82 82q14 0 81 -70q76 -23 105 -23q59 70 59 105q0 70 -82 105l-70 -12q-82 0 -82 105v58l12 59h-23q-373 67 -502 198q-280 208 -280 793z" />
<glyph unicode="&#xc8;" horiz-adv-x="2007" d="M60 1540l12 46l-12 105l23 12h374l58 12v-12l23 12h129q262 0 606 -12l59 12q76 -12 151 -12h432q0 -42 12 -105q-12 -164 -12 -280q12 -61 12 -70h-12l-140 -12q-47 12 -47 70v175l-11 24l-82 -12h-82q-46 0 -46 12l-82 -12h-408q-27 0 -47 12q-12 0 -12 -12l-46 12 l-105 -12l-59 12q-101 -12 -175 -12h-58q-7 -233 -23 -233l11 -59v-163q0 -12 -11 -12l11 -23q-11 -158 -11 -233h11q213 -12 269 -12q8 0 70 12l23 -12l70 12h58q12 0 12 -12q12 0 12 12l81 -12h47l58 12v116q0 17 35 35h140l12 -58v-58l-12 -70q0 -12 12 -12l-12 -82v-163 q0 -63 -46 -82h-105q-35 0 -35 164q-12 0 -12 -12l-140 12h-70q-35 0 -35 -12l-58 12h-374v-12q-11 -298 -11 -350h11q64 0 164 -12l23 12q12 0 12 -12q12 0 35 12q335 -12 548 -12l82 -11q11 0 11 11l82 -11h233q0 58 12 58q0 12 -12 12l12 140v93q35 58 82 58 q105 -9 105 -35v-303l11 -70q-9 -20 -23 -140q-193 -12 -292 -12h-128q-12 0 -12 12l-23 -12h-700q-12 0 -12 12l-23 -12h-12q-11 0 -11 12q-23 -12 -35 -12q-11 0 -94 12q-11 0 -11 -12l-82 12h-152q-61 0 -198 -12l-12 24v46q0 152 47 152q12 0 35 -12l70 12h47v455 q0 137 11 280q-11 61 -11 117q11 280 11 443h-151q-12 0 -12 12l-23 -12h-12q-12 0 -35 47zM807 2158q20 52 81 93h47q142 -142 292 -315q0 -66 -105 -128h-24q0 12 -221 257z" />
<glyph unicode="&#xc9;" horiz-adv-x="2007" d="M60 1516l12 70q-12 61 -12 117q256 0 805 12q296 -12 397 -12l58 12q102 -12 175 -12h408q15 -109 24 -140q-12 -63 -12 -105v-210h-35l-82 -12v12l-23 -12q-47 18 -47 35v140l-11 59h11q-11 22 -11 35l-82 -12h-82q-46 0 -46 12l-82 -12h-338q-65 0 -164 12l-23 -12 l-23 12l-59 -12l-70 12q-101 -12 -175 -12h-58q0 -65 -23 -233l11 -59q-11 -174 -11 -291v-140h46q49 0 129 -12l23 12l70 -12l70 12q12 0 12 -12l81 12h70q12 0 12 -12q12 0 12 12l58 -12h128v128q0 17 35 35h140l12 -58h-12q0 -12 12 -12l-12 -81v-269q0 -89 -46 -105 h-105q-35 12 -35 70v94q-12 0 -12 -12l-140 12h-537v-362l164 -12l23 12q12 0 12 -12q12 0 35 12q323 -12 536 -12h12l70 -11q12 0 12 11l116 -11h210v11q0 339 47 339q6 0 47 11q105 0 105 -70v-385q0 -50 -24 -93q-233 -12 -350 -12h-58q-12 0 -12 12l-23 -12h-700 q-12 0 -12 12l-23 -12h-12q-11 0 -11 12q-23 -12 -35 -12q-11 0 -94 12q-11 0 -11 -12l-82 12h-175q-59 0 -175 -12q0 24 -23 24q0 198 58 198q12 0 35 -12l70 12h47v618q0 56 11 117q-11 46 -11 82q11 362 11 478h-128q-26 0 -47 12q-20 -12 -46 -12zM888 1925l304 326h11 q80 -41 105 -93v-47q-19 0 -256 -268l-47 -35h-23q-94 70 -94 117z" />
<glyph unicode="&#xca;" horiz-adv-x="1995" d="M60 1516v187q153 0 770 12q373 -12 432 -12l58 12q77 -12 152 -12h431l12 -82v-163q0 -12 -12 -12l12 -23q0 -12 -12 -12l12 -23v-23q0 -12 -12 -12l12 -23v-82h-12q-144 -12 -151 -12q-35 43 -35 82v187l-117 -12h-12q-11 0 -11 12q-23 -12 -35 -12q-35 0 -35 12 l-117 -12h-385q-26 0 -47 12q-11 0 -11 -12l-47 12l-105 -12l-58 12q-102 -12 -175 -12h-47q-23 -93 -23 -222v-268q0 -76 -12 -233h23q64 0 164 -12l23 12l70 -12q61 12 70 12l23 -12l70 12h35q27 0 47 -12q12 0 12 12l58 -12h93q24 0 47 163h140q23 -3 23 -23v-268 q0 -234 -58 -234h-70q-63 0 -70 59q12 63 12 105q-24 0 -24 -12l-140 12h-536v-304l-12 -58q35 0 35 -12l23 12q102 -12 117 -12l23 12q12 0 12 -12l58 12q323 -12 525 -12l82 -11q12 0 12 11l81 -11h234l11 58v245q30 58 94 58q71 0 105 -46l-12 -59q12 -132 12 -245 l-12 -23l12 -23l-24 -152q-233 -12 -350 -12h-58q-12 0 -12 12l-23 -12h-712q-11 0 -11 12l-24 -12q-11 0 -11 12l-47 -12q-10 0 -93 12q-12 0 -12 -12l-82 12h-151q-62 0 -199 -12l-11 59v11q8 152 46 152q13 0 35 -12l70 12h47q0 23 12 23l-12 59v291q0 94 12 222 q0 12 -12 12l12 58v93q0 64 -12 164q12 20 12 46q0 12 -12 12q12 128 23 128l-11 24v81l11 82h-163q-12 0 -12 12l-23 -12h-12q-23 0 -23 23zM783 1936v24q267 280 280 280h24q291 -252 291 -292q-20 -53 -81 -93h-35l-187 175l-187 -175h-46q0 11 -59 81z" />
<glyph unicode="&#xcb;" horiz-adv-x="1995" d="M60 1516v187q153 0 770 12q373 -12 432 -12l58 12q77 -12 152 -12h431l12 -82v-163q0 -12 -12 -12l12 -23l-12 -23q12 -21 12 -47h-12l12 -23v-82h-12q-144 -12 -151 -12q-35 43 -35 82v163l-12 24l-82 -12h-35q-11 0 -11 12q-23 -12 -35 -12q-35 0 -35 12l-117 -12h-385 q-26 0 -47 12q-11 0 -11 -12l-47 12l-105 -12l-58 12q-102 -12 -175 -12h-35q-38 0 -47 -723h23q64 0 164 -12l23 12l70 -12q9 0 70 12l23 -12l70 12h35q27 0 47 -12q12 0 12 12l58 -12h93q24 0 47 163h140q23 -3 23 -23v-233q0 -269 -58 -269h-70q-63 0 -70 59 q12 63 12 105q-24 0 -24 -12l-140 12h-536v-304l-12 -58q35 0 35 -12l23 12q102 -12 117 -12l23 12q12 0 12 -12l58 12q323 -12 525 -12l82 -11q12 0 12 11l81 -11h234l11 81v222q30 58 94 58q71 0 105 -46q0 -9 -12 -70l12 -187h-12l12 -23q0 -27 -12 -47l12 -23l-24 -152 q-233 -12 -350 -12h-58q-12 0 -12 12l-23 -12h-712q-11 0 -11 12l-24 -12q-11 0 -11 12l-47 -12q-10 0 -93 12q-12 0 -12 -12l-82 12h-151q-62 0 -199 -12l-11 59v11q8 152 46 152q13 0 35 -12l70 12h47q0 23 12 23l-12 24v361q0 68 12 187q0 12 -12 12l12 58v105l-12 82h12 q-12 22 -12 35l12 81q0 12 -12 12l12 58v199l11 58h-163q-12 0 -12 12l-23 -12h-12q-23 0 -23 23zM737 2018q19 117 116 117h24q151 0 151 -152q-63 -117 -140 -117q-151 25 -151 152zM1180 2006q0 99 140 129q101 0 175 -129v-11q0 -98 -152 -129h-35q-96 0 -128 140z" />
<glyph unicode="&#xcc;" horiz-adv-x="1435" d="M60 -24v59q0 120 35 163l47 -12q12 0 35 12q63 -12 105 -12h70q26 0 46 12q21 -12 47 -12h105q23 0 23 24v233q0 12 12 12l-12 23q12 223 12 303q0 24 -12 24l12 81v234q0 133 12 408h-514q0 29 -11 93q0 105 70 105h221q27 0 47 12q12 0 12 -12q295 12 431 12h479 q23 -4 23 -23v-164q-233 -11 -350 -11h-175q-23 -4 -23 -24v-140q0 -11 -12 -11l12 -24q0 -11 -12 -11l12 -59v-221q0 -39 -12 -59l12 -70v-151q0 -263 -24 -327l12 -70v-35l-12 -140l59 -12q26 0 46 12l59 -23q23 0 23 11l117 -11h210q23 0 35 -82h-12l12 -23v-70 q0 -20 -59 -35q-758 11 -956 23q-46 -12 -210 -12h-47zM363 2205q0 38 105 105q42 -9 315 -327v-23q-50 -94 -128 -94q-125 125 -292 339z" />
<glyph unicode="&#xcd;" horiz-adv-x="1447" d="M60 -12q12 140 35 210l47 -12q12 0 35 12q63 -12 105 -12h70q26 0 46 12q21 -12 47 -12h82l58 12q0 12 -12 12l12 81v35q0 35 -12 35l12 59v501q0 12 12 12q0 12 -12 12l12 140v443h-514v163q8 35 94 35h198q26 0 47 12q11 0 11 -12q275 12 409 12h513l12 -70h-12l12 -23 v-70l-12 -24q-216 -11 -315 -11h-210q-23 -4 -23 -24v-653l11 -82h-11q0 -11 11 -11l-11 -47q-12 -461 -24 -525l187 -23q12 0 12 11l81 -11h257l23 -140q-11 -70 -58 -70q-769 11 -968 23q-49 -12 -199 -12l-46 -11zM585 1936v35q120 155 257 292q0 29 46 35 q62 -20 105 -93v-35q-260 -289 -303 -315h-23q-17 0 -82 81z" />
<glyph unicode="&#xce;" horiz-adv-x="1435" d="M60 -24v59q0 120 35 163l47 -12q12 0 35 12q63 -12 105 -12h70q26 0 46 12q21 -12 47 -12h105q23 0 23 24v233q0 12 12 12l-12 23q12 223 12 303q0 24 -12 24l12 81v210q0 136 12 432h-514q0 29 -11 93q0 105 70 105h221q27 0 47 12q12 0 12 -12q295 12 431 12h479 q23 -4 23 -23v-164q-233 -11 -350 -11h-175q-23 -4 -23 -24v-140q0 -11 -12 -11l12 -24q0 -11 -12 -11l12 -24v-268q0 -35 -12 -35l12 -58v-175q0 -263 -24 -327l12 -70v-35l-12 -140l59 -12q26 0 46 12l59 -23q23 0 23 11l117 -11h210q27 0 35 -82h-12l12 -23v-70 q0 -20 -59 -35q-758 11 -956 23q-46 -12 -210 -12h-47zM422 1936v24q239 291 291 291q31 0 304 -291q-38 -68 -82 -94h-35q-175 158 -175 175h-12l-186 -175h-35q-17 0 -70 70z" />
<glyph unicode="&#xcf;" horiz-adv-x="1447" d="M60 23q0 12 12 12l-12 23v12q23 116 47 116h373q12 0 12 -11l23 11h58v210q0 27 12 47l-12 23l12 47q-12 23 -12 35h12q0 12 -12 12l12 58v140q0 153 12 397l-12 23l12 70v268h-514q0 48 -11 94q0 105 105 105h350l116 11v-11l24 11h198q12 0 12 -11l23 11h93 q12 0 12 -11l23 11h82q26 0 47 -11q20 11 46 11v-11l24 11h128v-93q0 -26 12 -47q-12 -20 -12 -46q-216 -12 -315 -12h-175l-58 -12v-571q0 -510 -24 -759h12q323 -23 397 -23q83 12 93 12q38 0 58 -140q0 -82 -105 -82v12q-11 0 -11 -12l-59 12h-140q-42 0 -105 11 q-20 -11 -46 -11q-13 0 -35 11q-13 0 -35 -11q-216 11 -362 11h-93q-99 0 -292 -11v58zM352 2018v12q0 88 116 105h24q151 0 151 -140q-61 -129 -140 -129q-151 25 -151 152zM795 2018q0 102 152 117q96 0 163 -140q0 -91 -152 -129h-35q-128 19 -128 152z" />
<glyph unicode="&#xd0;" horiz-adv-x="2252" d="M60 851q23 76 23 105h339v502q0 26 -12 47q12 22 12 35q-12 22 -12 35h-257q-35 7 -35 93v93h152q100 0 210 12q43 -12 105 -12q12 0 35 12q23 0 23 -12q175 12 257 12h327q26 0 46 -12q12 0 12 12q594 0 805 -525q32 0 82 -315v-117q0 -175 -24 -175l12 -23 q-62 -233 -93 -233q-99 -167 -269 -269q-121 -81 -443 -81h-152q-26 0 -46 -12q-21 12 -47 12h-70q-26 0 -47 -12l-23 12q-23 -12 -35 -12t-35 12q-63 -12 -105 -12q-12 0 -12 12l-23 -12h-12q-11 0 -11 12q-12 0 -12 -12l-82 12h-35q-35 0 -35 -12l-58 12h-373 q-17 0 -35 35v46q0 86 35 94h11q82 0 257 11q12 104 12 129q0 11 -12 11l12 59v140q0 26 -12 46q12 21 12 47q0 15 -12 117h-140q-26 0 -47 -12l-23 12q-12 0 -35 -12q-83 0 -105 93zM620 210l140 11h327q26 0 46 -11l117 23l23 -12q450 0 525 152q175 198 175 362v256 q-40 243 -233 455q-236 140 -432 140q-119 12 -186 12q-273 -12 -315 -23q-46 11 -94 11h-70l-23 -396l12 -24q-12 -80 -12 -128v-70h12q121 0 443 -12l23 12q31 -8 59 -58q0 -12 -12 -12l12 -23v-70l-82 -24h-163q-99 0 -292 -11v-560z" />
<glyph unicode="&#xd1;" horiz-adv-x="2450" d="M60 151q4 24 23 24h245q27 0 47 -12q70 0 70 82l12 70q0 11 -12 11l12 117v70q0 47 -12 47l12 81v350q0 42 11 105q-11 23 -11 35h11l-11 24v198q0 12 11 12l-11 23v140h-327q-35 0 -35 128q0 59 93 59q12 0 12 -12l58 12h59l70 -12q19 12 58 12h12q11 0 11 -12l24 12 h303q26 0 47 -12q20 12 46 12h164q16 0 35 -35v-82q0 -12 -12 -12l12 -23v-23q0 -24 -24 -24q-11 0 -11 12q-12 0 -12 -12l-58 12h-210q266 -348 303 -385q57 -45 93 -105q537 -619 619 -735h11v233q0 271 24 560q-12 99 -12 164h12q-12 22 -12 35q0 29 12 93 q-12 63 -12 128h-12q-258 -11 -280 -11l-105 11v187q24 0 24 12l58 -12h23q49 0 129 12q22 -12 35 -12q46 12 81 12v-12l24 12l23 -12q12 0 12 12l81 -12h24q116 0 350 12v-12l23 12h35q35 0 35 -175q-38 -24 -70 -24h-35q-42 0 -105 12q-23 -12 -35 -12q-61 12 -117 12v-12 q0 -122 -11 -373q0 -12 11 -35q-23 -154 -23 -443q0 -13 12 -35l-12 -70v-385h105q26 0 47 11q20 -11 46 -11h94l11 -82h-11l11 -23q-7 -94 -35 -94q-11 0 -11 12l-59 -12h-46q-12 0 -12 12l-23 -12q-9 0 -70 12l-24 -12q-11 0 -11 12l-59 -12h-58q-26 0 -47 12 q-22 -12 -35 -12q-12 0 -35 12q-23 0 -23 -12l-140 12h-198q-24 0 -24 23v94l12 58h257v12l-245 291q-249 319 -362 432q-116 151 -397 467v-24q0 -253 12 -793l-12 -47q0 -11 12 -11q-12 -65 -12 -94t12 -93l-12 -70l12 -58h303q70 0 70 -47q0 -140 -58 -140q-82 0 -93 -12 l-70 12h-12q-73 0 -175 -12q-46 12 -82 12l-23 -12q-12 0 -12 12q-116 -12 -175 -12h-256q-12 117 -12 175zM830 2053v23q34 0 210 105h23q112 0 280 -105q156 0 234 164h11q82 -74 82 -129v-11q0 -89 -187 -187h-151q-162 82 -175 82q-127 -24 -222 -105h-12 q-93 102 -93 163z" />
<glyph unicode="&#xd2;" d="M60 688v12q0 628 583 956q186 47 234 47h70q380 0 606 -198q234 -265 234 -467q35 -35 35 -152v-11q0 -612 -397 -817q0 -43 -385 -82h-117q-331 0 -688 257q-114 89 -163 385q-12 0 -12 70zM258 688q0 -371 525 -502q100 -23 129 -23q288 9 326 35v-12q169 57 327 304 q47 128 58 233q0 518 -361 747q-169 46 -257 46q-267 0 -373 -93q-374 -232 -374 -735zM702 2158q0 42 105 105q35 -5 315 -327v-23q-61 -93 -129 -93q-156 159 -291 338z" />
<glyph unicode="&#xd3;" d="M60 688v47q0 316 210 630q265 278 537 338h151q12 0 12 -12q23 12 35 12q239 -23 432 -105q1 -22 105 -82q245 -277 245 -501q29 0 35 -140q0 -664 -479 -852l-291 -58l-59 11h-163q-204 12 -560 222q-210 197 -210 490zM258 676q0 -366 525 -490q100 -23 129 -23 q360 0 455 93q245 225 245 455v140q0 334 -327 607q-193 58 -268 58q-339 0 -479 -163q-100 0 -256 -408q-24 -169 -24 -269zM830 1925q116 151 303 338q35 0 117 -117q-277 -338 -327 -338h-11q-82 71 -82 117z" />
<glyph unicode="&#xd4;" horiz-adv-x="1913" d="M60 630l12 58v35q0 391 256 688q212 215 444 280l81 12h117q12 0 12 -12q22 12 35 12q239 -27 361 -82q29 0 175 -105q245 -283 245 -501q21 0 35 -140q0 -435 -233 -700q-209 -175 -373 -175q0 -9 -164 -35l-58 11h-187q-11 0 -11 12q-12 0 -12 -12q-416 120 -560 269 q-105 94 -152 326q0 59 -23 59zM270 700q0 -449 653 -537q360 0 455 93q245 225 245 455v140q0 354 -350 619q-198 46 -256 46q-324 0 -467 -163q-71 0 -198 -257q-82 -144 -82 -396zM608 1936q109 109 327 280q72 0 385 -291q-30 -63 -93 -94h-24q-45 0 -245 175 q-69 -45 -221 -175h-47q-82 34 -82 105z" />
<glyph unicode="&#xd5;" d="M60 630v105q0 316 210 630q262 278 537 338h151q12 0 12 -12q23 12 35 12q239 -27 362 -82q29 0 175 -105q245 -277 245 -501q26 0 35 -140q0 -649 -455 -840q-26 -21 -315 -70l-59 11h-186q-12 0 -12 12q-12 0 -12 -12q-416 120 -560 269q-102 77 -163 385zM258 700 q0 -446 654 -537q360 0 455 93q245 225 245 455v140q0 354 -350 619q-198 46 -257 46q-306 0 -443 -140q-104 -37 -245 -315q-59 -193 -59 -350v-11zM527 2053v23q34 0 210 105h23q94 0 292 -105q110 0 221 140v24h12q81 -66 93 -140q-105 -187 -245 -187h-105 q-154 82 -175 82q-126 -24 -221 -105q-46 0 -105 163z" />
<glyph unicode="&#xd6;" d="M60 630v105q0 313 210 630q265 278 537 338h151q12 0 12 -12l23 12q172 0 444 -105q1 -22 105 -82q245 -283 245 -490q35 -35 35 -151q0 -664 -479 -852q-181 -47 -303 -47h-233q-400 94 -584 269q-102 77 -163 385zM258 676q0 -330 455 -478l199 -35q360 0 455 93 q245 225 245 455v140q0 334 -327 607q-193 58 -268 58q-339 0 -479 -163q-100 0 -256 -408q-24 -169 -24 -269zM585 2030q31 105 117 105h23q152 0 152 -140v-24q-51 -74 -129 -105q-163 26 -163 164zM1028 2006q24 129 140 129q137 0 175 -152v-23q-65 -94 -163 -94 q-152 19 -152 140z" />
<glyph unicode="&#xd8;" d="M60 711v47q0 348 233 653q314 315 584 315h81q12 0 12 -11q23 11 35 11q262 -23 443 -116q0 39 175 198h35q82 -41 82 -93q0 -14 -163 -210v-12q93 -105 163 -245q82 -273 82 -350q0 -663 -479 -852l-291 -58l-59 12h-198q-86 0 -373 140h-12q0 -27 -163 -199v-11h-47 q-82 59 -82 70v35l152 198q-129 69 -187 315q-23 88 -23 163zM258 700q0 -198 140 -304q252 234 385 432l502 595l23 35q0 38 -291 82h-12q-298 0 -408 -117q-188 -117 -234 -268q-105 -144 -105 -455zM550 280q256 -94 362 -94q360 0 455 94q245 225 245 455v140 q0 271 -187 455q-236 -260 -572 -700q-50 -36 -303 -339v-11z" />
<glyph unicode="&#xd9;" horiz-adv-x="2427" d="M60 1656q12 70 35 70h875q17 0 35 -35v-81l-12 -59h-81l-117 -11v11l-23 -11h-35q-12 0 -12 11l-23 -11h-70v-175q0 -12 -12 -12q12 -23 12 -35t-12 -35l12 -70q0 -39 -12 -58l12 -59q0 -58 -12 -175q0 -44 23 -245h-11q11 -22 11 -35q0 -294 140 -396q0 -35 467 -59h47 q214 0 280 105q105 103 151 315q0 12 -11 12q35 239 35 420q0 26 -12 47q12 63 12 105v221l-12 140l-23 -11h-152q-59 0 -175 11q-23 105 -23 152l35 23h513q12 0 12 -11l23 11h163q27 0 47 -11l23 11q152 0 152 -46q0 -56 12 -117q-46 -23 -129 -23h-233q-23 0 -35 -94 l12 -23l-12 -70q0 -12 12 -12l-12 -58v-128q0 -94 -12 -222l12 -23l-12 -24q0 -23 12 -23q0 -471 -222 -723q-206 -140 -326 -152h-129q-565 0 -653 128q-198 148 -198 630v362q0 26 -12 47q12 20 12 46v222l11 117h-186q-59 0 -175 11zM900 2228q20 52 82 93h35 q56 -40 291 -303h12v-35q-28 -63 -117 -105q-275 280 -303 350z" />
<glyph unicode="&#xda;" horiz-adv-x="2415" d="M60 1575v116q0 17 35 35h875q9 0 35 -35q-9 -140 -35 -140h-58l-117 -11v11l-23 -11h-140q-12 -193 -12 -292v-303q0 -192 23 -327q0 -12 -11 -12q44 -396 256 -396q263 -24 385 -24h35q272 0 362 269q74 0 82 991q-12 85 -24 105l-23 -11h-140q-187 0 -187 46 q-11 61 -11 117l35 23h711q27 0 47 -11l23 11q63 -11 105 -11h35l12 -59v-105l-117 -11h-245q-23 0 -23 -35q0 -1109 -117 -1202q-58 -173 -303 -280q-127 -35 -152 -35h-81q-593 0 -689 128q-198 182 -198 724l12 23l-12 70v12q0 61 12 105q0 8 -12 70q12 225 12 396v24 h-175q-187 0 -187 35zM1063 1995q289 326 304 326h11q80 -41 105 -93v-47q-17 0 -198 -198l-105 -105h-23q-94 65 -94 117z" />
<glyph unicode="&#xdb;" horiz-adv-x="2415" d="M60 1563v152l58 11h817l58 -11v-140q0 -24 -23 -24h-93l-82 -11v11l-23 -11h-12q-12 0 -12 11l-23 -11h-105v-257q0 -12 -12 -12l12 -23v-210q0 -75 -12 -152q41 -571 105 -571q34 -105 245 -105q104 -24 280 -24h47q210 0 268 94q175 181 175 443q0 12 -11 12 q23 93 23 221v514l-12 81l-23 -11h-152q-58 0 -175 11l-11 82v70q3 23 23 23h513q12 0 12 -11l23 11h164q26 0 46 -11l24 11l105 -11q22 11 35 11q8 -21 23 -163q-46 -23 -128 -23h-234q-23 -4 -23 -24v-93q0 -26 -12 -47q12 -20 12 -46v-24q0 -11 -12 -11l12 -24v-11 q0 -27 -12 -47q0 -12 12 -12l-12 -140v-70q0 -723 -268 -886q-196 -117 -292 -117h-116q-560 0 -654 128q-176 124 -198 607v618q0 26 12 47q-12 22 -12 35l12 117h-245l-70 11q-23 -11 -35 -11zM842 2041q162 149 338 280h12q50 -18 361 -280h12v-23q-20 0 -93 -82h-59 l-221 175q-227 -186 -245 -186q-105 54 -105 116z" />
<glyph unicode="&#xdc;" horiz-adv-x="2415" d="M60 1563v152l58 11h817l58 -11v-140q0 -24 -23 -24h-93l-82 -11v11l-23 -11h-12q-12 0 -12 11l-23 -11h-105v-222q0 -26 -12 -47q12 -20 12 -46v-59q0 -11 -12 -11l12 -24v-93q0 -80 -12 -140q41 -572 94 -572q38 -116 280 -116q0 -24 256 -24h47q280 0 373 245 q47 70 70 292q0 12 -11 12q23 98 23 256v420l-12 140l-23 -11h-152q-58 0 -175 11l-11 82v70q3 23 23 23h513q12 0 12 -11l23 11h164q26 0 46 -11l24 11l105 -11q22 11 35 11q8 -21 23 -163q-46 -23 -128 -23h-234q-23 -4 -23 -24v-70l-12 -70q12 -19 12 -58v-12 q0 -11 -12 -11q0 -12 12 -12l-12 -47q0 -35 12 -35l-12 -140v-70q0 -723 -268 -886q-196 -117 -292 -117h-116q-576 0 -665 140q-158 86 -187 618v595q0 26 12 47q-12 22 -12 35l12 117h-245l-70 11q-23 -11 -35 -11zM795 2100q0 93 163 105q129 -24 129 -117v-23 q0 -97 -140 -129q-152 30 -152 164zM1238 2065q34 140 129 140q151 0 186 -152v-23q-48 -67 -105 -94h-58q-152 21 -152 129z" />
<glyph unicode="&#xdd;" horiz-adv-x="2380" d="M60 1633h12l-12 23v70q47 0 47 24l58 -12h910l12 -117v-46l-82 -12h-23q-12 0 -12 12l-23 -12h-24q-11 0 -11 12q-12 0 -12 -12q-12 0 -35 12q-63 -12 -105 -12q-12 0 -35 12q-20 -12 -47 -12q0 -51 385 -583q70 -117 94 -117q280 304 443 572q20 0 105 128h-303 q-70 0 -70 70v47q0 42 35 70l140 -12h186q56 0 117 12q43 -12 105 -12h70q35 0 35 12l58 -12h210l12 -58v-35l-23 -82h-315q-92 0 -397 -467q-167 -190 -280 -361q-47 -24 -47 -175v-362q49 0 129 12l140 -12l23 12q20 -12 47 -12h58q23 -76 23 -105l-11 -82h-315 q-49 0 -94 -11q-45 11 -93 11h-12q-61 0 -105 -11q-61 11 -116 11h-12q-48 0 -93 -11l-59 11q-80 -11 -128 -11v11q-12 117 -12 175h12l268 24q77 -12 152 -12q0 23 12 257l-12 23q12 23 12 35q-12 80 -12 128h12q0 45 -479 735q-10 0 -128 187q-58 0 -58 12l-59 -12h-256z M1052 1995q268 324 315 326q61 -20 105 -93v-23q-282 -322 -315 -327q-105 59 -105 117z" />
<glyph unicode="&#xde;" horiz-adv-x="1272" d="M60 1645q8 140 105 140q43 -35 82 -35v-94l23 -35v-198h93q64 0 164 -12q11 0 11 12l59 -12h105q118 0 361 -105q129 -128 129 -373v-82q0 -501 -385 -501q-151 0 -234 -12q-11 0 -11 12l-59 -12h-233q0 -12 -12 -35l12 -23q0 -27 -12 -47q12 -80 12 -128v-94 q0 -58 -58 -105v24l-35 -24q-12 0 -12 12l-23 -12h-24q-35 100 -35 152q0 507 -23 1587zM258 1155q12 -261 12 -420v-234h245q432 0 432 94q93 63 93 280v93q0 247 -443 280q-198 0 -257 23q-82 0 -82 -70q0 -11 12 -11q0 -13 -12 -35z" />
<glyph unicode="&#xdf;" horiz-adv-x="1295" d="M60 46v140q7 35 93 35h129v70q0 42 -12 105l12 24l-12 23l12 23l-12 70q0 12 12 12l-12 23q0 24 12 24l-24 478q12 46 12 82q-12 22 -12 35h12l-12 23v47q0 11 12 11l-12 24v548q150 47 327 47q437 0 583 -362l12 -70v-117q0 -78 -128 -186q-152 -105 -152 -199 q315 -203 315 -361v-35q0 -186 -245 -269q-62 0 -128 94q27 54 140 105l46 46q-41 125 -186 210q-117 129 -117 187v47q0 111 163 256q84 62 117 222q-90 233 -362 233q-119 -11 -186 -11v-47q23 -463 23 -502v-315q0 -79 -12 -140q12 -60 12 -140v-291q4 -24 23 -24l24 12 l23 -12q63 12 105 12h23q0 -35 24 -35v-70q0 -61 -35 -70q-208 -12 -339 -12h-11q-12 0 -12 12l-23 -12h-222z" />
<glyph unicode="&#xe0;" horiz-adv-x="1482" d="M60 233v105q0 340 362 397q63 23 163 23q333 0 432 -105v12q0 256 -210 256q-140 26 -140 35q-235 -6 -502 -128v12l-12 23q12 80 12 128v12q306 105 443 105q360 0 490 -128q94 -122 94 -490q11 0 23 -140q-12 -62 -12 -117v-105h175l24 -12q-12 -140 -35 -140h-82 q-55 0 -117 12q-43 -12 -105 -12q-26 0 -35 140q-93 -81 -455 -128q-373 0 -466 152q0 28 -47 93zM223 326q94 -186 245 -186q437 0 525 221q0 245 -431 245q-327 -74 -327 -210q-12 0 -12 -11l12 -59h-12zM445 1551v35q6 29 117 105q217 -217 315 -361v-24 q-77 -93 -105 -93q-28 2 -327 338z" />
<glyph unicode="&#xe1;" horiz-adv-x="1482" d="M60 291v70q0 196 210 339q208 58 315 58q335 0 420 -93h12v23q0 159 -117 222q-233 35 -233 46q-200 0 -444 -105q0 -11 -58 -11q0 23 -12 23q0 163 94 163q142 59 361 82q387 0 514 -152q46 -55 81 -490q0 -61 12 -105q-12 -76 -12 -151v-82h175q24 -4 24 -23v-47 l-12 -82h-105q-55 0 -117 12q-43 -12 -105 -12q-26 0 -35 140q-83 -84 -466 -128h-12q-334 0 -443 152q-47 108 -47 151zM235 303q96 -163 245 -163q386 0 513 198v23q0 245 -396 245q-362 -51 -362 -233v-70zM468 1341q304 320 304 339h35q105 -63 105 -129v-11 q-15 0 -257 -269q-29 0 -35 -46h-58q-40 0 -94 116z" />
<glyph unicode="&#xe2;" horiz-adv-x="1493" d="M60 338q0 239 233 362q164 58 327 58q297 0 408 -105v23q0 257 -280 257q0 12 -70 23q-247 -9 -501 -128q-12 23 -12 35q0 19 12 140q300 105 431 105q572 0 572 -315l47 -455q-8 -24 -24 -222l24 12h128l58 -12q-11 -140 -35 -140h-105q-48 0 -93 12q-45 -12 -93 -12 h-12q-35 0 -35 140q-104 -86 -467 -128h-23q-342 0 -443 163q-47 109 -47 187zM235 350q0 -146 233 -210h12q338 0 490 151q23 0 23 82v23q-34 199 -303 199l-82 11q-182 0 -338 -140q-35 -77 -35 -105v-11zM317 1376v35q23 0 198 175q11 0 140 105q66 -19 373 -291v-12 q-25 -52 -105 -93h-46q0 20 -187 163l-12 23q-228 -186 -268 -186h-12q-17 0 -81 81z" />
<glyph unicode="&#xe3;" horiz-adv-x="1482" d="M60 373q0 152 175 303q200 82 350 82q331 0 443 -105q0 188 -128 257q-233 39 -233 46q-204 0 -502 -128v93q0 117 128 117q83 43 315 70q572 0 572 -350q35 -357 35 -432l-12 -23q0 -12 12 -12l-12 -58v-117l24 12h151q24 -4 24 -23v-70l-12 -59h-105q-55 0 -117 12 q-43 -12 -105 -12h-11l-12 59v93q-89 -93 -443 -140h-47q-322 0 -432 140q-58 94 -58 245zM212 1470v23q34 0 210 105h35q81 0 280 -105q221 64 221 152h24q81 -67 81 -129q0 -66 -175 -175q-7 0 -81 -23q-86 0 -257 93q-129 -24 -233 -105h-24q-81 133 -81 164zM235 338 q0 -146 245 -198q365 0 502 175l11 58q0 233 -396 233q-362 -56 -362 -233v-35z" />
<glyph unicode="&#xe4;" horiz-adv-x="1482" d="M60 385q42 284 245 338q125 58 315 58q289 0 408 -105v12q0 182 -128 245l-233 47q-204 0 -502 -129v59q0 140 82 140q130 58 373 81q560 0 560 -338q35 -328 35 -490l-12 -58l12 -24l-12 -70v-11l24 11h151q24 -3 24 -23v-70l-12 -58h-58q-12 0 -12 11q-23 -11 -35 -11 q-42 0 -105 11q-61 -11 -117 -11l-23 35v116q-64 -81 -373 -128q-64 -12 -129 -12q-332 0 -431 164q-47 83 -47 210zM235 361q0 -105 198 -198h47q458 12 513 222v11q0 234 -420 234q-338 -73 -338 -222v-47zM375 1365v58q0 105 140 105q140 -32 140 -128 q-55 -129 -140 -129q-140 43 -140 94zM795 1400v11q15 105 105 105h82q116 -78 116 -128q-51 -117 -140 -117h-23q-140 12 -140 129z" />
<glyph unicode="&#xe5;" horiz-adv-x="1493" d="M60 350l12 23l-12 23q43 202 152 280q153 105 408 105q301 0 408 -105v24q0 228 -210 256q-84 0 -151 24q-215 0 -490 -129l-12 24q6 151 23 151q274 105 420 105q403 0 502 -140q64 0 117 -618l-12 -70v-105l-12 -58l24 11h163l23 -11q-11 -140 -35 -140h-46 q-12 0 -12 11l-23 -11q-62 0 -105 11q-62 -11 -117 -11q-35 0 -35 140q-104 -87 -467 -129q-443 28 -443 152q-70 77 -70 187zM235 373q0 -128 210 -210h35q335 0 490 152q23 0 23 81v12q0 222 -420 222q-338 -68 -338 -245v-12zM468 1493v35q0 152 269 187q186 0 186 -210 q12 0 12 -12q-35 -210 -198 -210h-47q-184 0 -222 210zM620 1446q22 -42 70 -58q105 63 105 82v35q0 70 -82 93q-93 -37 -93 -105v-47z" />
<glyph unicode="&#xe6;" horiz-adv-x="2368" d="M60 396q0 234 245 350q157 47 315 47q134 0 350 -35h47v12q0 168 -222 198l-140 23q-224 0 -490 -128v117q0 86 175 116q91 35 292 47q388 0 501 -163q165 151 374 151v-11l93 23q20 -12 47 -12l23 12q432 -101 432 -233q25 0 58 -82v-105q0 -93 -70 -93 q-90 -12 -198 -12h-280q-56 0 -117 12q-43 -12 -105 -12h-187v-105q0 -231 304 -327q86 0 128 -11q149 0 280 151l12 24h-129q-93 0 -93 105q12 46 70 46v-11l23 11h385q94 0 94 -70q11 -19 11 -58v-12l-81 -11h-105q0 -107 -269 -269q-99 -70 -256 -70l-24 12 q-11 0 -11 -12q-339 50 -339 117l-105 93q-168 -175 -408 -175q0 -8 -152 -23q-385 43 -385 117q-93 65 -93 256zM235 373q65 -187 210 -187q12 0 35 -11q475 23 513 233q0 233 -443 233q-315 -64 -315 -245v-23zM1215 770h198q39 0 59 11q179 -15 210 -23l23 12 q25 0 128 -12q99 12 164 12q-122 221 -444 221q-219 0 -338 -221z" />
<glyph unicode="&#xe7;" horiz-adv-x="1295" d="M60 560v35q0 459 455 536h58q189 0 350 -116q59 -54 105 -175h82q105 0 105 -105q0 -35 -12 -35q-63 -12 -105 -12h-81q-56 0 -117 12q-43 -12 -105 -12h-82q-27 0 -35 82q0 70 164 70h11q-119 151 -245 151h-35q-133 -10 -268 -140q-82 -71 -82 -350q0 -276 304 -396h70 q112 0 256 151l12 24q-12 0 -12 11l-23 -11h-93q-41 0 -59 128l24 12h478l12 -70v-47q-41 -12 -47 -12v12l-23 -12h-82q-70 -221 -163 -221q-161 -105 -245 -105v-105q198 -26 198 -199q0 -147 -163 -268q-280 42 -280 175q16 48 58 70h47q18 -82 128 -82q58 63 58 105 q-14 52 -70 82l-58 -12v12l-23 -12q-59 0 -59 140v105q-216 58 -326 199q-82 110 -82 385z" />
<glyph unicode="&#xe8;" horiz-adv-x="1423" d="M60 525l12 23q0 12 -12 12q42 307 152 431q127 129 513 129q327 -69 327 -117q49 -9 163 -198v-117q0 -93 -163 -93h-455q-27 0 -47 11q-20 -11 -47 -11h-268q0 -300 233 -409q92 -35 117 -35h140q139 0 245 164l-23 11h-140q-30 0 -47 105q12 23 12 35q81 0 256 12 q165 -12 280 -12q35 -92 35 -116q0 -35 -128 -35h-47q-111 -184 -175 -187q-147 -152 -338 -152q-441 0 -560 339q-23 86 -35 210zM270 746h35q126 0 210 12q198 -16 222 -23l23 11l117 -11q99 11 163 11v12q0 102 -315 210h-175q-148 0 -280 -210v-12zM387 1575v35 q25 51 105 93h11q212 -192 315 -350q0 -73 -105 -117q-27 0 -326 339z" />
<glyph unicode="&#xe9;" horiz-adv-x="1412" d="M60 560v11q74 490 280 490q0 43 373 59q362 -71 362 -140q84 -62 140 -210q0 -164 -70 -164q-73 -11 -163 -11h-385q-27 0 -47 11q-20 -11 -47 -11h-280q0 -306 257 -420q94 -24 117 -24h140q113 0 233 164l-23 11h-117q-70 0 -82 94q18 46 35 46q69 0 245 12 q165 -12 280 -12q24 -93 24 -116v-24l-117 -11h-70q0 -94 -210 -234q-127 -105 -303 -105h-24q-11 0 -11 12q-12 0 -12 -12q-239 28 -338 105q-187 148 -187 479zM258 746h59q120 0 186 12q198 -16 222 -23q23 11 35 11l117 -11q99 11 163 11q0 102 -303 222h-187 q-157 0 -292 -222zM387 1318v35q91 136 291 338v12q140 -35 140 -128q-294 -339 -338 -339h-12z" />
<glyph unicode="&#xea;" horiz-adv-x="1412" d="M60 525v93q0 12 12 12l-12 23q39 209 163 362q146 105 490 105q420 -92 420 -210q15 -3 70 -105v-105q0 -94 -70 -94q-73 -11 -163 -11h-362q-39 0 -58 11l-70 -11h-257q0 -298 234 -409q92 -35 116 -35h140q234 56 234 152q11 0 11 12l-23 11h-105q-82 0 -82 117l35 23 q60 0 234 12q291 -9 291 -23q24 -84 24 -94v-11q0 -35 -129 -35h-46q-72 -119 -117 -164q-219 -175 -408 -175q-409 0 -537 315q-28 0 -35 234zM258 746h35q126 0 210 12q198 -16 222 -23l23 11l117 -11q99 11 163 11v12q0 102 -315 210h-175q-144 0 -280 -210v-12z M282 1365v35q13 0 233 198l105 82q153 -95 362 -280h11v-24q-25 -52 -105 -93h-35q-198 155 -198 175h-35l-210 -175h-47q-17 0 -81 82z" />
<glyph unicode="&#xeb;" horiz-adv-x="1412" d="M60 455l12 23l-12 58q11 231 128 432q118 152 549 152q326 -73 326 -129q56 0 152 -210v-70q0 -11 -12 -11l12 -24q0 -81 -198 -81h-420q-27 0 -47 11q-20 -11 -47 -11h-268q0 -310 245 -420q94 -24 117 -24h128q138 0 245 164l-23 11h-140q-47 12 -47 129l23 11 q69 0 245 12q165 -12 280 -12q24 -81 24 -140l-117 -11h-47q-137 -228 -408 -327q-61 -12 -117 -12h-35q-11 0 -11 12q-12 0 -12 -12q-218 20 -350 117q-175 204 -175 362zM270 746h35q126 0 210 12q198 -16 222 -23l23 11l117 -11q163 8 163 23q0 97 -315 210h-175 q-160 0 -280 -222zM282 1435q0 75 105 93h46q117 0 117 -128v-12q-54 -93 -128 -93h-12q-106 0 -128 140zM690 1411v12q15 105 105 105h35q73 0 140 -105v-47q-64 -93 -175 -93q-105 43 -105 128z" />
<glyph unicode="&#xec;" horiz-adv-x="805" d="M60 1563q21 59 117 105h11q198 -197 304 -338q0 -49 -82 -117h-35q-206 200 -315 350zM72 70v81q43 24 210 35v82q0 12 11 12q0 11 -11 11l11 59q0 175 24 408q-12 19 -12 58h12l-12 24v81h-58q-140 0 -140 82v23q0 82 128 82h128q129 0 129 -35v-198q0 -12 -12 -12 q0 -12 12 -12l-12 -58v-432q0 -58 -12 -175h140q117 -14 117 -46v-105q0 -24 -23 -24h-315q-39 0 -59 -11l-70 11h-175z" />
<glyph unicode="&#xed;" horiz-adv-x="793" d="M60 70v81q43 24 210 35v129q0 11 12 11q0 12 -12 12q23 155 23 467v116h-58q-140 0 -140 47v93q0 29 128 47h129q128 0 128 -58v-12h-12q0 -12 12 -12q-12 -251 -12 -373v-140q0 -68 -11 -187l11 -23l-11 -70v-47h140q116 -14 116 -46v-105q0 -24 -23 -24h-315 q-39 0 -58 -11l-70 11h-175zM177 1330q106 141 303 338h12q95 -46 116 -105q-109 -150 -315 -350h-35q-81 68 -81 117z" />
<glyph unicode="&#xee;" horiz-adv-x="887" d="M60 1376q105 105 338 292q153 -95 362 -280h12v-23q-61 -94 -129 -94h-11q-199 155 -199 175h-23q-69 -45 -222 -175h-46q-82 50 -82 105zM153 70v81q43 24 210 35v129q0 11 12 11q0 12 -12 12q24 155 24 467v116h-59q-140 0 -140 47v93q0 29 129 47h128q128 0 128 -58 v-12h-11q0 -12 11 -12q-11 -251 -11 -373v-140q0 -68 -12 -187l12 -23l-12 -70v-47h140q117 -14 117 -46v-105q0 -24 -24 -24h-315q-39 0 -58 -11l-70 11h-175z" />
<glyph unicode="&#xef;" horiz-adv-x="840" d="M60 1423q16 105 128 105q140 -19 140 -128q-45 -117 -140 -117q-112 0 -128 140zM95 81v47q1 16 58 47h82q82 0 82 23q0 94 23 665l-12 58h-58q-128 0 -128 59v105q93 23 116 23h117l140 -12v-46q0 -62 12 -105q-12 -62 -12 -117v-47q0 -11 -12 -11q12 -23 12 -35 l-12 -59q0 -23 12 -23l-12 -140v-257l-11 -58l23 -12h140q105 0 105 -81q-12 -84 -12 -94h-338l-70 -11q-19 11 -58 11h-152q-35 12 -35 70zM457 1388q0 83 81 128h70q89 0 140 -116q-35 -117 -128 -117h-23q-102 0 -140 105z" />
<glyph unicode="&#xf0;" horiz-adv-x="1458" d="M60 770q0 97 128 268q234 222 514 222q116 0 338 -82q-51 97 -198 303q-284 -116 -304 -116q-58 98 -58 140q218 93 245 93v23q-137 65 -187 152q59 98 59 105h11q70 0 292 -198q36 0 315 116h23q59 -130 59 -151q-35 0 -269 -105q301 -421 327 -677q23 -83 23 -128h-11 l11 -24v-116q-19 -191 -140 -350q-120 -139 -431 -199q-216 0 -514 164q-233 210 -233 560zM247 723q0 -305 385 -455q26 0 46 -12q231 35 315 94q175 114 175 338q12 0 12 58q-12 23 -12 35h12q-35 141 -82 164q-133 128 -396 128q-385 -88 -385 -175q-59 0 -70 -175z" />
<glyph unicode="&#xf1;" horiz-adv-x="1762" d="M60 35v70q31 57 47 58h81l117 12v221q0 62 12 105q-12 62 -12 117v257q0 26 -12 46q12 21 12 47v12h-12q-26 0 -46 -12q-21 12 -47 12t-47 -12l-93 23l23 152q117 -12 175 -12h82q26 0 47 12l23 -12q20 12 47 12q21 0 35 -105q-12 0 -12 -12h12q187 117 361 117 q372 0 479 -338q46 -212 46 -420v-210h12q292 0 292 -59v-81q0 -27 -59 -35q-100 0 -711 11l-24 59q0 93 129 93q32 12 175 12v11q0 108 11 304q0 356 -140 443q-103 47 -210 47h-35q-350 -49 -350 -245v-560q269 -7 269 -24q0 -19 23 -93q-23 -38 -23 -58h-35 q-35 0 -35 -12l-59 12h-210q-48 0 -93 -12q-45 12 -93 12h-117q-17 0 -35 35zM398 1481v12q33 0 187 93q23 12 35 12q155 0 280 -93h35q126 0 233 151h12q70 -97 70 -140q-104 -186 -245 -186h-93q-147 81 -199 81q-92 -10 -210 -105q-105 107 -105 175z" />
<glyph unicode="&#xf2;" horiz-adv-x="1365" d="M60 560q0 235 175 443q155 117 385 117q20 -12 47 -12q12 0 35 12q396 -91 396 -175q86 0 164 -327q14 -142 23 -163q0 -137 -163 -339q-16 0 -164 -81q-205 -59 -291 -59q-399 0 -549 327q-49 97 -58 257zM235 653q0 -313 245 -467q60 -35 117 -35h93q12 0 12 -11 q373 74 373 198q15 0 47 140q-30 364 -269 443q-118 35 -221 47l-24 -12h-105q-90 0 -210 -151q-31 0 -58 -152zM433 1563v12q0 38 117 116q135 -121 315 -350q0 -62 -105 -116q-28 0 -327 338z" />
<glyph unicode="&#xf3;" horiz-adv-x="1353" d="M60 525v35q0 436 385 548q114 0 117 12l23 -12l23 12l59 -12l23 12q420 -99 420 -187q98 0 163 -455v-47q-8 -148 -163 -315q-216 -125 -432 -140q-420 0 -560 327q-58 118 -58 222zM235 583q0 -248 280 -420l82 -12h116q397 42 397 327v23q-40 455 -432 455h-163 q-152 0 -268 -221q-12 -63 -12 -105v-47zM527 1353q25 0 151 175q164 154 164 163q81 -38 116 -105v-23q-117 -163 -326 -338q-105 54 -105 128z" />
<glyph unicode="&#xf4;" horiz-adv-x="1365" d="M60 525q0 271 187 490q196 105 326 105l24 -12l23 12l58 -12l24 12q420 -99 420 -187q97 -65 151 -350q0 -29 12 -93h-12l12 -24v-23q0 -185 -210 -350q-216 -117 -408 -117q-422 0 -572 385q-27 164 -35 164zM235 618q0 -209 198 -408q116 -59 175 -59h82q12 0 12 -11 q218 0 385 186q0 25 35 152q0 318 -257 443q-139 35 -233 47l-24 -12h-105q-87 0 -210 -151q-58 -70 -58 -187zM293 1365q161 146 339 280q73 0 385 -292v-12q-18 0 -94 -81h-46q-71 47 -234 186q-22 -40 -221 -186h-35q-94 51 -94 105z" />
<glyph unicode="&#xf5;" horiz-adv-x="1365" d="M60 536q0 210 140 444q169 128 327 128q81 0 93 12q20 -12 47 -12q12 0 35 12q396 -91 396 -175q82 0 164 -327q14 -149 23 -163q-66 -275 -175 -339q-235 -140 -443 -140q-399 0 -549 327q-58 127 -58 233zM212 1446v12q42 0 175 93l46 12q144 0 269 -82q17 -11 70 -11 q93 0 210 151h11q70 -92 70 -151q-115 -175 -245 -175h-58l-233 81q-67 0 -210 -105q-95 95 -105 175zM235 630q0 -282 245 -444q60 -35 117 -35h93q12 0 12 -11q197 0 361 163q59 162 59 175q-33 366 -269 443q-118 35 -221 47l-24 -12h-105q-108 0 -245 -198 q-23 -83 -23 -128z" />
<glyph unicode="&#xf6;" horiz-adv-x="1365" d="M60 560q0 168 128 396q172 164 385 164l24 -12q11 0 11 12l59 -12q12 0 35 12q385 -95 385 -152q120 -97 175 -315q11 -187 23 -198q0 -141 -163 -339q-256 -140 -455 -140q-410 0 -549 339q-46 71 -58 245zM235 653q0 -309 245 -467q60 -35 117 -35h93q12 0 12 -11 q385 67 385 233q16 0 35 105q-30 364 -269 443q-118 35 -221 47l-24 -12h-105q-101 0 -245 -198zM328 1481q40 94 140 94q140 0 140 -152q-58 -105 -140 -105q-128 0 -140 163zM748 1423v23q23 117 117 117h70q117 -78 117 -128q-35 -117 -129 -117h-58q-69 0 -117 105z" />
<glyph unicode="&#xf8;" horiz-adv-x="1353" d="M60 513v70q0 227 175 432q200 105 327 105l23 -12l23 12l59 -12l23 12q205 -59 257 -59l140 187q109 0 151 -105l-140 -187q175 -175 175 -560q-109 -291 -210 -291q0 -65 -396 -129q-164 0 -327 70q-74 -140 -163 -140q-82 56 -82 105l117 152q-152 156 -152 350z M223 595q0 -140 117 -280q47 70 490 618q-14 0 -128 23h-70q-12 0 -12 12l-23 -12h-82q-128 0 -257 -186q-23 -71 -35 -175zM468 198q0 -29 129 -47h81q12 0 12 -11q218 0 385 186q35 141 35 175q0 188 -128 327q-280 -361 -514 -630z" />
<glyph unicode="&#xf9;" horiz-adv-x="1645" d="M60 980v70q0 62 47 81h198l70 -11q20 11 47 11q11 0 11 -11l59 11h70q11 0 11 -11l24 11h35q23 -3 23 -23v-128q0 -17 -35 -35h-128l-82 11v-385q0 -294 117 -338q119 -70 326 -70q184 0 269 233q35 184 46 549h-116q-94 0 -94 70h12l-12 23v58l12 24q251 -12 373 -12 h164q29 0 58 -117l-35 -58l-47 12q-8 0 -70 -12q-46 12 -81 12q0 -12 -12 -12q0 -12 12 -12q-12 -116 -12 -175v-221q0 -135 -117 -385q-140 -129 -455 -129q-252 0 -420 140q-81 146 -81 304h11l-11 23v478h-164q-23 0 -23 24zM597 1656v35q25 52 105 94h23q0 -21 175 -199 l105 -140v-23q0 -17 -82 -82h-35q-161 162 -291 315z" />
<glyph unicode="&#xfa;" horiz-adv-x="1645" d="M60 1038v23q23 70 82 70h175l70 -11q20 11 46 11q12 0 12 -11l58 11h70q12 0 12 -11l23 11h47q0 -19 12 -140q-18 -46 -35 -46h-12q-12 0 -12 11l-23 -11h-82l-81 11l-12 -23v-105q0 -26 12 -47q-12 -22 -12 -35q0 -12 12 -35q-12 -61 -12 -70q0 -342 105 -396 q108 -82 362 -82q256 71 256 292q19 68 47 490h-117q-93 0 -93 70q0 48 -12 93q12 0 12 12q251 -12 373 -12h175q38 0 47 -128l-23 -47l-82 12q-26 0 -47 -12q-20 12 -46 12h-35v-175l-12 -70q12 -21 12 -47l-12 -82l12 -23q-79 -467 -210 -467q0 -39 -362 -70 q-380 35 -420 152q-82 77 -82 233h12q-12 23 -12 35q-11 474 -11 525h-129q-11 0 -11 12l-24 -12h-11zM597 1458q288 327 303 327h12q105 -59 105 -129l-304 -315h-46q0 32 -59 70q-11 21 -11 47z" />
<glyph unicode="&#xfb;" horiz-adv-x="1633" d="M60 980v70q0 62 47 81h198l70 -11q20 11 47 11q11 0 11 -11l59 11h70q11 0 11 -11l24 11h35q23 -3 23 -23v-128q0 -17 -35 -35h-128l-82 11v-373q0 -338 117 -338q0 -60 326 -82q178 0 257 210q58 239 58 572h-116q-94 0 -94 70h12l-12 23v58l12 24q251 -12 373 -12h164 q46 -16 46 -105v-35l-23 -35l-58 12l-47 -12v12q-12 0 -12 -12l-58 12h-12l-23 -12q0 -23 12 -23l-12 -117v-268q0 -135 -117 -385q-140 -129 -455 -129q-256 0 -420 140q-58 68 -81 304h11l-11 23v478h-164q-23 0 -23 24zM457 1470q16 0 245 210l93 70h23 q247 -177 362 -292q-61 -93 -128 -93h-24l-210 175q-235 -187 -256 -187q-105 55 -105 117z" />
<glyph unicode="&#xfc;" horiz-adv-x="1645" d="M60 980v46q0 105 82 105h163l70 -11q20 11 47 11l23 -11l70 11h23q27 0 47 -11q20 11 47 11q23 0 35 -116q-24 -70 -47 -70h-128l-82 11v-361q0 -293 93 -350q142 -82 327 -82h23q263 0 304 443v164q0 11 11 11q0 12 -11 12l11 58v94h-116l-82 11v35q0 26 -12 47l12 23 q-12 21 -12 47q12 0 12 12q251 -12 373 -12h164q32 0 58 -117l-35 -58l-47 12q-8 0 -70 -12q-46 12 -81 12v-94q0 -11 -12 -11q0 -12 12 -12l-12 -58v-280q-82 -350 -128 -350q-48 -105 -432 -129q-337 0 -455 187q-58 0 -58 607v151h-129q-11 0 -11 12l-24 -12 q-23 0 -23 24zM457 1516v12q0 55 70 93h70q140 -7 140 -128q-55 -117 -140 -117q-140 14 -140 140zM877 1505q23 116 116 116h35q152 -42 152 -140q0 -38 -105 -105h-82q-93 0 -116 129z" />
<glyph unicode="&#xfd;" horiz-adv-x="1878" d="M60 1085v11l23 12q437 12 630 12q0 11 12 11q12 -95 23 -116q-11 -21 -11 -47h-24l-81 -12v12l-24 -12h-23q-12 0 -12 12q-19 -12 -58 -12q119 -189 408 -735l24 -11q296 526 396 746h-11l-70 12h-59q-26 0 -46 -12q-82 16 -82 35q14 117 47 117h560q26 0 46 12 q70 0 70 -117q-11 -23 -11 -35q-117 -12 -175 -12h-82q-14 0 -385 -746q-217 -392 -385 -770h152l81 -12v-105q0 -17 -35 -35h-501q-12 0 -12 12l-23 -12h-59q-35 12 -35 70v70l12 23l47 -11q210 0 210 70l233 490v11q-294 604 -525 945h-117q-128 0 -128 129zM760 1353v35 q153 223 315 338q62 -20 105 -93v-35q-293 -327 -315 -327h-12q-29 9 -93 82z" />
<glyph unicode="&#xfe;" horiz-adv-x="1283" d="M60 1715q0 68 117 93q105 -28 105 -117v-81q0 -39 -12 -59l12 -70v-210h116q49 0 129 -11q11 0 11 11q343 0 560 -140q59 -56 105 -315v-128q0 -490 -420 -490q-404 -12 -513 -12v-781q0 -27 12 -47q0 -63 -82 -70q-20 12 -47 12h-46q-24 81 -24 140v560q0 48 -11 93 l11 47q-23 1286 -23 1575zM270 350h117q35 0 35 11l58 -11h35q455 0 455 105q82 75 82 338q0 174 -187 257q-194 42 -513 70q-21 -12 -47 -12h-35v-408q0 -65 12 -164l-12 -23l12 -23q-12 -80 -12 -129v-11z" />
<glyph unicode="&#xff;" horiz-adv-x="1878" d="M60 1120h70q26 0 47 11q11 0 11 -11q216 11 315 11h199l23 12l12 -82v-58q0 -23 -129 -35q-20 12 -46 12h-59q105 -152 362 -642q71 -117 82 -117q301 547 396 747h-11l-70 12h-164q-23 0 -23 23q12 117 47 117h396q94 0 222 11q58 0 58 -105v-11q0 -17 -35 -35 q-204 -12 -245 -12q-359 -731 -408 -793l-350 -712v-12h210q23 -3 23 -23v-93q-11 -35 -70 -35h-291q-93 0 -245 11q-23 -11 -35 -11l-24 35v105l12 23q61 -12 70 -12q187 0 187 82q233 469 233 490q-274 551 -513 945h-129q-128 0 -128 152zM573 1481v35q0 86 129 105 q151 -32 151 -128q-51 -128 -140 -128q-140 19 -140 116zM993 1493q20 117 117 117h35q140 -35 140 -129v-35q-57 -81 -128 -81h-47q-93 0 -117 128z" />
<glyph unicode="&#x152;" horiz-adv-x="3057" d="M60 1003q0 276 245 583q269 187 513 187v-12l24 12q174 0 478 -12q163 0 443 12q446 -12 1027 -12h175l12 -58v-385q0 -23 -24 -23q-11 0 -11 11l-59 -11h-58q-17 0 -35 35v93l-12 140l-81 -12h-105q-35 0 -35 12l-59 -12h-665q-11 0 -11 12l-24 -12h-221q0 -48 -24 -233 l12 -70q-12 -130 -12 -233v-187q223 -12 304 -12l23 12q20 -12 47 -12h11l59 12v-12q11 0 11 12l140 -12h117v129q0 16 35 35h140v-47q0 -35 12 -35l-12 -58v-280q0 -90 -47 -105h-105q-17 0 -35 35v116h-11q-40 0 -199 12q-22 -12 -35 -12v12q-11 0 -11 -12l-82 12h-350 q-12 -158 -12 -233v-140q27 0 47 11q103 -11 128 -11q104 11 129 11v-11l23 11h70q12 0 12 -11q11 0 11 11l82 -11h233q49 0 129 -12q11 0 11 12l82 -12h245v12q0 338 47 338l58 12q93 -14 93 -47v-373q0 -129 -58 -129l-70 -11v11l-23 -11h-1167q-12 0 -12 11l-23 -11h-23 q-42 0 -105 11q-12 0 -12 -11l-82 11h-23q-113 0 -280 -35q-716 0 -933 490q-70 172 -70 374v81q0 26 -12 47zM293 851q0 -341 280 -513q0 -68 490 -105q104 12 129 23l23 -11q80 11 128 11v980l12 70q0 12 -12 12l12 82v151h-117q-136 0 -186 24q-484 0 -630 -210 q-129 -214 -129 -444v-70z" />
<glyph unicode="&#x153;" horiz-adv-x="2462" d="M60 560v46q27 400 280 502q111 47 315 47v-12l23 12q420 -82 420 -175q70 -34 70 -82h12q74 257 513 257h82q292 -63 350 -140q23 -7 128 -175v-105q0 -94 -70 -94q-73 -11 -163 -11h-408q-12 0 -12 11l-23 -11h-245l-59 -12q0 -298 257 -408l175 -35q195 0 303 175 l-23 11h-140q-30 0 -47 105q12 23 12 35q102 0 257 12q164 -12 280 -12q35 -92 35 -116q0 -35 -129 -35h-46q-85 -141 -129 -164q-203 -175 -385 -175q-351 0 -478 199l-35 23h-12q0 -58 -186 -140q-50 -32 -269 -82l-23 12l-47 -12q-287 32 -408 152q-175 198 -175 397z M223 641q0 -232 269 -431q93 -24 116 -24h94q254 0 373 199q35 99 35 151q0 318 -292 444q-140 23 -221 23h-59q-137 0 -221 -128q-61 0 -94 -234zM1308 781h82q90 0 163 12q198 -16 222 -23l23 11l117 -11q99 11 163 11v12q0 93 -303 210h-187q-148 0 -280 -210v-12z" />
<glyph unicode="&#x178;" horiz-adv-x="2392" d="M60 1726l58 12h945q35 -7 35 -93v-70l-81 -12h-24q-11 0 -11 12l-24 -12h-23q-12 0 -12 12l-23 -12q-12 0 -12 12l-23 -12q-12 0 -12 12l-58 -12h-12q-26 0 -46 12q-21 -12 -47 -12q0 -63 385 -583q20 -55 93 -129q409 500 409 537q61 61 140 175h-339q-16 0 -35 35v82 q0 58 59 70l58 -12h257q48 0 93 12q45 -12 93 -12h94q35 0 35 12l58 -12h210l12 -47q-9 -128 -47 -128h-327q-161 -158 -396 -502q-292 -341 -292 -443v-245q0 -59 -12 -175h12q48 0 128 12l117 -12q12 0 35 12q140 0 140 -117v-23q-15 -59 -35 -59h-303q-42 0 -105 -11 q-15 11 -82 11q-62 0 -105 -11q-61 11 -117 11h-11q-48 0 -94 -11l-70 11l-81 -11v11l-24 -11q-26 0 -35 151q12 23 12 35q20 0 280 24q77 -12 152 -12v117q0 61 11 105q-11 61 -11 116v152l-525 758q-43 129 -140 129l-24 -12h-280q-23 155 -23 163zM842 2030v58 q0 105 151 105q140 0 140 -152q-59 -116 -163 -116q-62 0 -128 105zM1285 2053v12q0 91 128 128q187 -38 187 -163q-59 -105 -140 -105h-35q-140 16 -140 128z" />
<glyph unicode="&#x2c6;" horiz-adv-x="722" d="M60 1079l232 355h118l232 -355h-58l-233 216l-233 -216h-58z" />
<glyph unicode="&#x2dc;" horiz-adv-x="714" d="M60 1132q19 106 68 158.5t129 52.5q46 -1 113 -24q64 -23 112 -23h4q36 0 58 20t36 66h54q-20 -103 -68.5 -154t-126.5 -51h-4q-50 0 -113 23q-66 24 -114 24q-39 0 -60.5 -20.5t-33.5 -71.5h-54z" />
<glyph unicode="&#x2000;" horiz-adv-x="1160" />
<glyph unicode="&#x2001;" horiz-adv-x="2321" />
<glyph unicode="&#x2002;" horiz-adv-x="1160" />
<glyph unicode="&#x2003;" horiz-adv-x="2321" />
<glyph unicode="&#x2004;" horiz-adv-x="773" />
<glyph unicode="&#x2005;" horiz-adv-x="580" />
<glyph unicode="&#x2006;" horiz-adv-x="386" />
<glyph unicode="&#x2007;" horiz-adv-x="386" />
<glyph unicode="&#x2008;" horiz-adv-x="290" />
<glyph unicode="&#x2009;" horiz-adv-x="464" />
<glyph unicode="&#x200a;" horiz-adv-x="128" />
<glyph unicode="&#x2010;" horiz-adv-x="1178" d="M60 653l47 140q278 23 513 58l58 -11h280l70 11q70 -11 70 -140q0 -81 -81 -81q-417 -47 -852 -70l-23 11q-21 -11 -47 -11q-35 49 -35 93z" />
<glyph unicode="&#x2011;" horiz-adv-x="1178" d="M60 653l47 140q278 23 513 58l58 -11h280l70 11q70 -11 70 -140q0 -81 -81 -81q-417 -47 -852 -70l-23 11q-21 -11 -47 -11q-35 49 -35 93z" />
<glyph unicode="&#x2012;" horiz-adv-x="1178" d="M60 653l47 140q278 23 513 58l58 -11h280l70 11q70 -11 70 -140q0 -81 -81 -81q-417 -47 -852 -70l-23 11q-21 -11 -47 -11q-35 49 -35 93z" />
<glyph unicode="&#x2013;" horiz-adv-x="1024" d="M60 560v291h884v-291h-884z" />
<glyph unicode="&#x2014;" horiz-adv-x="2048" d="M60 560v291h1908v-291h-1908z" />
<glyph unicode="&#x2018;" horiz-adv-x="618" d="M60 1224v117q0 240 245 502q74 23 93 23q140 0 140 -117q0 -31 -128 -81q-129 -141 -129 -304v-128q-7 -70 -35 -70q-132 0 -186 58z" />
<glyph unicode="&#x2019;" horiz-adv-x="618" d="M60 1283q0 31 128 81q129 141 129 304v128q7 70 35 70q132 0 186 -58v-117q0 -240 -245 -502q-74 -23 -93 -23q-140 0 -140 117z" />
<glyph unicode="&#x201c;" horiz-adv-x="1287" d="M60 1224v117q0 240 245 502q74 23 93 23q140 0 140 -117q0 -31 -128 -81q-129 -141 -129 -304v-128q-7 -70 -35 -70q-132 0 -186 58zM729 1224v117q0 240 245 502q74 23 93 23q140 0 140 -117q0 -31 -128 -81q-129 -141 -129 -304v-128q-7 -70 -35 -70q-132 0 -186 58z " />
<glyph unicode="&#x201d;" horiz-adv-x="1287" d="M60 1283q0 31 128 81q129 141 129 304v128q7 70 35 70q132 0 186 -58v-117q0 -240 -245 -502q-74 -23 -93 -23q-140 0 -140 117zM729 1283q0 31 128 81q129 141 129 304v128q7 70 35 70q132 0 186 -58v-117q0 -240 -245 -502q-74 -23 -93 -23q-140 0 -140 117z" />
<glyph unicode="&#x2026;" horiz-adv-x="1674" d="M136 269q88 84 170 37l80 -47q78 -122 47 -175q-107 -140 -239 -64l-9 6q-125 112 -49 243zM701 269q88 84 170 37l80 -47q78 -122 47 -175q-107 -140 -239 -64l-9 6q-125 112 -49 243zM1266 269q88 84 170 37l80 -47q78 -122 47 -175q-107 -140 -239 -64l-9 6 q-125 112 -49 243z" />
<glyph unicode="&#x202f;" horiz-adv-x="464" />
<glyph unicode="&#x2039;" horiz-adv-x="898" d="M60 898q151 197 420 630q65 82 152 233h11q95 0 175 -81v-47l-385 -572q-85 -131 -128 -221q216 -251 455 -700q23 0 23 -59v-11q-67 -7 -105 -35h-70q-56 0 -233 338q-72 72 -303 478q-12 21 -12 47z" />
<glyph unicode="&#x203a;" horiz-adv-x="898" d="M60 128q0 24 245 385q268 381 268 432q0 11 -186 268q-280 435 -280 513l46 12v-12q60 35 117 35q63 -6 198 -256q220 -336 339 -549q11 0 11 -70l-175 -256q-148 -207 -373 -595h-12q-150 0 -198 93z" />
<glyph unicode="&#x205f;" horiz-adv-x="580" />
<glyph unicode="&#x20ac;" horiz-adv-x="1972" d="M60 1026l12 59q224 23 315 23h23q0 227 175 455q163 150 443 187q473 0 595 -292q35 -133 35 -152h199v-11q0 -96 -47 -164q-457 -11 -560 -11q-11 0 -82 35v105q0 16 35 35h187q23 0 23 23q0 149 -245 268q-105 24 -151 24q-270 -93 -374 -315q-35 -99 -35 -129 q18 -46 35 -46h199l58 11l12 -58v-82q0 -35 -269 -35h-23v-245q0 -17 35 -35q248 12 292 12v-12q0 -151 -47 -151q-77 -12 -152 -12h-93q0 -208 385 -397q93 0 93 -11q155 0 280 280q24 86 24 116l-24 12h-151q-24 0 -24 23v12q0 12 12 12q-23 38 -23 58q0 58 233 58h198 l70 -11q20 11 59 11h105v-105q-30 -70 -94 -70q-11 0 -11 12l-59 -12h-11l-59 12q-50 -262 -93 -338q-107 -125 -362 -199q-52 0 -70 -11q-489 0 -665 431q0 14 -23 129h-58q-49 0 -129 11q-22 -11 -35 -11q-67 7 -105 35q12 90 35 128q13 0 35 -12q100 12 152 12v-12l23 12 q12 0 12 -12q23 12 35 12v47q0 210 -35 210h-245q-70 0 -70 81z" />
<glyph unicode="&#x2122;" horiz-adv-x="1692" d="M60 1516v222q7 35 93 35h245q12 0 12 -12l23 12h12q12 0 12 -12q22 12 35 12q291 0 291 -70l24 -198q-12 -47 -59 -47q-116 0 -116 58h-12l12 59v58l-82 12h-12l-35 -24l12 -23v-303h175l12 -59v-11q0 -63 -47 -82h-105q-58 -3 -58 -23l-82 11h-70l-140 -11 q-47 38 -47 105v46h24q65 0 175 24v23q0 48 11 93q0 13 -11 35q11 83 11 140l-11 59h-70q-82 0 -82 -152l-35 -23h-82q0 18 -23 46zM877 1248v502l46 11q12 0 12 -11l58 11q607 0 607 -58q12 -216 12 -315v-163q0 -105 -82 -105q-70 11 -70 35v420q0 23 -23 23h-129v-12 q0 -61 12 -105q-12 -110 -12 -210v-93q-23 -29 -23 -47h-47q-60 0 -70 35v374l-11 58l-117 -12q0 12 -12 12v-233q0 -42 12 -105q-16 -152 -58 -152q-94 23 -94 47q-11 45 -11 93z" />
<glyph unicode="&#xe000;" horiz-adv-x="1110" d="M0 1110h1110v-1110h-1110v1110z" />
<glyph unicode="&#xfb01;" horiz-adv-x="2053" d="M1320 46v70q0 39 152 47h58q23 513 35 560q-12 45 -12 93v82q-35 0 -35 12q-11 0 -11 -12q-152 0 -152 70v70q0 15 70 47h280l35 -24q-12 -355 -12 -525v-186q0 -12 -11 -12l11 -23l-11 -140l23 -12h198q0 -18 35 -47v-105q0 -23 -23 -23q-12 0 -12 12l-23 -12 q-47 0 -47 12l-81 -12h-455zM1507 1353q0 93 140 117q140 -21 140 -164q0 -93 -129 -116h-11q-140 0 -140 163zM60 840l23 11h105q27 0 47 12q20 -12 47 -12l11 24v548q42 315 222 315q365 0 420 -175q23 -46 35 -210h47l140 12l23 -35v-105q0 -24 -23 -24h-537 q-12 21 -12 47v58q4 24 24 24h93q29 0 105 23v47q0 169 -245 210h-12q-128 0 -128 -455v-292h198l140 12q35 -41 35 -140q-11 -35 -70 -35h-11q-12 0 -12 11l-23 -11h-245v-327l11 -117h-11q14 -105 35 -105h210q35 0 46 -93q-15 -58 -35 -58h-81l-140 -12v12l-24 -12h-58 q-26 0 -47 12q-11 0 -11 -12l-59 12h-11q-27 0 -47 -12q-12 0 -12 12l-58 -12h-58l-24 82h12l-12 23q0 70 82 70h117v525h-210q0 7 -12 152z" />
<glyph unicode="&#xfb02;" horiz-adv-x="2228" d="M1320 1633h12q0 12 -12 12q12 93 58 93l59 -12l23 12l47 -12q148 12 163 24q20 -12 47 -12q12 0 35 12q105 -22 105 -47q-12 -260 -12 -420v-12l12 -70q-12 -19 -12 -58v-35q0 -35 12 -35l-12 -58v-817q35 0 35 -12l117 12h116q35 -12 35 -70v-47q0 -70 -105 -70 q-81 0 -93 -11l-23 11q-196 -11 -304 -11h-35l-70 -12q-175 0 -175 93v24q0 93 70 93h245v222l12 70l-12 23l12 23q0 12 -12 12l12 58v292q0 75 -12 152q12 42 12 128q0 12 -12 35q0 12 12 12l-12 116v12q0 61 12 198q-12 0 -12 -11l-58 11h-47q-26 0 -46 -11q-21 11 -47 11 h-93q-31 0 -47 82zM60 840l23 11h105q27 0 47 12q20 -12 47 -12l11 24v548q42 315 222 315q365 0 420 -175q23 -46 35 -210h47l140 12l23 -35v-105q0 -24 -23 -24h-537q-12 21 -12 47v58q4 24 24 24h93q29 0 105 23v47q0 169 -245 210h-12q-128 0 -128 -455v-292h198l140 12 q35 -41 35 -140q-11 -35 -70 -35h-11q-12 0 -12 11l-23 -11h-245v-327l11 -117h-11q14 -105 35 -105h210q35 0 46 -93q-15 -58 -35 -58h-81l-140 -12v12l-24 -12h-58q-26 0 -47 12q-11 0 -11 -12l-59 12h-11q-27 0 -47 -12q-12 0 -12 12l-58 -12h-58l-24 82h12l-12 23 q0 70 82 70h117v525h-210q0 7 -12 152z" />
<glyph unicode="&#xfb03;" horiz-adv-x="3313" d="M2580 46v70q0 39 152 47h58q23 513 35 560q-12 45 -12 93v82q-35 0 -35 12q-11 0 -11 -12q-152 0 -152 70v70q0 15 70 47h280l35 -24q-12 -355 -12 -525v-186q0 -12 -11 -12l11 -23l-11 -140l23 -12h198q0 -18 35 -47v-105q0 -23 -23 -23q-12 0 -12 12l-23 -12 q-47 0 -47 12l-81 -12h-455zM2767 1353q0 93 140 117q140 -21 140 -164q0 -93 -129 -116h-11q-140 0 -140 163zM1320 840l23 11h105q27 0 47 12q20 -12 47 -12l11 24v548q42 315 222 315q365 0 420 -175q23 -46 35 -210h47l140 12l23 -35v-105q0 -24 -23 -24h-537 q-12 21 -12 47v58q4 24 24 24h93q29 0 105 23v47q0 169 -245 210h-12q-128 0 -128 -455v-292h198l140 12q35 -41 35 -140q-11 -35 -70 -35h-11q-12 0 -12 11l-23 -11h-245v-327l11 -117h-11q14 -105 35 -105h210q35 0 46 -93q-15 -58 -35 -58h-81l-140 -12v12l-24 -12h-58 q-26 0 -47 12q-11 0 -11 -12l-59 12h-11q-27 0 -47 -12q-12 0 -12 12l-58 -12h-58l-24 82h12l-12 23q0 70 82 70h117v525h-210q0 7 -12 152zM60 840l23 11h105q27 0 47 12q20 -12 47 -12l11 24v548q42 315 222 315q365 0 420 -175q23 -46 35 -210h47l140 12l23 -35v-105 q0 -24 -23 -24h-537q-12 21 -12 47v58q4 24 24 24h93q29 0 105 23v47q0 169 -245 210h-12q-128 0 -128 -455v-292h198l140 12q35 -41 35 -140q-11 -35 -70 -35h-11q-12 0 -12 11l-23 -11h-245v-327l11 -117h-11q14 -105 35 -105h210q35 0 46 -93q-15 -58 -35 -58h-81 l-140 -12v12l-24 -12h-58q-26 0 -47 12q-11 0 -11 -12l-59 12h-11q-27 0 -47 -12q-12 0 -12 12l-58 -12h-58l-24 82h12l-12 23q0 70 82 70h117v525h-210q0 7 -12 152z" />
<glyph unicode="&#xfb04;" horiz-adv-x="3488" d="M2580 1633h12q0 12 -12 12q12 93 58 93l59 -12l23 12l47 -12q148 12 163 24q20 -12 47 -12q12 0 35 12q105 -22 105 -47q-12 -260 -12 -420v-12l12 -70q-12 -19 -12 -58v-35q0 -35 12 -35l-12 -58v-817q35 0 35 -12l117 12h116q35 -12 35 -70v-47q0 -70 -105 -70 q-81 0 -93 -11l-23 11q-196 -11 -304 -11h-35l-70 -12q-175 0 -175 93v24q0 93 70 93h245v222l12 70l-12 23l12 23q0 12 -12 12l12 58v292q0 75 -12 152q12 42 12 128q0 12 -12 35q0 12 12 12l-12 116v12q0 61 12 198q-12 0 -12 -11l-58 11h-47q-26 0 -46 -11q-21 11 -47 11 h-93q-31 0 -47 82zM1320 840l23 11h105q27 0 47 12q20 -12 47 -12l11 24v548q42 315 222 315q365 0 420 -175q23 -46 35 -210h47l140 12l23 -35v-105q0 -24 -23 -24h-537q-12 21 -12 47v58q4 24 24 24h93q29 0 105 23v47q0 169 -245 210h-12q-128 0 -128 -455v-292h198 l140 12q35 -41 35 -140q-11 -35 -70 -35h-11q-12 0 -12 11l-23 -11h-245v-327l11 -117h-11q14 -105 35 -105h210q35 0 46 -93q-15 -58 -35 -58h-81l-140 -12v12l-24 -12h-58q-26 0 -47 12q-11 0 -11 -12l-59 12h-11q-27 0 -47 -12q-12 0 -12 12l-58 -12h-58l-24 82h12 l-12 23q0 70 82 70h117v525h-210q0 7 -12 152zM60 840l23 11h105q27 0 47 12q20 -12 47 -12l11 24v548q42 315 222 315q365 0 420 -175q23 -46 35 -210h47l140 12l23 -35v-105q0 -24 -23 -24h-537q-12 21 -12 47v58q4 24 24 24h93q29 0 105 23v47q0 169 -245 210h-12 q-128 0 -128 -455v-292h198l140 12q35 -41 35 -140q-11 -35 -70 -35h-11q-12 0 -12 11l-23 -11h-245v-327l11 -117h-11q14 -105 35 -105h210q35 0 46 -93q-15 -58 -35 -58h-81l-140 -12v12l-24 -12h-58q-26 0 -47 12q-11 0 -11 -12l-59 12h-11q-27 0 -47 -12q-12 0 -12 12 l-58 -12h-58l-24 82h12l-12 23q0 70 82 70h117v525h-210q0 7 -12 152z" />
</font>
</defs>
</svg>
