<?xml version="1.0" standalone="no"?>
<!DOCTYPE svg PUBLIC "-//W3C//DTD SVG 1.1//EN" "http://www.w3.org/Graphics/SVG/1.1/DTD/svg11.dtd" >
<svg xmlns="http://www.w3.org/2000/svg">
<metadata></metadata>
<defs>
<font id="nimblepenregular" horiz-adv-x="1610" >
<font-face units-per-em="2048" ascent="1638" descent="-410" />
<missing-glyph horiz-adv-x="1122" />
<glyph horiz-adv-x="2048" />
<glyph horiz-adv-x="2048" />
<glyph unicode="&#xd;" horiz-adv-x="550" />
<glyph unicode=" "  horiz-adv-x="1122" />
<glyph unicode="&#x09;" horiz-adv-x="1122" />
<glyph unicode="&#xa0;" horiz-adv-x="1122" />
<glyph unicode="!" horiz-adv-x="882" d="M173 525v35q0 206 12 851q67 339 210 339h46q132 0 164 -199v-140q-24 -463 -24 -501v-210q0 -304 -175 -304q-233 35 -233 129zM185 116q37 199 175 199h11q184 0 222 -199q-18 -175 -175 -175h-58q-175 15 -175 175z" />
<glyph unicode="&#x22;" horiz-adv-x="1463" d="M189 980q27 658 47 793q193 12 291 12l82 -24q0 -114 12 -116l-24 -490q12 -47 12 -82q0 -175 -140 -175q-280 0 -280 82zM749 1003q12 215 12 362v361q0 51 163 59h47q175 0 175 -70q11 -90 11 -199q0 -100 -11 -210q11 -80 11 -128q-11 -158 -11 -233q-43 -35 -82 -35 h-198q-117 0 -117 93z" />
<glyph unicode="#" horiz-adv-x="2204" d="M-57 490q0 198 152 198h268q27 0 105 303h-23q-327 0 -327 82v82q0 175 93 175q73 11 164 11h198q105 479 338 479q234 -50 234 -94v-23q0 -63 -82 -362l82 -11h210q98 420 186 420q0 24 164 58q111 -33 221 -82v-11q0 -168 -70 -374h12q268 0 268 -128v-47 q0 -175 -151 -175h-269q-93 -281 -93 -303h105q245 0 245 -117v-23q0 -198 -117 -198q-66 -12 -186 -12h-164q-99 -455 -326 -455h-140q-134 0 -152 58v35q0 46 128 374h-245q-140 -444 -420 -444q-123 0 -151 175l70 269h-175q-152 0 -152 140zM865 688h291q59 158 94 303 h-280q-27 0 -105 -303z" />
<glyph unicode="$" horiz-adv-x="1424" d="M43 233v70q0 75 198 152q0 15 82 35q39 -2 187 -117q42 -23 93 -23h12q233 22 233 151q0 147 -385 187q-397 192 -397 525v47q0 339 444 490h58v221q12 35 70 35h175q70 0 70 -81q12 -51 12 -175q165 0 408 -292v-35q0 -97 -292 -198q-20 0 -221 140h-94 q-163 0 -198 -152q26 -163 268 -163q177 0 420 -257q94 -129 94 -338q0 -300 -397 -479l12 -70q0 -163 -47 -163l-82 -12q-198 0 -198 47l-12 58l12 117h-70q-196 0 -432 268q0 12 -23 12z" />
<glyph unicode="%" horiz-adv-x="2103" d="M-1 1213v58q0 163 117 374q136 151 361 151q339 -87 339 -466q-33 -183 -187 -350q-137 -82 -187 -82h-46q-287 0 -397 315zM221 46q0 192 478 770q131 155 642 829q126 128 186 128h47q128 0 152 -187v-35q0 -88 -560 -840q-586 -781 -817 -781h-23q-86 0 -105 116z M256 1283q0 -93 93 -93h35q175 0 175 245q0 65 -117 93q-114 0 -186 -210v-35zM1177 303q49 310 164 420q100 105 350 105q145 -31 221 -152q70 -76 94 -268q0 -216 -245 -432l-175 -46q-234 0 -374 245zM1434 350q0 -129 140 -129q150 0 175 257q-34 82 -105 82h-23 q-106 0 -187 -210z" />
<glyph unicode="&#x26;" horiz-adv-x="1895" d="M41 385q0 322 362 536l35 59q-199 291 -199 420q61 396 467 396h82q362 0 455 -350q0 -140 11 -140q0 -124 -233 -373q34 -81 303 -315h35q234 210 350 210q73 0 117 -210v-47q0 -99 -198 -233l-12 -23q140 -154 140 -245v-24q-41 -140 -198 -140h-35q-125 0 -304 187 q-342 -175 -583 -175q-361 0 -560 292q-35 62 -35 175zM484 455q42 -199 187 -199q241 35 292 105q-11 38 -280 292h-24q-86 0 -175 -175v-23zM613 1411q35 -221 105 -221h35q100 0 140 186q-33 187 -140 187q-91 0 -140 -152z" />
<glyph unicode="'" horiz-adv-x="900" d="M192 1015q12 164 12 280v140q0 55 11 116q-11 44 -11 105v35q0 94 186 94h24q221 0 221 -82v-292q0 -48 -11 -93q11 -46 11 -82q0 -43 -11 -291q-43 -35 -82 -35h-198q-152 0 -152 105z" />
<glyph unicode="(" horiz-adv-x="1179" d="M147 700q0 472 163 770q115 309 350 490l70 11q93 0 339 -163l11 -23v-59q0 -53 -163 -268q-198 -408 -198 -863v-47q0 -321 361 -922q12 0 12 -35q0 -14 -187 -93q-145 -93 -198 -93h-35q-174 0 -455 711q-70 301 -70 584z" />
<glyph unicode=")" horiz-adv-x="1172" d="M-3 -374q0 66 163 269q210 433 210 898q-20 350 -303 852q-15 0 -70 93v35q3 20 245 128q0 24 140 70q124 0 245 -221q303 -445 303 -1004v-140q0 -462 -210 -816q0 -97 -268 -362q-38 -23 -70 -23h-47q-66 0 -268 116q-40 10 -70 70v35z" />
<glyph unicode="*" horiz-adv-x="1681" d="M65 1155v35q0 221 82 221q110 12 210 12h46q-151 210 -151 268v12q0 93 233 187q78 -3 280 -327h12q0 42 233 350h23q244 -132 257 -175v-23q0 -44 -175 -304h280q97 0 105 -128q0 -233 -82 -233h-280q175 -237 175 -280q0 -16 -221 -187h-24q-77 0 -280 315h-11 q-182 -327 -269 -327q-233 98 -233 199q0 61 163 280h-186q-187 0 -187 105z" />
<glyph unicode="+" horiz-adv-x="1634" d="M-57 793q0 280 93 280q46 12 94 12h373q12 466 12 536l35 24h11q131 0 339 11q81 0 81 -221v-280l-11 -82h315q26 0 46 12q187 0 187 -129v-210q0 -128 -140 -128h-408v-222q0 -350 -105 -350h-35q-315 0 -315 70q-24 0 -24 47q12 393 12 455h-315q-233 0 -233 105 q-12 17 -12 70z" />
<glyph unicode="," horiz-adv-x="780" d="M-28 -24q160 179 315 619q15 81 82 81h81q77 0 199 -140q0 -155 -292 -688q-45 -35 -105 -35h-12q-268 68 -268 163z" />
<glyph unicode="-" horiz-adv-x="1755" d="M102 851q0 304 70 304q85 11 105 23q383 -12 595 -12h432q151 0 151 -210v-81q0 -187 -93 -187q-58 0 -58 -12q-128 24 -397 24h-677q-128 0 -128 151z" />
<glyph unicode="." horiz-adv-x="655" d="M58 221q0 180 187 257h81q245 -62 245 -245q0 -233 -268 -233h-12q-205 0 -233 221z" />
<glyph unicode="/" horiz-adv-x="1396" d="M17 140q148 377 315 641q446 850 560 1015l35 24h82q256 -83 256 -129q24 -38 24 -70v-35q0 -92 -595 -1190q-214 -443 -339 -443h-35q-237 0 -303 187z" />
<glyph unicode="0" horiz-adv-x="1739" d="M163 1015q120 816 747 816q303 0 466 -163q222 -363 222 -793q0 -604 -397 -887q-188 -47 -268 -47q-461 0 -560 222q-175 254 -175 548q-21 53 -35 304zM653 851q0 -290 187 -431h23q233 66 233 373v35q0 420 -198 548l-23 12q-222 -96 -222 -455v-82z" />
<glyph unicode="1" horiz-adv-x="1179" d="M36 1703q120 58 175 58h525q222 0 222 -116q23 -172 35 -362q-12 -270 -12 -280q12 -591 12 -922q0 -85 -129 -93h-23q-292 15 -292 70q0 88 -23 268q0 18 12 187l-12 105q12 71 12 175h11q-11 23 -11 35q0 432 -105 432q-374 0 -374 163q0 77 -23 280z" />
<glyph unicode="2" horiz-adv-x="1597" d="M57 1143q97 327 128 327q116 194 432 280q175 5 175 23q509 0 665 -478q12 -62 12 -117q0 -318 -304 -537l-326 -280l81 12q322 -12 409 -12q74 0 140 -151v-12q0 -268 -105 -268q-15 -12 -82 -12h-758q-93 0 -245 -12q-175 19 -175 152v12q0 319 175 408 q615 496 735 642q0 26 11 46q-43 187 -186 187h-24q-240 0 -315 -233q0 -117 -128 -117q-19 0 -140 12l-58 -12q-117 0 -117 140z" />
<glyph unicode="3" horiz-adv-x="1588" d="M67 233q0 114 163 163q89 82 175 82h35q147 -140 280 -140q315 41 315 210v35q0 115 -221 163h-409q-105 0 -105 129v151q0 99 70 129h94q48 0 93 11q45 -11 93 -11h117q0 35 93 221q-294 -11 -466 -11h-175q-140 0 -140 268q0 163 256 163h12q48 0 93 -11q77 11 152 11 h12q104 0 140 -11q101 11 175 11h256q292 0 292 -81v-59q0 -107 -105 -291q-128 -291 -128 -304q268 -177 268 -431v-82q0 -331 -420 -560q-225 -82 -443 -82q-331 0 -572 327z" />
<glyph unicode="4" horiz-adv-x="1792" d="M70 875v35q0 203 187 828q48 47 116 47h47q194 0 257 -94q0 -177 -105 -525h385l23 -11v23q0 583 47 583q70 24 303 24h12q70 -48 70 -117v-280q0 -76 -12 -233l58 11h47q210 0 210 -140v-151q0 -152 -152 -152h-175v-280q0 -455 -105 -455q-20 -12 -46 -12 q-280 0 -280 117q0 67 -12 82q23 183 23 548h-46q-232 0 -315 -12q-130 12 -339 12h-11q-187 0 -187 152z" />
<glyph unicode="5" horiz-adv-x="1511" d="M130 245q0 111 187 186q0 35 105 59h58q143 -140 233 -140h47q268 50 268 233q0 187 -350 187h-408q-117 0 -117 140v35q0 242 12 548l-12 82q0 210 117 210q46 11 82 11q114 0 595 -11q159 11 198 11q245 0 245 -128v-140q0 -12 -12 -12l12 -23q-32 -140 -140 -140 l-82 12h-163q-147 0 -362 11q-20 -11 -46 -11v-164l116 12q422 0 572 -175q187 -171 187 -443q0 -395 -514 -654q-166 -35 -280 -46q-314 0 -548 350z" />
<glyph unicode="6" horiz-adv-x="1603" d="M161 770v35q0 558 443 910q192 137 350 151q234 0 234 -140q0 -163 -327 -350l-82 -93v-12q117 24 117 35q443 -32 443 -105q79 -15 187 -280q35 -125 35 -256q0 -390 -490 -677q-160 -47 -222 -47q-482 0 -641 525q-47 170 -47 304zM651 478q51 -82 163 -82h59 q217 0 268 374v11q-51 105 -175 105h-23q-113 0 -269 -233q-23 -43 -23 -93v-82z" />
<glyph unicode="7" horiz-adv-x="1574" d="M29 1586q0 173 210 187l653 23q91 -11 187 -11q159 11 198 11q257 -74 257 -210v-58q-102 -289 -595 -1167q-181 -408 -327 -408h-81q-138 0 -234 140q-11 20 -11 47v23q0 103 560 1120h-677q-128 0 -128 292q-12 0 -12 11z" />
<glyph unicode="8" horiz-adv-x="1563" d="M161 548v58q0 241 187 409q-70 71 -105 268q0 193 198 420q225 140 362 140h105q327 0 455 -292q46 -103 46 -221v-12q0 -76 -116 -303q210 -200 210 -432q0 -314 -409 -548q-206 -59 -338 -59q-452 0 -583 420q-12 77 -12 152zM593 630q0 -146 163 -210h47 q164 0 256 116v24q0 175 -291 175q-99 0 -175 -105zM628 1341q0 -140 221 -140q101 0 164 94v11q0 105 -152 164q-131 0 -233 -117v-12z" />
<glyph unicode="9" horiz-adv-x="1534" d="M59 1143q0 299 362 607q203 93 361 93q362 -92 362 -175q21 0 93 23q234 -50 234 -233q-39 -274 -467 -1167q-199 -315 -350 -315q-134 0 -163 199v23q0 86 128 420h-12q-338 0 -525 373q-20 0 -23 152zM467 1143q0 -58 187 -105q136 0 245 245v58q-66 94 -140 94 q-292 -96 -292 -292z" />
<glyph unicode=":" horiz-adv-x="774" d="M92 221q0 177 187 257h70q256 -58 256 -222v-35q0 -221 -268 -221q-245 31 -245 221zM92 1166q0 206 245 234q268 0 268 -210v-35q0 -179 -221 -245q-292 61 -292 256z" />
<glyph unicode=";" horiz-adv-x="880" d="M-50 -24q155 178 257 479q79 221 116 221h105q88 0 199 -151q0 -148 -304 -689q-42 -23 -93 -23h-12q-268 68 -268 163zM242 1155q0 157 163 233l58 12q269 -55 269 -234q0 -221 -234 -221h-23q-233 0 -233 210z" />
<glyph unicode="&#x3c;" horiz-adv-x="1184" d="M-54 688v23q0 357 630 584q321 163 385 163q82 0 82 -222v-35q0 -151 -47 -151l-595 -315v-12l572 -432q46 -62 46 -105v-70q0 -210 -140 -210h-58l-677 490q-198 156 -198 292z" />
<glyph unicode="=" horiz-adv-x="1943" d="M92 420v11q0 245 82 245q20 12 46 12q63 0 630 -47l759 35q128 -62 128 -198v-12q-38 -245 -117 -245q-98 -35 -210 -35q-86 0 -408 24q-493 -12 -735 -12q-175 0 -175 222zM104 1166q55 187 175 187h105q58 0 198 35l198 -23q326 23 735 35q210 -24 210 -152v-82 q-21 -221 -128 -221q-276 -47 -502 -59q-159 24 -210 24q-269 -24 -315 -24q-335 0 -455 187q-11 45 -11 93z" />
<glyph unicode="&#x3e;" horiz-adv-x="1225" d="M51 1085v198q12 175 70 175h23q814 -329 899 -478q105 -174 105 -269q0 -226 -514 -525q-335 -280 -408 -280q-163 0 -163 222v47q0 114 338 326q100 92 292 222q-44 47 -572 303q-70 45 -70 59z" />
<glyph unicode="?" horiz-adv-x="1366" d="M-51 1225q0 361 467 513q130 21 268 35q583 0 583 -618q-54 -218 -175 -304q-107 -79 -396 -186q-38 -257 -129 -257q0 -20 -198 -35q-88 0 -117 198q-11 21 -11 47q36 327 128 327q337 0 490 210q12 58 23 58q-20 210 -163 210h-70q-200 0 -280 -163q-58 -117 -175 -117 h-23q-73 0 -222 82zM311 128q0 175 210 175q175 -20 175 -140v-58q-47 -164 -164 -164h-11q-210 35 -210 187z" />
<glyph unicode="@" horiz-adv-x="2276" d="M45 793q0 128 140 467q203 331 502 431q217 82 490 82q323 0 595 -198q326 -296 326 -735v-164q0 -443 -315 -723q-156 -35 -291 -47q-181 0 -339 187q-58 116 -58 175v35q-140 -35 -198 -35h-24q-326 0 -326 408q0 194 210 409q162 112 326 116h94q56 0 116 -35 q0 63 47 82h35q192 0 222 -93q0 -35 -187 -829q0 -116 128 -116h24q178 0 256 490v81q0 442 -385 642q-157 70 -291 70q-387 0 -619 -292q-140 -229 -140 -525q0 -293 234 -513q151 -70 151 -117q0 -125 -151 -245h-12q-184 40 -397 315q-163 269 -163 677zM815 665 q27 -129 128 -129h59q198 58 198 199l12 58q-35 140 -140 140q-137 0 -257 -198v-70z" />
<glyph unicode="A" horiz-adv-x="1863" d="M32 58v23q245 1008 315 1424q0 209 140 245h222q48 0 93 -12q196 23 443 23q187 0 187 -280q47 -239 222 -851q116 -463 116 -549q0 -108 -221 -140h-35q-197 0 -234 315l-116 234h-537q-47 -194 -93 -455q-179 -94 -245 -94q-257 67 -257 117zM265 338h12q47 161 47 198 q-39 0 -59 -186v-12zM755 945q81 -24 140 -24h94q11 0 58 59q0 243 -128 280h-47q-83 0 -105 -152q-12 -63 -12 -105v-58z" />
<glyph unicode="B" horiz-adv-x="1634" d="M106 70q12 259 47 618q-24 141 -47 595q0 443 152 443q9 16 175 47l116 -12h199q407 0 478 -326q12 -64 12 -105q0 -64 -70 -315q6 -40 186 -117q175 -142 175 -350q0 -371 -560 -560q-418 -23 -466 -23q-94 0 -257 35h-82q-20 0 -58 70zM584 1166h59q169 0 233 140 q-77 129 -175 129h-12q-93 0 -93 -47q-12 -185 -12 -222zM631 478q0 -117 93 -117q18 -11 70 -11q140 23 140 116q0 137 -256 210q-47 -144 -47 -198z" />
<glyph unicode="C" horiz-adv-x="1663" d="M-1 933q184 579 373 665q178 175 409 175h23q519 0 618 -117q70 -46 70 -93q-97 -327 -140 -327q-180 -46 -210 -46q-11 0 -175 93h-70q-315 -96 -315 -443q61 -315 280 -315h24q138 0 291 245q59 81 117 81q257 -102 257 -256v-70q0 -263 -327 -479q-260 -105 -350 -105 q-382 28 -420 105q-455 253 -455 887z" />
<glyph unicode="D" horiz-adv-x="1639" d="M108 70q0 63 23 175q-15 194 -23 210q23 142 23 268q0 66 -23 222q23 277 23 571v94q0 94 152 175h12q26 0 46 -12q0 12 187 23q560 -61 560 -116q397 -243 397 -782q0 -340 -152 -665q-218 -234 -653 -338q-151 0 -234 -12q-298 91 -338 187zM575 1120q23 -206 23 -525 v-140q6 -117 58 -117q160 0 350 350q24 76 35 187q-41 196 -116 256q-167 140 -257 140h-70q0 -46 -23 -151z" />
<glyph unicode="E" horiz-adv-x="1665" d="M95 81q35 140 35 222v128q0 230 35 712q0 81 -70 338q56 126 82 257q213 82 361 82q49 0 245 -47q278 12 385 12q397 0 397 -94v-35q-31 -338 -117 -338q0 -27 -396 -47q-60 0 -374 12l-35 -93q0 -97 105 -117q24 0 24 -12l140 12h58q198 0 198 -128v-24 q0 -280 -210 -280h-233q-82 0 -82 -128q12 -63 12 -105h12q122 0 746 35q129 -23 129 -117q0 -244 -94 -303q-382 -82 -688 -82h-187q-235 0 -466 117q0 23 -12 23z" />
<glyph unicode="F" horiz-adv-x="1519" d="M107 221q47 824 47 1109q-24 118 -24 140q32 256 129 256q139 24 291 35q163 -11 315 -11h210l70 -12q20 12 59 12h128q26 0 47 11q128 -27 128 -116l-47 -210v-82q-115 -152 -280 -152q-86 0 -431 24q-105 0 -105 -140v-70q455 -39 455 -164q23 0 23 -116 q0 -152 -198 -152h-327q23 -261 23 -327q-94 -315 -233 -315h-23l-187 12q-69 159 -70 268z" />
<glyph unicode="G" horiz-adv-x="1710" d="M25 851v59q0 333 198 606q242 269 572 269h35q607 -50 607 -397q0 -100 -280 -163q-68 0 -164 116q-41 24 -140 47q-169 0 -350 -257q-58 -79 -58 -280v-70q0 -270 292 -373q109 -23 175 -23q233 0 233 210q-20 70 -105 70q-67 0 -187 -12q-163 0 -163 210q0 175 128 175 q275 23 444 23h81q222 0 222 -46q12 -20 12 -59q-55 -815 -175 -851q-241 -152 -479 -152h-151q-540 0 -712 618q-35 136 -35 280z" />
<glyph unicode="H" horiz-adv-x="1940" d="M104 1645q26 128 187 128q315 -48 315 -82q23 -42 23 -93v-257q0 -76 12 -233l525 -58q0 -16 81 -24q12 137 12 199q-23 246 -23 291q0 269 186 269h187q128 0 128 -292v-1260q0 -233 -163 -233l-187 -35q-123 0 -163 175v11q0 77 35 350q-4 32 -58 47q-117 -12 -175 -12 q-218 24 -280 24q-105 0 -105 -70q-24 -178 -24 -362l12 -47q0 -130 -257 -163q-131 0 -245 117q12 540 12 840v338q0 140 -35 432z" />
<glyph unicode="I" horiz-adv-x="1585" d="M35 35v256q0 222 187 222l210 -23q116 0 116 151q12 152 12 245q0 397 -93 397h-24q-70 0 -210 -12q-116 12 -116 105v187q0 26 -12 47q0 128 210 128h117q220 0 735 35q74 -12 198 -12l35 -46v-47q0 -42 -12 -105q12 -23 12 -35q0 -134 -70 -198h-210 q-128 -28 -128 -199v-210q0 -116 -12 -350q502 -63 502 -151q23 -81 23 -140q-55 -222 -187 -222q-226 -47 -280 -47q-37 24 -128 35q-430 -23 -758 -81q-77 0 -117 70z" />
<glyph unicode="J" horiz-adv-x="1557" d="M-22 385q0 86 315 221q26 0 187 -233q71 -35 93 -35h47q245 0 245 315q11 46 11 82l-11 140q23 236 23 373v187q0 26 12 46q-15 15 -24 164q0 128 129 128h210q140 0 140 -105q0 -224 23 -595q0 -22 -23 -93q0 -36 11 -82q-6 -653 -81 -653q-208 -327 -724 -327 q-427 0 -571 408q-12 20 -12 59z" />
<glyph unicode="K" horiz-adv-x="1859" d="M107 1458q0 303 82 303l70 12q291 0 291 -82l12 -70q0 -78 -12 -361q12 -80 12 -129q117 0 362 304q347 315 373 315q350 -65 350 -187v-12q0 -126 -350 -361q-199 -150 -233 -199q260 -188 641 -583q105 -74 105 -163q0 -105 -303 -222h-12q-144 86 -665 513 q-163 105 -280 105q-23 -186 -23 -373v-187q-30 -70 -128 -70h-164q-61 0 -116 222q11 464 11 665q0 133 -23 560z" />
<glyph unicode="L" horiz-adv-x="1329" d="M79 1575v23q28 152 128 152h47q93 0 245 11q117 0 117 -560q0 -188 -12 -361q12 -82 12 -339h93q537 0 537 -116q93 -158 93 -222v-12q0 -175 -280 -175h-35q-82 0 -338 12q-155 -23 -269 -23q-117 0 -233 116q-47 63 -47 234v700q0 222 -58 560z" />
<glyph unicode="M" horiz-adv-x="2646" d="M99 1318q0 408 502 408q350 -62 350 -116q175 -522 256 -700l35 -24q59 69 164 595q81 245 186 245q0 21 129 24q688 -36 688 -117q35 -231 35 -397v-245q0 -250 12 -676q-33 -280 -117 -280q-119 -12 -187 -12h-105q-151 0 -151 502q0 224 -12 665q-28 81 -47 81 q-105 -179 -245 -618q0 -84 -268 -502q-62 -46 -105 -46q-190 0 -373 560q-173 385 -210 385q-24 -81 -24 -140v-70q0 -179 35 -642q-124 -210 -256 -210h-12q-45 0 -245 23v12q-23 405 -23 618v514q0 64 -12 163z" />
<glyph unicode="N" horiz-adv-x="1859" d="M94 1551q0 158 210 199q63 11 105 11h23q131 0 350 -256q379 -778 432 -840l23 -12q8 82 24 82q-12 61 -12 70q0 251 -35 816q28 152 128 152h129q140 0 140 -82l46 -443q-11 -216 -11 -420v-58q23 -418 23 -467v-82q-7 -198 -70 -198h-47q-117 0 -291 -12 q-280 53 -280 152q-66 119 -374 852l-23 11q-39 0 -47 -175q0 -115 35 -735q0 -94 -268 -116q-163 23 -163 70v245q0 187 -12 361q12 83 12 140q-47 613 -47 735z" />
<glyph unicode="O" horiz-adv-x="1836" d="M13 851q70 457 187 584q253 291 443 291h280q512 0 747 -688q23 -133 23 -187q0 -624 -618 -816q-170 -47 -280 -47q-443 0 -572 233q-210 282 -210 630zM433 863q49 -408 397 -408h23q281 0 373 326q12 64 12 129q0 247 -362 373h-23q-286 0 -397 -268q-23 -94 -23 -117 v-35z" />
<glyph unicode="P" horiz-adv-x="1526" d="M101 735q12 385 12 560q0 82 -12 315q0 103 408 128q660 -20 735 -128q222 -187 222 -362q0 -360 -315 -478q-130 -35 -268 -35h-315v-12q0 -87 11 -408q-34 -315 -198 -315q-222 20 -222 151zM544 1178q0 -43 47 -105q408 15 408 105q17 0 35 35v47q-48 105 -245 105 q-101 11 -175 11q-70 -58 -70 -175v-23z" />
<glyph unicode="Q" horiz-adv-x="1936" d="M3 875q0 608 618 805q163 58 409 58q455 0 676 -583l47 -199q0 -293 -128 -548q221 -191 221 -268q0 -71 -221 -245h-35q-28 0 -222 221q-153 -116 -198 -116h-129q-570 0 -793 280q-245 255 -245 595zM470 840q0 -276 373 -397h105l82 12l-187 186v59q0 115 233 221 q92 -33 222 -163l12 58v47q0 360 -432 408q-340 0 -408 -431z" />
<glyph unicode="R" horiz-adv-x="1622" d="M84 186v129q35 274 58 1015q-11 137 -11 198q0 99 93 210q199 47 513 47q495 0 654 -280q46 -89 81 -222q0 -295 -303 -513v-12q207 -335 350 -502q58 -90 58 -116q-136 -129 -350 -129h-58q-122 0 -338 420q-138 234 -245 292q-21 0 -59 -548q-55 -164 -175 -164h-128 q-140 25 -140 175zM562 1306q0 -245 164 -245q303 62 303 187q0 147 -292 175h-58q-117 -16 -117 -117z" />
<glyph unicode="S" horiz-adv-x="1381" d="M37 233q70 315 152 315h11q49 0 269 -117q45 -11 93 -11q175 23 175 175v35q0 115 -315 233q-315 123 -315 397v35q0 337 338 455q81 23 140 23h94q267 0 560 -257q50 -29 70 -81q0 -68 -210 -222q-140 0 -304 140q-42 23 -93 23h-117q-18 0 -46 -46v-12q0 -122 326 -233 q350 -277 350 -502v-23q0 -477 -595 -560q-550 64 -583 233z" />
<glyph unicode="T" horiz-adv-x="1681" d="M8 1376v47q0 82 12 257q102 35 233 35h82q175 -4 175 -24q143 35 221 35q554 -11 642 -11q6 0 47 11q108 0 221 -81v-12q-26 -338 -70 -338q-93 -59 -431 -59q-82 -93 -82 -420q0 -70 12 -210l-12 -116q0 -8 12 -152q-24 -315 -82 -315h-47q-116 0 -233 -23 q-175 18 -175 105q0 316 47 700l-12 116q12 117 12 175l-12 140q-7 0 -152 12q-63 0 -221 -12q-187 30 -187 140z" />
<glyph unicode="U" horiz-adv-x="1710" d="M90 1096v47q0 607 58 607q36 23 82 35q315 -17 315 -105l12 -59q0 -22 -24 -303q35 -863 129 -863l81 -12h59q202 0 280 210l11 82q12 551 12 863v35q0 145 140 187q292 -41 292 -117q23 0 23 -128q-35 -1202 -105 -1202q-105 -275 -303 -350q-130 -35 -269 -35h-58 q-552 0 -700 397q-35 198 -35 711z" />
<glyph unicode="V" horiz-adv-x="1931" d="M21 1664q0 73 117 93h105q59 0 186 35q94 0 222 -490q163 -345 233 -595l47 -46h12q47 2 280 583q52 84 233 502l58 23q409 -50 409 -140v-35q-1 -99 -444 -922q-197 -430 -350 -606q-90 -105 -210 -105q-338 74 -338 128q-128 292 -408 1097q-152 356 -152 478z" />
<glyph unicode="W" horiz-adv-x="2722" d="M-2 1610q0 119 315 151q23 12 35 12q105 0 257 -642q30 -54 140 -431l23 -12h12q210 765 291 992q175 23 292 23h12q210 0 210 -163q58 -163 303 -747h12q237 992 338 992h303q129 -24 129 -117v-35q0 -28 -140 -315q-315 -1074 -385 -1213q-42 -70 -327 -129h-70 q-222 0 -222 210q-58 195 -151 712l-35 23q-82 -141 -164 -490q-85 -420 -256 -420q-37 0 -222 12q-103 -12 -128 -12q-117 0 -292 724q-140 398 -280 875z" />
<glyph unicode="X" horiz-adv-x="1928" d="M1 1563q0 175 210 175h93q27 0 47 12q198 0 327 -292q198 -280 210 -280q135 115 233 303q194 280 292 280q443 0 443 -93v-12q0 -111 -303 -431q0 -31 -70 -82q-22 -61 -129 -152l-58 -81q76 -200 210 -339q22 0 210 -221q63 0 117 -187q-63 -198 -199 -198 q-100 0 -163 -24q-187 0 -408 420l-105 129q-116 -83 -304 -362q-61 -187 -175 -187h-23q-102 0 -385 140q-12 21 -12 47v12q0 60 514 665q0 46 -210 280q0 42 -327 373q-35 85 -35 105z" />
<glyph unicode="Y" horiz-adv-x="1605" d="M-13 1621q72 152 385 152q109 0 210 -338q114 -270 175 -362q107 0 350 490q75 233 210 233q257 -53 257 -163l-304 -735q-268 -252 -268 -268l-12 -47l35 -537q-175 -105 -268 -105h-35q-187 35 -187 152v82q0 143 12 350q0 124 -187 245q-56 60 -373 851z" />
<glyph unicode="Z" horiz-adv-x="1765" d="M56 1458q0 257 70 257q751 -12 1050 -24l163 24q210 0 210 -175l24 -199q0 -129 -502 -583q-259 -309 -303 -315v-12q142 0 175 -11q98 23 256 23h362q105 0 105 -105v-47q0 -303 -47 -303l-105 -23q-320 23 -1166 46q-112 -23 -164 -23q-105 0 -105 152q0 261 105 350 q68 135 689 758l-24 12q-188 0 -583 -24q-210 72 -210 222z" />
<glyph unicode="[" horiz-adv-x="1108" d="M60 -490q23 2380 47 2380h11q213 0 269 11q154 -11 326 -11h269q46 -16 46 -105v-257q0 -93 -163 -93h-47q-63 0 -221 11q-47 -9 -47 -23q0 -323 -12 -1563h385q105 0 105 -105v-210q0 -140 -81 -140q-59 0 -59 -12l-58 12q-117 0 -350 11q-105 -7 -105 -23 q-303 17 -303 93q0 24 -12 24z" />
<glyph unicode="\" horiz-adv-x="1412" d="M60 1645q82 175 292 175h23q145 0 233 -222q399 -687 724 -1388v-35q0 -161 -187 -175q-40 -47 -93 -47h-82q-60 7 -315 525q-335 617 -455 805z" />
<glyph unicode="]" horiz-adv-x="1108" d="M60 -257q0 117 82 117h396q12 510 12 781v794q-49 0 -128 11q-15 0 -117 -11q-110 11 -210 11q-35 45 -35 105v117q0 233 70 233h12q207 -11 338 -11q118 0 292 11q233 -9 233 -70l23 -23q-11 -663 -23 -2193q-8 -199 -35 -199q-303 -11 -303 -23l-70 12q-100 0 -350 11 l-117 -11q-70 0 -70 151v187z" />
<glyph unicode="^" horiz-adv-x="2578" d="M60 350v35q0 121 268 291v82l-58 -12h-47q-93 0 -93 94v11q0 107 140 129h47q81 0 81 -70q-23 -4 -23 -24q19 0 35 -23l-12 -82v-46h12q163 86 163 151q59 152 199 152q23 -4 23 -23v-70q-10 -34 -128 -140v-12h11q86 0 327 198h58q24 -3 24 -23v-23l-24 -82 q158 117 210 117h47q23 -4 23 -24v-35q0 -11 -11 -11q17 -47 35 -47h11q85 0 175 140q19 0 47 23h35q23 0 23 -35q0 -25 -93 -128h12q236 105 256 105h12q23 -4 23 -23v-35l-11 -24h641v-58l-58 -12h-502l-70 -11q-81 9 -81 70q-155 -82 -222 -82h-47l-35 23 q-76 -23 -105 -23h-46q-32 2 -82 105q-203 -152 -245 -152q-23 0 -23 24v93l11 23q-205 -163 -291 -163h-24q-20 0 -105 35q-61 -62 -186 -117q-20 -431 -199 -431h-23q-105 0 -105 140zM130 326q17 -46 35 -46q111 0 152 280v23q-187 -121 -187 -257z" />
<glyph unicode="_" horiz-adv-x="2147" d="M60 -117q0 128 455 128q660 24 1155 24h152q164 0 221 -117q24 -76 24 -105v-58q0 -140 -187 -140q-221 -24 -327 -24q-95 0 -151 12q-49 -12 -1179 -23q-151 0 -151 245q-12 0 -12 58z" />
<glyph unicode="`" horiz-adv-x="601" d="M60 1363q0 31 20.5 51t53.5 20q20 0 40.5 -12t55.5 -47l291 -296h-69l-330 202q-31 20 -46.5 40t-15.5 42z" />
<glyph unicode="a" horiz-adv-x="1846" d="M64 256q385 1298 443 1400q0 58 397 129q32 29 117 35h35q338 -61 338 -175q268 -747 268 -1085q94 -343 94 -397v-23q-113 -152 -304 -152q-245 26 -245 117v35q0 48 12 93l-47 303q-595 -67 -595 -128q-81 -397 -210 -397q-140 -70 -210 -70h-11q-65 0 -82 315z M787 980q4 -24 24 -24h58q61 0 198 12q0 215 -140 432h-11q-82 -142 -129 -397v-23z" />
<glyph unicode="b" horiz-adv-x="1712" d="M132 1131v479q0 147 280 198q781 0 840 -175q93 -141 93 -198v-59q0 -67 -105 -245v-11q184 -122 234 -187q116 -162 116 -327q0 -411 -548 -595q-69 0 -502 -23q-350 17 -350 70v23q0 91 12 164q0 122 -70 886zM634 1143q3 -23 23 -23h23q192 0 292 140v23 q-93 128 -233 128l-70 -11h-35v-257zM680 501q0 -49 35 -128q280 62 280 210h12q0 87 -140 128l-187 -23v-187z" />
<glyph unicode="c" horiz-adv-x="1606" d="M67 676v94q0 478 268 793q282 210 584 210q361 0 513 -280l12 -58q-78 -362 -152 -362h-47q-59 0 -338 140q-61 12 -117 12q-131 0 -256 -374v-35q0 -194 210 -338q46 -35 151 -47q55 0 292 164q35 0 35 11q303 0 303 -140q-49 -272 -163 -385q-132 -116 -385 -116 q0 -12 -47 -12q-641 30 -641 175q-222 223 -222 548z" />
<glyph unicode="d" horiz-adv-x="1656" d="M142 210q0 35 12 81q11 623 11 992v327q0 140 304 186h81q123 0 490 -128q254 -123 397 -443q70 -145 70 -455q-64 -436 -198 -549q-456 -245 -677 -245q-42 0 -303 -46h-12q-175 150 -175 280zM609 443h11q327 83 327 198q23 0 47 210q0 200 -280 385q-22 0 -94 24v-12 q-11 -608 -11 -805z" />
<glyph unicode="e" horiz-adv-x="1546" d="M139 1621q0 187 245 187q172 -12 233 -23q73 11 514 23q338 -43 338 -222q0 -233 -175 -233h-502q-155 0 -186 -58v-59q0 -163 70 -163q280 23 396 23q86 0 94 -128v-93q0 -133 -315 -187q-199 -63 -199 -82v-81l12 -82h630q99 0 140 -70v-105q0 -49 12 -128 q0 -114 -269 -152h-23q-187 23 -350 23q-195 0 -525 -23q-105 0 -117 245l35 163q-58 994 -58 1225z" />
<glyph unicode="f" horiz-adv-x="1456" d="M109 1061v24l47 606q130 94 210 94l116 -12q588 47 724 47q105 0 245 -152q-24 -88 -24 -105q24 -110 24 -175v-12q-30 -58 -94 -58q-59 0 -443 35h-23q-76 0 -280 -58v-234q103 12 128 12q455 0 455 -257q0 -96 -70 -151q-74 0 -502 -35q-18 -584 -81 -584 q-56 -35 -175 -35h-117q-128 0 -128 152v233q0 137 11 280q-23 139 -23 385zM284 991l23 -11q-11 66 -11 186h-12v-175z" />
<glyph unicode="g" horiz-adv-x="1750" d="M87 898v222q0 342 222 560q137 140 595 140h46q387 0 642 -199l23 -35v-35q-111 -291 -245 -291h-81q-274 105 -432 105q-268 0 -268 -175q-12 0 -12 -70v-234q0 -455 350 -455h12q256 0 256 152q0 105 -70 105h-221q-140 0 -140 117v81q0 222 303 222q12 0 12 12l81 -12 h140q280 0 280 -152q12 -76 12 -151v-432q-63 -303 -163 -303q0 -52 -467 -117h-12q-351 0 -700 268q-163 169 -163 677z" />
<glyph unicode="h" horiz-adv-x="1869" d="M156 221q0 1505 58 1505q0 70 234 70h11q154 0 175 -151q-11 -159 -11 -222q0 -92 35 -210h140q385 0 385 58q11 61 11 117v268q0 117 210 117l140 12q128 0 152 -199l-58 -1085q11 -43 11 -105v-11q0 -230 -116 -280q-78 -56 -292 -82q-58 99 -58 140q23 236 23 420 q0 113 -47 152q-536 -38 -536 -70q-35 -124 -35 -187v-280q0 -126 -199 -175q-63 -12 -105 -12h-46q-82 51 -82 210z" />
<glyph unicode="i" horiz-adv-x="1642" d="M29 1703q51 93 887 93q30 0 315 12q338 0 338 -163v-105q-117 -164 -198 -164q-80 12 -129 12h-11q-205 -23 -210 -23v-12q-7 -140 -24 -140l12 -117v-105q0 -122 -12 -256q17 -269 59 -269q392 0 466 -256v-47q0 -152 -291 -152q-87 0 -677 12q-204 -12 -257 -12 q-233 67 -233 234q37 221 187 221q28 0 175 -11q79 11 128 11q12 437 12 584q0 315 -82 315q-408 42 -408 105q-47 193 -47 233z" />
<glyph unicode="j" horiz-adv-x="1591" d="M-26 571q39 129 222 129q198 0 198 -152q82 -154 175 -163l58 -24q234 0 304 199q0 20 23 70q0 67 -12 186q12 405 12 514l-12 373q31 82 117 82q315 0 315 -70q12 -8 23 -199l-11 -116q11 -84 11 -210l-11 -24q18 -152 35 -548q0 -364 -280 -572q-139 -70 -327 -70h-82 q-26 0 -46 -11q-465 0 -619 326q-61 55 -93 280z" />
<glyph unicode="k" horiz-adv-x="1863" d="M153 245v93q23 363 23 630q0 223 -23 700q0 101 140 117h128q222 0 222 -82v-163q0 -385 35 -385q82 0 700 525q17 0 128 70q292 -141 292 -234v-11q0 -98 -233 -245q-85 -100 -409 -339l-23 -35q630 -533 630 -630v-46q0 -54 -233 -175q-28 -30 -94 -59 q-112 55 -583 584l-175 93v-12l-12 -105q0 -67 12 -385q0 -128 -233 -128h-175q-117 0 -117 222z" />
<glyph unicode="l" horiz-adv-x="1606" d="M97 1516q55 269 175 269q373 -23 373 -140q12 0 12 -35v-479q0 -111 -12 -268l35 -338h537q268 0 268 -105q0 -29 82 -234v-35q0 -69 -245 -140h-852q-186 0 -268 210q-12 77 -12 152v117q0 756 -93 1026z" />
<glyph unicode="m" horiz-adv-x="2653" d="M150 245q9 1423 70 1423q0 62 338 82q355 0 374 -117q128 -209 385 -1120h11q257 986 315 1155q55 58 304 93h93q408 0 408 -280q-11 -35 -23 -536q23 -459 23 -689v-46q0 -199 -338 -199q-128 20 -128 117q11 601 11 887q0 36 -11 221q-40 0 -164 -455 q-243 -746 -326 -746q-62 -12 -117 -12h-198q-174 0 -222 327l-257 828h-23q-23 0 -35 -70q-12 -562 -12 -910v-12q0 -175 -245 -175h-105q-128 0 -128 234z" />
<glyph unicode="n" horiz-adv-x="1943" d="M149 396q0 1307 70 1307q0 32 362 58h11q269 0 269 -93q93 -140 478 -957h12q0 13 11 35l-58 875q60 175 175 175l70 12q154 0 198 -117q-11 -233 -11 -350v-431q0 -852 -70 -852q-24 -4 -24 -23q-215 -12 -315 -12h-46q-111 0 -327 502l-373 723h-12v-35 q47 -287 47 -455v-478q0 -245 -82 -245q-110 -24 -175 -24h-35q-152 0 -152 199q-23 0 -23 186z" />
<glyph unicode="o" horiz-adv-x="1966" d="M58 851v12q0 678 525 887q176 23 362 35q579 0 781 -502q82 -202 82 -420q0 -443 -397 -735q-254 -117 -513 -117q-567 0 -677 292q-163 236 -163 548zM525 921q0 -212 198 -396q115 -75 210 -82q270 0 397 315l11 117q0 324 -326 431h-117q-373 -80 -373 -385z" />
<glyph unicode="p" horiz-adv-x="1494" d="M132 1633q0 140 210 140q259 12 315 23q652 -23 770 -420l12 -105q0 -416 -467 -583q-362 -66 -362 -105l-11 -58q23 -278 23 -385q0 -136 -327 -152q-116 50 -116 128q0 91 11 164q0 76 -58 1353zM529 1306q14 -262 70 -303h46q249 0 362 198v12q0 191 -362 233 q-101 0 -116 -140z" />
<glyph unicode="q" horiz-adv-x="1978" d="M32 1026q0 240 303 572q269 187 642 187q576 0 770 -584q35 -195 35 -291q0 -293 -128 -537l210 -198q0 -173 -210 -245h-24q-122 54 -221 175h-12q-203 -105 -560 -105q-502 121 -502 198q-62 0 -198 280q-105 373 -105 548zM499 921q0 -319 315 -443h70q128 0 128 35 q-140 110 -140 198q122 222 233 222q27 0 187 -175l12 23v12q0 75 11 152q-66 315 -163 315q-49 50 -187 70h-105q-220 0 -350 -292q-11 -61 -11 -117z" />
<glyph unicode="r" horiz-adv-x="1759" d="M126 245v210q47 924 47 991q0 222 490 304q119 35 233 35q432 0 642 -397q46 -91 46 -210v-58q0 -231 -280 -339q-81 -58 -81 -70q144 -37 490 -408q23 -38 23 -70v-35q0 -109 -257 -210h-70q-96 0 -513 408q-141 105 -210 105q-35 -11 -35 -70v-280q0 -151 -140 -151 l-105 11q-147 -11 -175 -11q-90 0 -105 245zM616 1096q0 -105 105 -105q290 0 443 222v23q0 128 -326 152q-211 -59 -222 -105v-187z" />
<glyph unicode="s" horiz-adv-x="1455" d="M42 326q39 222 222 222h11q27 0 467 -210h35q117 66 117 152v11q0 134 -455 292q-280 216 -280 467v93q0 161 198 338q155 117 373 117h129q325 0 443 -245q12 -63 12 -105v-12q0 -114 -105 -175h-24q-304 117 -385 117h-70q-99 0 -140 -70q0 -123 432 -292 q268 -181 268 -501t-256 -502q-225 -58 -385 -58q-425 0 -595 291q0 9 -12 70z" />
<glyph unicode="t" horiz-adv-x="1661" d="M-11 1586q86 187 198 187q29 0 164 23q1155 0 1155 -81q128 -144 128 -280q0 -199 -397 -199q-198 0 -198 -81q-12 -20 -12 -59q0 -124 12 -175q-27 -910 -93 -910q-73 -23 -117 -23q-315 0 -315 245l47 933q0 70 -105 70q-42 0 -105 12q-198 -23 -234 -23 q-105 0 -128 361z" />
<glyph unicode="u" horiz-adv-x="1745" d="M123 1341q0 479 82 479q408 0 408 -105v-24q0 -102 -12 -828h-11l11 -23v-12q0 -362 117 -362q20 -11 47 -11h35q233 62 233 560q0 48 12 93q-12 144 -12 152q0 525 58 525q63 23 129 23q128 0 326 -105q0 -130 -23 -280q12 -435 12 -688q0 -234 -234 -584 q-170 -151 -478 -151h-23q-287 0 -432 151q-233 130 -233 572q-12 211 -12 618z" />
<glyph unicode="v" horiz-adv-x="1627" d="M8 1668q0 119 362 187q91 0 268 -537q93 -179 163 -443h12q63 0 163 396q47 122 140 467q79 70 105 70q339 -20 339 -128v-35q0 -43 -304 -934q0 -86 -175 -466q-19 -152 -81 -152q-259 -105 -315 -105h-47q-93 0 -222 268q0 78 -151 595q0 99 -234 735q-23 59 -23 82z " />
<glyph unicode="w" horiz-adv-x="2762" d="M31 1668v23q7 129 128 129q374 0 374 -245q70 -122 233 -689q23 -3 35 -70h23q234 721 315 922l47 35h140q73 0 175 12q223 0 292 -222q105 -556 221 -828h12q70 240 222 1038q58 58 140 58h151q187 0 187 -151q-67 -134 -128 -560q-82 -297 -187 -957q0 -72 -257 -140 h-303q-179 0 -303 630q-12 0 -105 303h-12q-117 -253 -280 -863q-38 -93 -187 -93h-70q-361 0 -361 116q-129 213 -432 1225z" />
<glyph unicode="x" horiz-adv-x="1992" d="M22 93v12q0 124 478 641q94 79 94 187q-48 121 -385 467q-105 83 -105 186v59q121 186 245 186h70q97 0 548 -560q155 129 373 432q55 105 175 105q350 -66 350 -140v-35q0 -68 -443 -595q-35 0 -58 -105q0 -62 443 -548q62 0 117 -210q0 -164 -304 -164q-245 0 -326 210 q-198 294 -292 397q-77 -147 -478 -560q-29 -23 -47 -23q-81 0 -303 -12q-152 23 -152 70z" />
<glyph unicode="y" horiz-adv-x="1668" d="M-3 1696q77 94 140 94h35q338 -35 338 -117q260 -337 362 -513h12q58 67 210 408q112 185 112 211q157 12 233 12q167 0 222 -93v-12q0 -84 -346 -806q-186 -216 -186 -514v-11q0 -94 11 -222q0 -67 -256 -175h-117q-143 0 -152 198v140q0 453 -163 654q-44 128 -432 641 q-23 76 -23 105z" />
<glyph unicode="z" horiz-adv-x="1749" d="M45 1493v47q0 245 82 245q43 11 105 11h35q209 0 408 12q262 -23 688 -35q87 23 117 23q152 0 152 -128v-175q0 -170 -654 -852l-151 -163q22 -12 35 -12q583 24 711 24q23 -12 35 -12v-373q0 -105 -163 -105q-750 11 -898 23q-57 -12 -152 -12q-280 14 -280 117v23 q0 327 93 397q146 172 420 432q237 283 327 361q-93 0 -222 24q-121 -12 -140 -12q-343 12 -466 12q-67 0 -82 128z" />
<glyph unicode="{" horiz-adv-x="1598" d="M60 700v23q0 180 455 478q19 13 58 490q101 304 304 304q116 0 490 -12l81 12q62 0 70 -117v-257q0 -62 -46 -81h-59q-61 0 -105 -12l-268 23q-23 -42 -23 -93v-210q0 -233 -82 -233q0 -9 -373 -304l-24 -35q0 -46 374 -210q70 0 116 -221q-23 -128 -23 -397v-23 q0 -32 23 -70l59 11q39 0 58 -11l105 11q245 -7 245 -23q23 -38 23 -70v-292q0 -81 -93 -81l-467 23q-22 -12 -35 -12q-128 0 -303 187q-58 104 -58 268v280q0 154 -129 199q-373 179 -373 455z" />
<glyph unicode="|" horiz-adv-x="642" d="M60 -490q23 326 23 420q-23 636 -23 886q0 179 23 385q-23 283 -23 549q58 35 93 35h164q42 0 105 11q116 0 116 -315q12 0 12 -128v-338q0 -27 12 -47q-12 -128 -24 -128q0 -12 12 -12q0 -110 -12 -222q12 -589 12 -1038q0 -257 -198 -257h-129q-125 0 -163 199z" />
<glyph unicode="}" horiz-adv-x="1505" d="M60 -385q0 151 93 151h70q99 0 292 -11q12 105 23 105l-11 58v93q0 269 70 269l373 326v35q-4 27 -222 129q-5 14 -163 93q-58 101 -58 187q0 118 23 396q-12 45 -12 94h-210q-26 0 -46 -12q-210 0 -210 70q-12 43 -12 105v23q0 269 58 269h35q619 0 619 -70 q186 -119 186 -409v-326q0 -91 187 -164q280 -203 280 -420q0 -207 -443 -525q0 -607 -199 -735q-66 -35 -116 -46l-432 23q-42 -12 -128 -12q-47 43 -47 175v129z" />
<glyph unicode="~" horiz-adv-x="1913" d="M60 921q0 245 397 327h233q70 0 432 -163l198 -35q58 0 327 128q127 0 186 -268v-35q0 -230 -420 -304h-58q-294 0 -537 164q-217 35 -256 35q-36 0 -304 -129h-11q-110 0 -187 280z" />
<glyph unicode="&#xa1;" horiz-adv-x="572" d="M60 233v187q23 463 23 501v234q0 256 164 256h11q222 -28 222 -105q12 -46 12 -81q-12 -722 -12 -817q-61 -350 -233 -350h-12q-175 43 -175 175zM72 1680v11q0 187 210 187q169 0 198 -175q0 -139 -140 -198q-41 -12 -47 -12q-221 53 -221 187z" />
<glyph unicode="&#xa2;" horiz-adv-x="1365" d="M60 676v140q0 48 12 94q-12 45 -12 93q0 438 490 642v198q0 17 35 35h198l59 -12q11 -137 11 -198q2 -17 152 -58q280 -121 280 -432q0 -63 -58 -70q-63 12 -105 12h-24q-26 0 -46 -12q-117 0 -117 140q0 54 -140 93h-58q-232 0 -327 -221v-12q0 -73 -12 -385 q0 -193 175 -280q79 -35 129 -35h35q198 31 198 117q0 93 82 93h221q28 0 35 -82q0 -312 -350 -431l-58 -12v-210q0 -35 -128 -35q-29 0 -175 12l-12 58v187q-254 80 -420 338q-37 51 -70 233z" />
<glyph unicode="&#xa3;" horiz-adv-x="1575" d="M60 851q0 175 47 175q19 12 58 12h152q-24 118 -35 222q0 318 385 490q78 23 280 46q304 0 536 -280h12q0 -81 -140 -140q-47 -58 -105 -58q-24 0 -222 128q-29 0 -93 12q-292 -44 -292 -245q0 -58 94 -187q9 0 280 12q48 -16 70 -58v-199q0 -58 -280 -58v-12 q0 -91 -94 -350l24 -11q432 11 618 11q94 0 117 -268q0 -82 -199 -82h-886q-117 0 -117 94v58q152 515 152 560q-350 0 -350 47q-12 46 -12 81z" />
<glyph unicode="&#xa4;" horiz-adv-x="1948" d="M60 140q86 131 315 315q-93 176 -93 373v58q0 78 58 245h-12q-267 272 -268 292q0 89 210 268l58 12q21 0 304 -280q134 58 256 58h140q98 0 280 -35q214 234 280 234q108 0 280 -222v-23q-58 -98 -268 -280q-35 -39 -35 -59q35 -168 35 -210v-140q0 -91 -58 -256 q303 -287 303 -350q-156 -242 -245 -245h-35q-17 0 -315 291q-164 -35 -210 -35h-163q-105 0 -199 35q-179 -195 -303 -291h-47q-80 0 -221 151q-47 49 -47 94zM632 828q0 -228 245 -315h105q256 67 256 257q0 12 12 35q-75 350 -303 350h-47q-167 0 -268 -269v-58z" />
<glyph unicode="&#xa8;" horiz-adv-x="721" d="M60 1263q0 13 14 26l71 72q13 12 25 12q11 0 27 -14l69 -73q10 -14 10 -25q0 -13 -12 -27l-69 -75q-17 -17 -25 -17q-14 0 -25 12l-76 86q-9 12 -9 23zM425 1263q0 13 14 26l71 72q13 12 25 12q11 0 27 -13l69 -74q10 -14 10 -25q0 -13 -12 -26l-69 -76q-17 -17 -25 -17 q-14 0 -25 12l-76 87q-9 11 -9 22z" />
<glyph unicode="&#xa9;" horiz-adv-x="1905" d="M88 793v58q0 489 478 677q155 32 327 47q445 0 677 -339q105 -205 105 -455v-140q0 -405 -490 -595q-140 -58 -315 -58q-478 0 -712 432q-70 205 -70 373zM345 828q0 -283 268 -478q121 -59 257 -59q368 0 513 385q12 45 12 94v23q0 336 -339 467q-109 23 -175 23 q-380 0 -525 -350l-11 -70v-35zM555 735q0 455 385 455q210 -30 210 -140v-12q0 -140 -94 -140q-85 43 -163 70q-70 0 -128 -163q47 -152 151 -152q144 70 164 70q105 -9 105 -35v-35q0 -198 -245 -198q-315 0 -315 116q-32 1 -70 164z" />
<glyph unicode="&#xab;" horiz-adv-x="2088" d="M60 968v23q0 195 268 397q557 280 595 280h47q70 -42 70 -210q0 -210 -70 -210l-443 -245l-12 -23q502 -353 502 -432q0 -26 11 -47q0 -212 -93 -245q-76 0 -525 327q-350 166 -350 385zM1028 968q0 136 187 292q207 105 490 315q146 93 187 93q105 0 105 -233 q0 -130 -304 -327q-51 -55 -210 -163q36 -43 514 -292q11 -189 11 -210q-27 -187 -81 -187h-24q-714 284 -805 479q-70 119 -70 233z" />
<glyph unicode="&#xac;" horiz-adv-x="1937" d="M60 1038v70q0 280 245 280q176 0 875 -23q25 0 128 11q549 -69 549 -338v-93q0 -560 -70 -560l-152 -105q-74 -24 -93 -24q-222 0 -222 374q0 245 -93 245q-27 0 -47 11q-172 -15 -187 -23q-80 12 -128 12h-198q-595 0 -595 81z" />
<glyph unicode="&#xad;" horiz-adv-x="1755" d="M102 851q0 304 70 304q85 11 105 23q383 -12 595 -12h432q151 0 151 -210v-81q0 -187 -93 -187q-58 0 -58 -12q-128 24 -397 24h-677q-128 0 -128 151z" />
<glyph unicode="&#xae;" horiz-adv-x="1108" d="M60 1341q0 382 408 455h117q308 0 420 -291q23 -43 23 -94v-116q0 -377 -443 -432h-105q-222 0 -373 292q-24 31 -47 186zM235 1283q71 -247 280 -257q0 -11 23 -11q228 0 315 245v105q0 123 -175 245l-116 35q-229 0 -327 -257v-105zM363 1155q12 297 12 350 q12 22 12 35h58q39 0 58 11q234 0 234 -163q0 -43 -82 -82l105 -128v-23q0 -29 -105 -35q-23 0 -152 163q0 -163 -93 -163q-47 17 -47 35z" />
<glyph unicode="&#xb0;" horiz-adv-x="1132" d="M60 1225v116q47 455 443 455q379 0 490 -245q59 -139 59 -256v-82q0 -192 -234 -373q-155 -59 -245 -59h-46q-374 18 -374 164q-93 111 -93 280zM328 1283q0 -163 187 -245h70q153 0 198 222v35q-50 221 -186 221h-70q-199 -54 -199 -186v-47z" />
<glyph unicode="&#xb1;" horiz-adv-x="1738" d="M60 140v11q0 234 82 234h23q145 0 642 -35q421 23 746 23q105 -66 105 -187q-44 -210 -128 -210l-163 -23q-233 12 -315 12q-128 0 -234 -12q-147 12 -361 12h-187q-210 0 -210 175zM95 1120v23q0 222 82 222q43 11 105 11h350v327q0 140 151 140h199q90 0 116 -58 q0 -130 -23 -420h222q67 0 186 11q140 -23 140 -116v-129q0 -116 -140 -116q-274 -12 -408 -12v-12q12 -152 12 -245v-116q-61 -94 -199 -94q-233 34 -233 82q-23 93 -23 198v187q-251 12 -374 12h-58q-105 0 -105 105z" />
<glyph unicode="&#xb2;" horiz-adv-x="793" d="M60 1108h12l-12 23q12 147 12 175q0 18 -12 164q0 55 93 81q199 -23 315 -23v93h-385q0 20 -23 70l12 47l-12 70q39 35 198 35h292q163 0 163 -93v-222q0 -12 -11 -12l11 -23v-140q0 -35 -245 -47q-45 12 -93 12h-70v-82h257q151 0 151 -93v-82q-6 -28 -81 -58 q-210 12 -222 23q-63 -11 -105 -11h-198q-35 0 -47 93z" />
<glyph unicode="&#xb4;" horiz-adv-x="601" d="M60 1078l291 297q35 35 55.5 47t40.5 12q33 0 53.5 -20t20.5 -51q0 -22 -15.5 -42t-46.5 -40l-330 -203h-69z" />
<glyph unicode="&#xb5;" horiz-adv-x="1972" d="M60 -362q23 418 23 467v338l12 70q-23 65 -23 362v746q0 126 70 210q408 -19 408 -93q0 -13 12 -35l-24 -852q0 -373 129 -373q0 -23 70 -23q126 0 221 303q0 178 24 408v24q0 66 -12 81q16 525 70 525q85 12 105 24q317 -40 350 -164q-12 -117 -35 -245q23 -233 23 -420 q-11 -555 -11 -630q70 -151 245 -151t175 -199v-58q0 -175 -269 -175q-331 0 -548 280q-101 -35 -257 -58l-58 11h-140l-58 12l-12 -58v-210q0 -49 12 -129q-74 -350 -280 -350q-222 0 -222 269v93z" />
<glyph unicode="&#xb6;" horiz-adv-x="2007" d="M60 1166q0 347 338 549q206 81 444 81q26 0 46 -11q361 11 572 11h280q146 0 175 -186q-12 -208 -12 -339v-163q24 -578 24 -653v-164q0 -204 -12 -326q12 -123 12 -327v-292q0 -46 -164 -58l-58 12q-82 -12 -140 -12q-93 0 -93 163l-35 245q0 9 11 70q0 156 -11 257 q11 373 11 432q-11 666 -11 921h-164v-361l12 -70q-12 -117 -23 -117q0 -12 11 -12q0 -133 -11 -245q11 -523 11 -945v-93q0 -245 -210 -245h-11q-210 7 -210 93q-38 0 -47 292q0 95 12 420l-24 455q-479 0 -595 233q-128 175 -128 385z" />
<glyph unicode="&#xb8;" horiz-adv-x="548" d="M60 -290q85 -52 152 -52q66 0 94.5 21.5t28.5 66.5t-49 64q-40 16 -102 16q-16 0 -34 -2l48 176h63l-37 -104q32 4 62 5q86 0 134 -40.5t48 -113.5q0 -76 -58.5 -120.5t-160.5 -44.5q-109 0 -189 32v96z" />
<glyph unicode="&#xbb;" horiz-adv-x="2088" d="M60 455v81q0 132 82 152q165 105 396 210l47 47q-361 248 -502 420l-11 81q0 185 81 222h24q68 0 548 -350q188 -51 292 -257q23 -76 23 -105q0 -322 -513 -536q-326 -164 -385 -164q-82 29 -82 199zM1028 1353v128q0 152 70 187h24q93 0 688 -327q198 -208 198 -361 q0 -175 -221 -327q-190 -100 -502 -327q-116 -70 -163 -70q-82 42 -82 245v12q0 113 257 268q94 106 256 199v11q-37 35 -385 210q-140 75 -140 152z" />
<glyph unicode="&#xbf;" horiz-adv-x="1458" d="M60 653q74 235 152 280q106 107 420 198q37 269 128 269q0 15 198 35q99 0 129 -234q-30 -326 -105 -326q-232 0 -479 -164q-46 -70 -46 -128v-23q0 -137 105 -164q81 -11 81 -23q260 0 339 222q66 70 175 70q106 0 221 -94v-11q0 -337 -466 -490q-109 -21 -269 -35 q-583 0 -583 618zM632 1668q0 131 116 187q21 11 47 11h12q210 -38 210 -175v-11q0 -175 -175 -175h-35q-175 0 -175 163z" />
<glyph unicode="&#xc0;" horiz-adv-x="1867" d="M60 70v35q0 36 280 1260q26 219 47 303q62 117 140 117q153 0 280 -12q380 23 443 23q198 0 198 -245q59 -307 257 -991q82 -358 82 -444q0 -140 -245 -140h-35q-160 0 -234 397q-65 152 -151 152q-221 0 -479 11q-74 -455 -105 -478q-155 -82 -233 -82q-245 70 -245 94z M480 2391q110 199 198 199h35q409 -371 409 -444q0 -104 -199 -233h-11q-80 52 -420 432q-12 20 -12 46zM772 1038q0 -77 128 -93q163 11 163 58v47q0 216 -140 245h-58q-55 0 -93 -257z" />
<glyph unicode="&#xc1;" horiz-adv-x="1867" d="M60 70v23q70 349 303 1353l12 82l-12 47q44 210 164 210q153 0 280 -12q380 23 443 23q210 0 210 -291q0 -65 245 -945q82 -339 82 -409v-46q0 -98 -199 -129h-58q-192 0 -245 374q-20 4 -82 163q-147 12 -548 23q-35 -118 -93 -455q0 -46 -257 -105q-245 70 -245 94z M293 385h12q47 180 47 186h-12q-47 -69 -47 -175v-11zM713 2100v11q0 70 234 245q175 205 198 210h12q77 0 210 -186v-24q-382 -443 -479 -443q-175 79 -175 187zM783 991q0 -23 129 -46q151 11 151 58v82q-26 210 -140 210h-23q-98 0 -117 -210v-94z" />
<glyph unicode="&#xc2;" horiz-adv-x="1867" d="M60 70v35q0 58 257 1178q46 175 46 245v82q50 175 152 175q176 0 292 -12q350 23 443 23q210 0 210 -338q0 -43 257 -957q70 -340 70 -385q0 -107 -210 -140h-70q-167 0 -234 385q-70 152 -116 152q-37 12 -514 23l-93 -466q-161 -94 -245 -94q-245 70 -245 94zM550 1971 q150 444 385 444q107 0 292 -304q9 0 70 -93v-58q-100 -24 -129 -24q-62 0 -233 234l-23 11q-132 -245 -187 -245h-82q-86 0 -93 35zM772 1026q0 -70 105 -70l23 -11q163 0 163 81q0 199 -105 257q-20 12 -46 12h-47q-64 0 -93 -269z" />
<glyph unicode="&#xc3;" horiz-adv-x="1867" d="M60 70v35q0 43 268 1201q35 137 47 350q80 129 152 129q153 0 280 -12q380 23 443 23q210 0 210 -291q0 -78 268 -1039q59 -271 59 -361q-23 -129 -245 -129h-35q-164 0 -222 374q-75 163 -128 163q-28 7 -502 23q-35 -84 -93 -455q0 -43 -257 -105q-245 70 -245 94z M293 385h12q35 120 35 175v11h-12q-35 -99 -35 -163v-23zM445 2146q33 187 257 187q125 0 361 -105h82q152 58 163 58h24q81 -70 81 -151q0 -150 -256 -175h-82q-32 0 -280 93l-70 12l-187 -70q-46 0 -93 151zM772 1038q0 -77 128 -93q163 11 163 58v82q-26 210 -151 210 h-47q-55 0 -93 -257z" />
<glyph unicode="&#xc4;" horiz-adv-x="1867" d="M60 70q58 356 280 1236q35 216 47 374q81 105 140 105q175 0 291 -12q351 23 444 23q198 0 198 -291q47 -235 257 -980q70 -304 70 -385v-35q0 -98 -199 -129h-58q-132 0 -187 152q-51 237 -151 385q-101 12 -537 23q-47 -190 -93 -466q-62 -50 -234 -94q-268 64 -268 94 zM293 385h12q47 180 47 186h-12q-47 -84 -47 -175v-11zM492 2088v47q29 175 163 175h12q198 -38 198 -164v-46q0 -104 -152 -152q-221 17 -221 140zM783 991q0 -26 140 -46q140 15 140 58v105q-31 187 -140 187h-23q-98 0 -117 -210v-94zM935 2146q0 175 222 175 q141 0 175 -140v-70q-50 -163 -164 -163h-11q-184 0 -222 198z" />
<glyph unicode="&#xc5;" horiz-adv-x="1878" d="M60 81v24q327 1350 327 1563q73 117 140 117q175 0 291 -12q351 23 444 23q210 0 210 -338q0 -47 245 -922q70 -319 81 -420q-27 -140 -256 -140h-24q-152 0 -210 280q0 91 -116 257q-92 12 -537 23q-47 -187 -82 -443q0 -58 -268 -117q-245 67 -245 105zM293 373h12 q47 153 47 198q-39 0 -59 -186v-12zM632 2111v24q40 373 303 373h58q234 -52 234 -292v-23q0 -158 -187 -280q-38 -23 -70 -23h-70q-191 0 -268 221zM783 991q0 -20 129 -46q163 11 163 70q0 250 -140 280h-35q-117 0 -117 -280v-24zM818 2170q0 -82 94 -82q96 0 128 140v12 q0 58 -58 81h-47q-53 0 -117 -151z" />
<glyph unicode="&#xc6;" horiz-adv-x="2893" d="M60 93v23q70 349 280 1237q35 168 35 222l-12 23q0 101 129 198h221q56 0 117 -11q16 11 432 23l116 -23l339 23q210 -23 210 -35q137 12 198 12h362q326 0 326 -82v-23q-28 -339 -105 -339q0 -39 -420 -46h-350q-15 0 -46 -70l11 -59v-35q37 0 117 -46l23 11h175 q199 0 199 -116v-47q0 -257 -222 -257h-222q-81 0 -81 -116q11 -96 23 -117q519 35 782 35q93 -30 93 -105q0 -315 -175 -315q-293 -58 -630 -70q-252 12 -350 23q-43 -11 -105 -11h-12q-168 0 -245 396q-18 4 -70 140l-548 24q-47 -190 -93 -455q-141 -105 -269 -105 q-99 0 -233 93zM293 408h12q47 181 47 187h-12q-47 -84 -47 -175v-12zM783 991q125 -23 164 -23h11q105 0 105 82v58q0 178 -151 210h-12q-91 0 -105 -175q-12 0 -12 -47v-105z" />
<glyph unicode="&#xc7;" horiz-adv-x="1692" d="M60 933q35 262 257 583q280 257 490 257h58q488 0 607 -105q70 -57 70 -70v-47q0 -32 -105 -291q-131 -47 -245 -59q-171 94 -199 94h-23q-229 0 -327 -362q0 -39 -11 -58q65 -327 291 -327q161 0 362 303l23 12h47q257 -89 257 -257q0 -421 -514 -595q-43 0 -105 -128 q-11 0 -11 -47q175 -90 175 -338q0 -219 -257 -315l-117 -12h-11q-225 0 -304 222v35q0 93 129 93q137 -116 186 -116h59q50 0 81 128q0 140 -210 140q-81 62 -81 117v11q0 41 116 199q-295 0 -583 420q-105 224 -105 513z" />
<glyph unicode="&#xc8;" d="M60 93q35 148 35 280q0 58 -12 140q35 337 35 642v23q0 58 -58 315q47 77 70 222q0 54 362 105h35q185 -47 221 -47q168 0 455 12q327 0 327 -117q-30 -373 -163 -373q-263 -24 -385 -24q-108 0 -304 12q-61 0 -70 -117q0 -74 140 -105q163 12 210 12q175 -21 175 -128 q0 -292 -151 -292q0 -12 -70 -12h-199q-93 0 -93 -70q-12 -19 -12 -58l12 -117l23 12q401 12 724 35q140 -23 140 -105q0 -250 -94 -315q-370 -82 -653 -82h-245q-184 0 -443 105zM480 2356v24q129 186 210 186q42 0 420 -420q0 -12 12 -35q-42 -137 -175 -221h-12 q-84 0 -397 373q-58 30 -58 93z" />
<glyph unicode="&#xc9;" horiz-adv-x="1598" d="M60 58v12q23 198 23 221v94q0 170 35 770q0 72 -58 291v24q49 213 82 268q194 82 361 82h12l210 -47q173 0 467 12q326 0 326 -105v-12q-19 -362 -140 -362q-155 -35 -408 -35q-81 0 -303 12q-59 -16 -59 -82v-70q0 -35 140 -70q159 12 199 12q159 0 186 -140v-12 q-28 -280 -175 -280h-256q-94 0 -94 -70q0 -26 -11 -46q23 -113 23 -129q12 0 12 12q393 12 735 35q71 0 128 -82v-46q0 -292 -117 -292q-310 -82 -630 -82h-221q-245 0 -467 117zM643 2065q0 65 292 303q0 30 152 163q74 0 210 -186v-24q-362 -443 -467 -443h-12 q-175 64 -175 187z" />
<glyph unicode="&#xca;" d="M60 93q35 148 35 280q0 58 -12 140q35 337 35 642v23q0 58 -58 315q47 77 70 222q0 54 362 105h35q185 -47 221 -47q156 0 444 12q338 0 338 -117q-30 -373 -163 -373q-263 -24 -385 -24q-108 0 -304 12q-61 0 -70 -117q0 -74 140 -105q163 12 210 12q175 -21 175 -128 q0 -292 -151 -292q0 -12 -70 -12h-199q-93 0 -93 -70q-12 -19 -12 -58l12 -117l23 12q401 12 724 35q140 -23 140 -105q0 -250 -94 -315q-370 -82 -653 -82h-245q-184 0 -443 105zM457 1948v23q155 409 373 409q121 0 338 -339q35 -11 35 -70q-11 -35 -70 -35h-58 q-70 0 -257 222q-26 -10 -105 -163q-46 -70 -105 -70h-11q-59 0 -140 23z" />
<glyph unicode="&#xcb;" d="M60 93q23 120 35 233l-12 140q35 467 35 724q0 35 -58 291l82 257q219 82 361 82h24q185 -47 221 -47q156 0 444 12q338 0 338 -129q-39 -338 -117 -338q0 -31 -431 -47q-108 0 -304 12q-70 -24 -70 -93q0 -98 117 -129h23q163 12 210 12q175 -23 175 -128 q0 -292 -151 -292q0 -12 -70 -12h-199q-105 0 -105 -105v-23q12 -102 12 -117l23 12q401 12 724 35q140 -19 140 -117q0 -326 -199 -326q-319 -59 -548 -59h-233q-208 0 -455 105zM422 2111v82q0 115 175 152q198 -53 198 -175v-12q0 -175 -210 -175q-163 28 -163 128z M865 2158v12q0 175 163 175q0 11 12 11q222 0 222 -151v-59q-48 -163 -164 -163h-23q-210 38 -210 175z" />
<glyph unicode="&#xcc;" d="M60 58v233q0 210 140 210h140q48 0 128 -11q105 0 105 163q12 158 12 222q0 408 -93 408h-35q-163 -12 -210 -12q-105 15 -105 105v140q0 42 -12 105q0 117 245 117h70q671 23 747 23h186q24 -5 47 -58q-12 -152 -12 -245v-12q0 -61 -58 -116h-198q-109 0 -140 -175 q-12 -177 -12 -327v-245q0 -28 362 -70q163 -53 163 -187v-46q-66 -208 -128 -210q-202 -47 -327 -59q-140 29 -140 35q-41 -11 -47 -11q-256 0 -746 -70q-82 23 -82 93zM398 2251v82q0 37 140 140h47q77 0 280 -233q19 0 175 -199v-23q0 -65 -187 -198h-23 q-170 189 -408 396z" />
<glyph unicode="&#xcd;" d="M60 58v233q0 210 140 210h140q48 0 128 -11q105 0 105 163q12 128 12 222q0 408 -93 408h-35q-159 -12 -199 -12q-116 12 -116 105v164l-12 70q0 128 233 128h82q671 23 747 23h186q19 0 47 -46v-47q0 -42 -12 -105q12 -23 12 -35q0 -134 -70 -198h-198 q-140 -27 -140 -199v-128q0 -136 -12 -432l408 -70q117 -63 117 -198v-12q0 -79 -105 -221q-314 -59 -350 -59q-140 29 -140 35l-47 -11q-264 0 -735 -70q-93 14 -93 93zM550 2053v12q0 60 292 303q126 163 163 163q59 0 198 -186v-24q-79 -146 -420 -431q-20 -12 -46 -12 h-12q-95 0 -175 175z" />
<glyph unicode="&#xce;" d="M60 58v233q0 210 140 210h140q48 0 128 -11q105 0 105 163q12 128 12 222q0 408 -93 408h-35q-159 -12 -199 -12q-116 12 -116 105v164l-12 70q0 128 233 128h82q671 23 747 23h186q19 0 47 -46v-47q0 -42 -12 -105q12 -23 12 -35q0 -142 -70 -198h-198 q-140 -27 -140 -199v-210q0 -116 -12 -350l408 -70q117 -63 117 -198v-12q0 -79 -105 -221q-314 -59 -350 -59q-140 29 -140 35l-47 -11q-264 0 -735 -70q-93 14 -93 93zM422 1971v12q164 420 338 420h58q101 0 304 -338q46 -19 46 -82q-11 -47 -70 -47h-58q-62 0 -257 234 q-29 -16 -128 -210q-40 -35 -117 -35q-116 8 -116 46z" />
<glyph unicode="&#xcf;" horiz-adv-x="1622" d="M60 11v47q0 373 117 373q0 12 23 12q258 -12 280 -12q82 0 82 47q20 78 35 362q0 373 -105 373h-245q-105 18 -105 93q0 42 11 105q-11 99 -11 164q0 105 361 105q177 0 735 23q180 0 199 -58q-8 -374 -70 -374h-140q-199 0 -199 -186q-11 -12 -11 -94v-490 q490 -48 490 -151q23 -40 35 -117q-66 -233 -152 -233l-303 -59q-82 35 -117 35q-243 0 -793 -70h-47q-70 35 -70 105zM375 1971v24q32 186 163 186h12q210 -35 210 -186q0 -134 -152 -164h-70q-163 16 -163 140zM830 1983v47q0 163 198 163q199 0 199 -175 q0 -155 -175 -198h-12q-160 0 -210 163z" />
<glyph unicode="&#xd0;" horiz-adv-x="2053" d="M60 1050l58 11q75 0 152 -11q89 11 198 11v12q12 196 12 303v257q0 101 163 187q284 11 327 11q570 -50 618 -151q385 -232 385 -654v-93q-20 -632 -291 -758q-81 -102 -549 -234q-110 -11 -210 -11h-93q-261 49 -373 175q0 36 23 163q-12 193 -12 292l12 81h-140 q-233 0 -233 82q-35 54 -47 327zM982 1061l23 12h152l58 -12q23 -294 23 -338q0 -58 -140 -58h-93v-199q0 -22 35 -93q204 0 408 338q47 137 47 175q0 296 -420 432q-93 0 -93 -128v-129z" />
<glyph unicode="&#xd1;" horiz-adv-x="1715" d="M60 1493v82q0 130 280 175h47q159 0 373 -292q362 -747 420 -817h12q23 48 23 70l-35 922q37 128 128 128h70q59 0 175 -11q59 -325 59 -525v-199q0 -122 -12 -256l35 -467q0 -303 -117 -303l-81 11q-163 -11 -210 -11q-292 54 -292 151q-105 215 -350 829l-47 35 q-35 0 -35 -117q0 -424 35 -770q0 -117 -163 -117q0 -23 -105 -23q-163 23 -163 58q0 654 -47 1447zM352 2111q0 137 245 175q127 0 338 -93q82 -8 82 -23l198 70h12q81 -58 81 -129v-23q0 -175 -245 -175h-81q-38 0 -280 93l-82 12q-148 -70 -175 -70q-93 43 -93 163z" />
<glyph unicode="&#xd2;" horiz-adv-x="1820" d="M60 805q0 356 187 653q252 280 396 280q52 12 187 12h58q567 0 794 -595q58 -168 58 -327q0 -417 -385 -677q-277 -140 -513 -140q-466 0 -607 269q-175 296 -175 525zM422 2310q0 64 163 210q20 11 47 11h23q252 -212 408 -420v-35q0 -118 -198 -221h-12 q-181 154 -431 455zM480 875q0 -352 408 -409q292 0 385 350q12 80 12 129q0 154 -257 326l-128 35q-302 0 -408 -303l-12 -82v-46z" />
<glyph unicode="&#xd3;" horiz-adv-x="1820" d="M60 793v23q0 410 233 700q225 222 350 222q52 12 187 12h58q565 0 794 -595q35 -72 58 -327q0 -413 -373 -665q-285 -152 -490 -152h-12q-477 0 -607 234q-198 306 -198 548zM468 886q0 -171 175 -350q103 -46 245 -70q286 0 385 350q0 10 12 94q0 255 -338 385 q-27 0 -47 11q-284 0 -397 -268q-35 -133 -35 -152zM667 2006v24q0 78 198 221q0 16 245 245q76 0 198 -175l12 -23q-55 -107 -315 -350q-86 -105 -163 -105q-87 0 -175 163z" />
<glyph unicode="&#xd4;" horiz-adv-x="1808" d="M60 758v82q0 628 525 898q130 12 233 12h82q575 0 805 -677q23 -131 23 -198q0 -649 -665 -840q-132 -24 -186 -24h-35q-492 0 -607 269q-175 261 -175 478zM468 886q0 -303 315 -408q48 0 94 -12q339 0 396 432v12q0 279 -373 396q-297 0 -385 -245q-47 -85 -47 -151 v-24zM515 1890v11q166 409 338 409h59q101 0 303 -304q8 0 47 -58v-58l-59 -12h-105q-14 0 -221 222q-124 -234 -199 -234h-58q-29 0 -105 24z" />
<glyph unicode="&#xd5;" horiz-adv-x="1820" d="M60 875q75 490 210 606q241 257 373 257q52 12 187 12h82q581 0 805 -689q23 -132 23 -186q0 -666 -688 -840q-88 -24 -164 -24h-35q-466 0 -583 234q-210 271 -210 630zM422 2030v11q29 164 256 164h70q48 0 304 -105h58q18 0 175 70q58 0 93 -140v-35 q-36 -164 -256 -164q-117 0 -327 94q-43 11 -105 11q-152 -58 -163 -58h-24q-81 55 -81 152zM480 851q0 -185 198 -326q83 -40 210 -59q272 0 374 304q23 52 23 151v12q0 240 -373 373q-306 0 -409 -280q-23 -81 -23 -140v-35z" />
<glyph unicode="&#xd6;" horiz-adv-x="1820" d="M60 805q0 356 187 653q252 280 396 280q52 12 187 12h58q570 0 794 -595q58 -175 58 -304q0 -584 -607 -793q-142 -47 -291 -47q-464 0 -595 257q-187 292 -187 537zM480 875q0 -352 408 -409q283 0 385 339l12 116q-31 291 -385 385q-299 0 -408 -303l-12 -82v-46z M480 2006v70q41 152 152 152h23q198 -35 198 -163v-24q0 -163 -163 -163h-47q-163 18 -163 128zM923 2053q0 187 210 187h12q150 0 175 -140v-47q0 -122 -128 -175q-21 -12 -47 -12q-173 0 -222 187z" />
<glyph unicode="&#xd8;" horiz-adv-x="2123" d="M60 128q0 82 210 233q0 15 105 105q-82 171 -82 339q0 356 187 653q252 280 397 280q62 12 221 12h12q274 0 432 -105q202 221 268 221h12q110 0 221 -186q0 -54 -256 -269v-11q186 -268 186 -572q0 -425 -385 -677q-289 -140 -466 -140h-35q-422 0 -549 175 q-217 -245 -303 -245q-175 76 -175 187zM713 828q135 118 199 128q0 40 233 234l82 93q-94 8 -94 23l-23 -11h-82q-148 0 -280 -234q-35 -105 -35 -140v-93zM912 525q113 -59 221 -59q268 0 374 339q11 82 11 140l-35 128h-23q0 -40 -303 -303q-14 0 -164 -175 q-36 0 -81 -70z" />
<glyph unicode="&#xd9;" d="M60 1096q0 665 58 665q28 19 94 35q303 -18 303 -105q12 -19 12 -58q0 -46 -24 -315q44 -840 117 -840q50 -20 152 -35q191 0 280 222l11 58q12 532 12 852v58q0 158 152 198q280 -48 280 -116q23 0 23 -117v-12q-33 -1178 -93 -1178q-29 -114 -175 -292 q-145 -116 -385 -116h-94q-538 0 -676 385q-47 127 -47 711zM340 2333q123 210 222 210q41 0 408 -408q12 -21 12 -47q0 -102 -175 -222h-24q-51 0 -245 234q-198 186 -198 233z" />
<glyph unicode="&#xda;" horiz-adv-x="1622" d="M60 1061q0 60 12 584q25 151 140 151q303 -23 303 -93q12 -19 12 -58q0 -135 -24 -304q43 -810 105 -851q7 -25 164 -47q122 0 233 117q58 117 58 151q12 532 12 817v70q19 233 152 233q303 -31 303 -175q0 -140 12 -140l-35 -443q0 -12 11 -35q-41 -665 -93 -665 q-129 -373 -548 -373h-105q-453 0 -630 303q-82 130 -82 758zM573 2030v58q0 66 234 245q171 210 221 210q187 -131 187 -198v-12q-80 -147 -420 -432q-20 -11 -47 -11q-86 0 -175 140z" />
<glyph unicode="&#xdb;" horiz-adv-x="1622" d="M60 1050q0 723 70 723q23 0 82 23q315 -17 315 -116v-35q0 -149 -24 -304q39 -592 82 -828q26 -47 187 -70q208 0 291 245q12 516 12 805v105q23 233 152 233q303 -31 303 -175q0 -42 12 -105q-24 -392 -35 -490l11 -23q-38 -665 -93 -665q-147 -315 -268 -315 q-29 -47 -280 -58h-105q-538 0 -677 420q-35 378 -35 630zM445 1948q158 408 373 408q122 0 292 -280q17 0 82 -93v-35q-12 -35 -70 -35h-59q-78 0 -233 210l-23 12l-152 -222l-58 -12h-12q-140 0 -140 47z" />
<glyph unicode="&#xdc;" d="M60 1015v245q0 513 70 513l82 23q303 -22 303 -105l12 -58q-24 -234 -24 -303q39 -826 105 -852l164 -35q126 0 245 140q46 115 46 210q0 35 -11 82q23 181 23 478v292q0 142 140 186q292 -42 292 -128q23 0 23 -128q-40 -1155 -93 -1155q-77 -235 -257 -362 q-150 -58 -327 -58h-70q-441 0 -618 256q-105 85 -105 759zM363 2100v23q32 187 164 187h11q210 -35 210 -187q0 -134 -151 -163h-70q-164 15 -164 140zM818 2111v47q0 163 199 163q198 0 198 -175q0 -154 -175 -198h-12q-160 0 -210 163z" />
<glyph unicode="&#xdd;" horiz-adv-x="1715" d="M60 1680v11q0 78 268 129q42 0 105 11q110 0 222 -361q109 -253 163 -350h12q85 0 338 490q94 233 152 233h35q234 0 280 -152q0 -26 -187 -455q-62 -258 -221 -396q-175 -111 -175 -210q35 -443 35 -537q-175 -93 -245 -93h-70q-120 0 -175 140q0 76 11 443 q0 128 -186 233q-362 776 -362 864zM667 2076v59l431 420h12q64 0 198 -164v-46q-358 -444 -478 -444q-163 90 -163 175z" />
<glyph unicode="&#xde;" horiz-adv-x="1447" d="M60 1470q8 373 70 373q104 58 350 58l12 -23v-105l-12 -82h187q340 0 583 -210q117 -135 117 -256q0 -408 -467 -560q-362 -55 -362 -105q-11 -23 -11 -35q0 -28 23 -362q0 -135 -315 -152q-128 27 -128 129q0 70 11 210l-23 175l12 105q-47 687 -47 840zM480 1096 q0 -22 23 -140h70q219 0 350 164v35q0 168 -291 210h-105q-47 0 -47 -269z" />
<glyph unicode="&#xdf;" horiz-adv-x="1575" d="M60 151v35q4 199 23 199q-8 26 -23 151q0 59 12 175q-12 524 -12 1015q0 129 233 129h374q417 0 618 -315q23 -32 35 -152q0 -129 -117 -292l-11 -70q0 -92 163 -163q140 -179 140 -350q0 -309 -292 -478q-109 -24 -175 -24h-58q-373 29 -373 187q0 163 151 163 q108 -35 245 -35h24q89 0 116 129v11q0 135 -186 257q-105 127 -105 280q0 83 81 292v46q0 147 -361 210q-105 -35 -105 -128q-12 -15 -12 -82v-11q0 -81 47 -339v-23q0 -91 -12 -163q12 -164 23 -164l-11 -58v-93q0 -108 11 -304q-49 -151 -210 -151h-116q-117 23 -117 116 z" />
<glyph unicode="&#xe0;" horiz-adv-x="1832" d="M60 221v12q0 95 420 1400q0 82 420 152q32 29 117 35h23q138 0 315 -117q292 -765 292 -1097q35 -214 105 -408q0 -164 -292 -210h-23q-245 26 -245 117q11 103 11 128q-26 303 -58 303q-572 -70 -572 -128q-95 -397 -210 -397q-69 -46 -221 -70h-12q-70 39 -70 280z M445 2368q124 198 233 198q409 -376 409 -455q0 -97 -175 -221q-87 0 -409 385q-58 29 -58 93zM772 1003l23 -58l23 11h94l140 12v47q0 151 -129 385h-11q-63 -72 -140 -397z" />
<glyph unicode="&#xe1;" horiz-adv-x="1832" d="M60 268q373 1233 432 1377q62 81 385 140q110 35 140 35h58q315 -60 315 -210q252 -641 257 -969q35 -204 105 -455v-23q0 -115 -280 -175h-59q-210 27 -210 128v117q0 80 -35 303q-595 -70 -595 -128q-81 -397 -210 -397q0 -23 -210 -70h-11q-82 42 -82 327zM737 2076 v59q0 24 245 221q0 33 186 199h12q76 0 198 -175v-35q-361 -444 -478 -444q-163 81 -163 175zM772 1015q23 -48 23 -70l58 11h70l140 12q0 205 -140 432h-11q-59 -105 -140 -385z" />
<glyph unicode="&#xe2;" horiz-adv-x="1832" d="M60 221v35q362 1277 455 1424q167 81 385 105q32 29 117 35h23q138 0 315 -117q292 -759 292 -1097q35 -214 105 -408q0 -155 -269 -210h-46q-245 26 -245 117q11 103 11 128q-26 303 -58 303q-572 -70 -572 -128q-95 -397 -210 -397q-69 -46 -221 -70h-12 q-70 39 -70 280zM573 1971v12q164 397 339 397h58q98 0 315 -327q35 -12 35 -70q0 -32 -117 -47q-85 0 -256 234q-28 0 -129 -187q-49 -47 -93 -47h-23q-129 0 -129 35zM772 1003l23 -58l23 11h94l140 12v47q0 151 -129 385h-11q-63 -72 -140 -397z" />
<glyph unicode="&#xe3;" horiz-adv-x="1832" d="M60 256q397 1333 443 1400q0 56 444 140q0 21 58 24h70q96 0 292 -117q291 -789 291 -1143q94 -351 94 -397v-23q0 -68 -245 -152h-94q-210 27 -210 128v24q0 48 12 93l-47 303q-595 -70 -595 -128q-80 -408 -221 -408q-148 -59 -199 -59h-11q-65 0 -82 315zM480 2123v35 q0 123 222 163h116q253 -105 374 -105q105 59 140 59h23q82 -47 82 -164q-47 -163 -234 -163h-93q-44 0 -268 93q-41 12 -117 12q-141 -70 -152 -70q-58 0 -93 140zM783 1003l12 -58l58 11h70l140 12q0 210 -140 432h-11q-82 -146 -129 -397z" />
<glyph unicode="&#xe4;" horiz-adv-x="1832" d="M60 198q140 536 432 1412q0 55 233 116l303 70h12q338 -54 338 -163q280 -729 280 -1085q0 -22 94 -373v-35q0 -124 -280 -175h-70q-199 31 -199 116v12q0 48 12 128l-47 292q-595 -70 -595 -140q-79 -408 -245 -408q-113 -47 -163 -47h-23q-56 0 -82 280zM538 2065v70 q41 151 152 151h23q199 -35 199 -163v-47q0 -124 -164 -140h-46q-164 19 -164 129zM783 980l12 -59l140 12h70q58 0 58 23q0 204 -140 420h-11q-82 -165 -129 -396zM982 2123q0 175 186 175q210 0 210 -140v-70q0 -134 -198 -163q-198 51 -198 198z" />
<glyph unicode="&#xe5;" horiz-adv-x="1832" d="M60 175v58q0 26 397 1318q0 121 350 199q62 0 198 46h58q327 -66 327 -210q268 -708 268 -1096l94 -327q0 -143 -269 -198h-105q-186 40 -186 128l11 58v35q0 126 -46 327q-584 -73 -584 -128q-85 -397 -210 -397q0 -23 -210 -70h-23q-52 0 -70 257zM690 2111v35 q0 331 327 374h23q139 -35 187 -117q58 -66 58 -222q-91 -291 -280 -291q-247 0 -315 221zM772 980l23 -59l117 12h81l59 12v81q-6 102 -117 339l-23 11q-59 -72 -140 -396zM877 2158q7 -58 70 -58h35q102 0 116 163q-16 58 -81 58h-35q-105 -74 -105 -163z" />
<glyph unicode="&#xe6;" horiz-adv-x="2625" d="M60 245q140 524 432 1400q56 77 315 128q36 0 210 47h58q47 0 198 -59q149 35 164 35q232 -11 408 -11q175 0 327 23q373 -56 373 -222q0 -245 -198 -245h-490q-175 -12 -175 -46v-70q0 -152 46 -152q27 0 47 -12q149 24 373 24q86 0 94 -129v-70q0 -158 -327 -210 q-182 -55 -187 -81v-94q0 -70 94 -70h443l70 12q118 0 175 -82v-151q0 -27 12 -47q0 -141 -199 -175q-408 12 -525 12l-396 -12l-24 -12q-175 51 -175 140v117q0 75 -35 303q-595 -67 -595 -128q-77 -420 -268 -420q-81 -47 -175 -47q-70 87 -70 304zM772 1015 q23 -48 23 -70l23 11h70q59 0 175 12q0 205 -140 432q-61 -58 -151 -385z" />
<glyph unicode="&#xe7;" horiz-adv-x="1598" d="M60 665q0 827 513 1026q199 70 350 70q332 0 502 -268q12 -46 12 -82q-59 -350 -175 -350h-47q-91 28 -315 140q-80 12 -128 12q-98 0 -234 -338q0 -53 -11 -70q0 -180 210 -339q53 -38 151 -46q82 0 269 151l70 12q291 0 291 -117v-11q0 -66 -70 -257 q-115 -233 -373 -233q-93 0 -175 -199q-23 -3 -23 -23q157 0 198 -350q0 -279 -385 -315h-12q-203 0 -291 210v47q0 93 128 93q135 -118 198 -128q129 30 129 140q0 120 -187 140q-79 0 -105 116v12q0 42 152 245v12h-35q-330 0 -432 210q-175 210 -175 490z" />
<glyph unicode="&#xe8;" horiz-adv-x="1458" d="M60 1400v233q0 112 198 140h35q222 -12 234 -23q72 11 513 23q327 -62 327 -152l11 -70q0 -221 -128 -221q0 -12 -47 -12h-501q-187 0 -187 -93v-47q0 -140 70 -140q281 23 397 23q75 0 93 -105v-105q0 -146 -268 -186q-245 -70 -245 -105v-12l11 -140h630q50 0 140 -47 q12 -258 12 -280q0 -90 -292 -128q-174 23 -361 23q-168 0 -514 -23q-105 0 -105 268v12q0 41 35 140q-58 669 -58 1027zM398 2298v23q0 73 164 187q20 12 46 12q226 -250 409 -397l23 -35v-47q0 -113 -175 -175h-12q-100 0 -455 432z" />
<glyph unicode="&#xe9;" horiz-adv-x="1470" d="M60 1575q0 186 198 186q20 12 59 12q58 0 221 -23q73 11 514 23q338 -43 338 -222q0 -233 -175 -233h-502q-186 0 -186 -93v-24q0 -163 70 -163q280 23 396 23q86 0 94 -128v-93q0 -133 -315 -187q-199 -63 -199 -82v-81l12 -82h630q99 0 140 -70v-58q0 -68 12 -187 q0 -104 -292 -140q-187 23 -350 23q-195 0 -525 -23q-102 0 -117 245q35 136 35 163q-58 1015 -58 1214zM398 2053q0 65 292 303q0 34 152 164q74 0 210 -187v-23q-361 -444 -467 -444h-12q-175 64 -175 187z" />
<glyph unicode="&#xea;" horiz-adv-x="1470" d="M60 1586q0 175 210 175q0 12 35 12q222 -12 233 -23q73 11 514 23q338 -43 338 -222v-11q0 -222 -175 -222h-502q-186 0 -186 -93v-35q0 -152 70 -152q280 23 396 23q75 0 94 -105v-105q0 -146 -269 -186q-245 -70 -245 -94v-46l12 -117h630q99 0 140 -70v-23 q0 -94 12 -222q0 -109 -292 -140q-187 23 -350 23q-195 0 -525 -23q-105 0 -105 210v70q0 13 23 128q-58 1070 -58 1225zM398 1901q144 409 397 409q97 -5 350 -374v-35q0 -35 -128 -35q-63 0 -257 222q-26 -10 -105 -163q-54 -70 -117 -70q-140 11 -140 46z" />
<glyph unicode="&#xeb;" horiz-adv-x="1458" d="M60 1458v117q0 186 175 186q9 0 70 12q210 -12 222 -23q64 11 525 23q303 -63 303 -128q23 0 23 -82v-35q0 -210 -163 -210h-513q-70 0 -175 -35v-12q0 -48 -12 -93q0 -140 82 -140h11q246 23 385 23q59 0 94 -116q0 -222 -105 -222q-46 -31 -397 -128q-23 -38 -23 -59 q9 -128 35 -128h606q140 0 140 -105q12 -36 12 -140v-58q-32 -152 -292 -152q-174 23 -361 23q-168 0 -514 -23q-105 0 -105 292q35 110 35 116q-58 803 -58 1097zM293 2041q0 129 117 187q20 12 47 12h11q210 -35 210 -187q-12 -163 -163 -163v-12q-222 0 -222 163z M748 2065v35q0 151 210 151q187 0 187 -175q0 -134 -128 -186q-21 -12 -47 -12h-12q-210 35 -210 187z" />
<glyph unicode="&#xec;" horiz-adv-x="1680" d="M60 1703q144 93 688 93h595q206 0 245 -105l12 -116v-12q-69 -187 -222 -187h-128q-198 0 -198 -46q-12 -89 -24 -117l12 -163q0 -94 -12 -339q0 -40 35 -256h59q367 0 431 -257v-35q0 -163 -350 -163q-65 0 -466 23q-217 -12 -385 -12q-257 35 -257 234q35 210 163 210 h199q128 0 128 46q12 405 12 514q0 350 -94 350q-396 31 -396 105q-47 172 -47 233zM433 2356q0 59 187 199h23q22 0 280 -280q164 -98 164 -175v-12q0 -121 -187 -187q-56 0 -245 199q-120 104 -222 256z" />
<glyph unicode="&#xed;" horiz-adv-x="1680" d="M60 1691q65 105 700 105h583q245 -14 245 -116l12 -117v-23q-105 -164 -222 -164h-163q-175 0 -175 -70l-12 -105q0 -52 12 -151q-12 -184 -12 -350q0 -87 35 -245h47q376 0 432 -245q11 -21 11 -47q0 -163 -350 -163q-65 0 -466 23q-231 -12 -409 -12q-210 0 -233 269 q0 89 128 175h234l116 11q24 393 24 525q0 374 -94 374q-396 31 -396 105q-47 138 -47 221zM620 2088q0 82 198 222q226 245 245 245q81 0 210 -187v-12q-361 -455 -478 -455q-175 76 -175 187z" />
<glyph unicode="&#xee;" horiz-adv-x="1692" d="M60 1691q0 75 583 105h677q268 0 268 -128q17 0 24 -117q-75 -175 -280 -175q-280 0 -280 -58q-12 -77 -12 -152v-466q0 -124 35 -245h47q431 0 431 -304q0 -151 -338 -151q-89 0 -467 23q-231 -12 -408 -12q-233 40 -233 222v35q37 187 151 187h210l117 11 q12 296 12 432v140q0 327 -82 327q-397 35 -397 93q-11 19 -58 233zM468 1936v12q159 408 362 408h35q102 0 303 -303q8 0 47 -58v-59q-88 -11 -117 -23q-74 0 -245 222l-23 11q-124 -233 -198 -233h-59q-29 0 -105 23z" />
<glyph unicode="&#xef;" horiz-adv-x="1668" d="M60 1703q101 93 677 93h571q280 0 280 -175v-58q-65 -187 -221 -187h-129q-198 0 -198 -46q-12 -104 -23 -129q11 -80 11 -128v-82q0 -122 -11 -256q20 -280 58 -280h35q370 0 432 -257v-47q0 -140 -350 -151q-66 0 -467 23q-217 -12 -385 -12q-245 32 -245 210v70 q38 164 152 164h186l140 11q12 434 12 572q-15 315 -58 315q-151 35 -385 58q-82 72 -82 292zM398 2076q33 199 175 199q210 -47 210 -187q0 -175 -210 -175q-175 27 -175 163zM853 2076v59q0 109 164 151q233 0 233 -198q-45 -175 -163 -175h-47q-187 50 -187 163z" />
<glyph unicode="&#xf0;" horiz-adv-x="1867" d="M60 676v35q0 277 373 549q229 93 455 93h140q-36 124 -151 222q-40 -38 -175 -117q-128 0 -245 163v12l151 152v11q-117 35 -163 35l-23 -11q-133 0 -175 163l-24 152q0 186 245 186q446 -154 514 -198h11q242 233 292 233q52 0 210 -175v-23q-115 -135 -257 -245 q379 -523 444 -898q105 -130 105 -432q0 -472 -409 -688q-136 -70 -315 -70q-597 0 -735 151q-268 226 -268 700zM515 560q0 -160 222 -292q57 -35 151 -35h35q397 50 397 338q0 277 -327 397q-43 12 -105 12q-373 -73 -373 -362v-58z" />
<glyph unicode="&#xf1;" horiz-adv-x="1738" d="M60 443q0 35 12 35l-12 47q0 1166 82 1166q0 31 408 59q222 0 222 -94q111 -178 490 -968h11v23l-46 922q0 66 116 140l82 12h82q101 0 151 -94q-8 -1645 -58 -1645q-71 -35 -210 -35h-233q-98 74 -304 525q-291 584 -373 689v-12q58 -367 58 -513q-11 -409 -11 -560 q0 -140 -210 -140h-105q-105 0 -105 105q-47 117 -47 338zM457 2076q0 147 210 175h140q275 -105 338 -105q148 70 175 70q58 0 93 -140v-23q0 -129 -210 -163h-128q-32 0 -280 93l-58 12l-187 -70h-12q-81 50 -81 151z" />
<glyph unicode="&#xf2;" horiz-adv-x="1878" d="M60 863v128q0 416 373 712q192 93 444 93q550 0 700 -233q131 -111 210 -595q11 -77 11 -152v-11q0 -346 -373 -654q-292 -128 -525 -128q-525 0 -688 292q-152 261 -152 548zM515 2321v12q0 96 198 198h12q166 -170 432 -420v-58q0 -113 -175 -175h-24 q-214 143 -443 443zM527 933q0 -327 350 -467h93q206 0 350 280l23 129q0 344 -338 455h-47q-431 -49 -431 -397z" />
<glyph unicode="&#xf3;" horiz-adv-x="1878" d="M60 851v82q0 611 513 828q133 24 304 35q526 0 665 -198q198 -213 198 -420q25 0 58 -350v-35q0 -333 -373 -642q-291 -128 -525 -128q-523 0 -677 280q-163 263 -163 548zM527 945q0 -264 245 -432q50 -47 186 -47h12q239 0 362 327l11 82q0 344 -338 455h-47 q-431 -56 -431 -385zM772 2053v23q0 69 221 234q192 218 210 221h12q64 0 198 -163v-47q-330 -416 -466 -443q-108 0 -175 175z" />
<glyph unicode="&#xf4;" horiz-adv-x="1878" d="M60 875v70q0 549 467 805q154 35 350 46q616 0 746 -303q70 -56 140 -373q35 -206 35 -292v-35q0 -333 -373 -642q-291 -128 -525 -128q-543 0 -700 315q-140 253 -140 537zM527 945q0 -262 245 -432q50 -47 186 -47h12q239 0 362 327q0 10 11 93q0 329 -338 444h-47 q-431 -58 -431 -385zM550 1936q157 420 373 420q137 0 315 -291q21 -4 70 -94q0 -58 -140 -58q-54 0 -256 233q-100 -197 -164 -233h-151q-29 23 -47 23z" />
<glyph unicode="&#xf5;" horiz-adv-x="1890" d="M60 910q0 606 490 840q100 35 338 46q582 0 724 -280q105 -94 163 -455q23 -116 35 -280q-16 -265 -292 -560q-270 -198 -606 -198q-570 0 -700 315q-152 248 -152 572zM457 2076q0 175 245 175h93q53 0 257 -93q29 0 93 -12q148 70 175 70q58 0 93 -140v-11 q0 -147 -210 -175h-128q-32 0 -280 93l-58 12l-187 -70h-12q-81 54 -81 151zM538 921q78 -455 409 -455q274 0 396 339v93q0 296 -291 420q-47 12 -82 12q-296 0 -420 -269q-12 -63 -12 -105v-35z" />
<glyph unicode="&#xf6;" horiz-adv-x="1890" d="M60 910q0 603 490 840q107 35 338 46q590 0 735 -291q77 -71 152 -409q35 -278 35 -315q0 -248 -292 -560q-264 -198 -606 -198q-583 0 -700 327q-152 230 -152 560zM515 2076v47q0 105 163 163q210 -50 210 -175v-23q0 -163 -198 -163h-12q-163 0 -163 151zM538 945 q0 -357 350 -479h59q280 0 396 339v116q0 286 -326 409h-47q-297 0 -408 -257q-24 -46 -24 -128zM958 2111q0 175 210 175h12q175 -19 175 -140v-70q0 -114 -175 -163q-175 0 -222 198z" />
<glyph unicode="&#xf8;" horiz-adv-x="2112" d="M60 128v35q0 69 222 222q0 12 11 35q-105 233 -105 501q0 539 432 805q176 70 397 70q399 0 548 -105q109 121 222 199h11q115 0 234 -187v-12q-4 -50 -234 -256q85 -110 140 -665q0 -170 -210 -467q-264 -280 -688 -280q-337 0 -560 128q-157 -186 -233 -186h-24 q-102 0 -163 163zM667 898l11 -82q164 152 222 152q0 -12 12 -12q0 90 198 210q0 13 117 140q-83 24 -129 24q-361 0 -431 -350v-82zM888 513q105 -47 187 -47q286 0 397 350v105q0 59 -24 140q-235 -235 -361 -326q-16 -59 -140 -152q-59 -48 -59 -58v-12z" />
<glyph unicode="&#xf9;" horiz-adv-x="1563" d="M60 933v630q0 229 82 268q408 0 408 -116v-12q0 -262 -23 -840q0 -373 105 -373q0 -12 93 -35q137 0 222 315l11 70q-11 64 -11 93q18 175 35 175l-12 140q0 548 58 548q99 24 117 24q300 -35 338 -152q-23 -207 -23 -245q0 -94 12 -688q0 -239 -257 -595 q-188 -129 -432 -129h-81q-296 0 -502 245q-140 87 -140 677zM410 2380v46q145 175 210 175q198 -213 420 -408q12 -21 12 -47v-35q0 -73 -140 -163h-70q-157 98 -432 432z" />
<glyph unicode="&#xfa;" horiz-adv-x="1563" d="M60 770v828q0 190 82 233q408 0 408 -116q0 -158 -23 -852q0 -373 105 -373q0 -12 93 -35q105 0 210 256q12 20 12 59v140q0 120 35 198q-12 80 -12 128q0 560 58 560q99 24 117 24q338 -47 338 -164q-23 -233 -35 -233l12 -23q0 -128 12 -654q0 -246 -257 -606 q-188 -129 -432 -129h-81q-246 0 -374 129q-268 147 -268 630zM632 2088v47q0 29 198 186q222 245 257 245q186 -121 186 -198v-23q-276 -339 -431 -432h-35q-147 29 -175 175z" />
<glyph unicode="&#xfb;" horiz-adv-x="1563" d="M60 770v828q0 190 82 233q408 0 408 -116q0 -158 -23 -852q0 -373 105 -373q0 -12 93 -35q105 0 210 256q12 20 12 59v140q0 120 35 198q-12 80 -12 128q0 560 58 560q99 24 117 24q338 -47 338 -164q-23 -233 -35 -233l12 -23q0 -128 12 -654q0 -246 -257 -606 q-188 -129 -432 -129h-81q-246 0 -374 129q-268 147 -268 630zM398 1995v23q152 397 374 397q116 0 280 -269q74 -63 93 -128q-12 -47 -70 -47h-70q-73 0 -233 222h-12q-21 -4 -140 -210q-63 -23 -93 -23q-129 0 -129 35z" />
<glyph unicode="&#xfc;" horiz-adv-x="1563" d="M60 980v548q0 263 82 303q408 0 408 -116q0 -415 -23 -852q15 -373 105 -373q0 -12 93 -35q124 0 222 291q11 45 11 94v46l-11 70l35 152q0 7 -12 152q12 373 12 431q13 117 81 117q11 0 94 12q172 0 326 -129v-11q0 -54 -23 -245q12 -507 12 -700q0 -220 -234 -572 q-174 -152 -455 -152h-58q-308 0 -502 222q-163 87 -163 747zM352 2111v47q0 120 128 175h47q198 -35 198 -163v-47q0 -124 -163 -140h-47q-163 18 -163 128zM795 2170q0 175 210 175q187 0 187 -140v-70q0 -135 -199 -164q-198 52 -198 199z" />
<glyph unicode="&#xfd;" horiz-adv-x="1820" d="M60 1761q65 117 140 117q397 -34 397 -152q8 0 350 -478q19 12 338 642q63 0 222 11q233 -30 233 -93v-35q0 -31 -280 -653q-71 -141 -198 -327q-70 -172 -70 -362q0 -60 11 -233q-164 -152 -315 -152h-58q-143 0 -152 199v163q0 422 -163 630q0 64 -315 478 q-140 198 -140 245zM573 2123q0 67 280 292q0 34 164 175q74 0 210 -187v-23q-366 -444 -467 -444h-35q-152 100 -152 187z" />
<glyph unicode="&#xfe;" horiz-adv-x="1447" d="M60 1306q12 312 12 665v24q0 210 105 210q28 20 303 35l12 -47q0 -64 -12 -163l23 -327l-11 -70h151q534 -20 700 -350q10 -117 24 -117q0 -403 -455 -560q-339 -51 -339 -105q0 -62 -23 -326l23 -210q-23 -162 -23 -210q23 -216 23 -397q0 -73 -326 -93q-140 0 -140 175 v210q0 41 -24 198l12 117q-23 136 -23 233q0 225 11 665zM503 898h94q230 0 326 187v23q0 166 -350 198h-11l-59 -11v-397z" />
<glyph unicode="&#xff;" horiz-adv-x="1820" d="M60 1680q83 105 163 105q109 -35 280 -47q63 -52 374 -490q51 -93 70 -93q53 40 221 420q129 221 140 221h257q149 0 175 -105v-23q-292 -730 -467 -957q-81 -172 -81 -373q0 -63 11 -222q0 -74 -291 -175h-35q-199 0 -199 210v199q0 377 -175 618q0 52 -408 595 q-35 92 -35 117zM480 2053v58q0 106 163 164q210 -41 210 -187v-35q0 -140 -198 -140q-175 20 -175 140zM923 2100q21 175 175 175h70q152 -31 152 -129v-81q0 -106 -163 -164q-234 43 -234 199z" />
<glyph unicode="&#x152;" horiz-adv-x="2788" d="M60 898v58q12 120 222 514q301 326 525 326q0 12 11 12q211 -12 514 -58q0 42 361 93q183 -47 199 -47h501q315 0 315 -93v-23q-34 -362 -140 -362q-186 -23 -373 -23h-362q-30 0 -46 -94q0 -97 128 -116h82q55 0 116 11q199 0 199 -140q-14 -280 -129 -280 q0 -17 -128 -23q-19 0 -140 12q-63 -12 -105 -12l-23 -105q11 -103 11 -128q555 35 794 35q93 -30 93 -117q0 -315 -198 -315q-331 -70 -619 -70q-334 0 -583 93h-12q-241 -116 -408 -116q-336 44 -455 151q-350 284 -350 817zM632 851q0 -190 186 -303q43 -23 94 -23h35 q122 0 338 303l23 315q-11 20 -11 47h-94q-146 105 -210 105q-237 0 -350 -362z" />
<glyph unicode="&#x153;" horiz-adv-x="3033" d="M60 875v93q0 556 490 793q145 35 385 47q395 0 583 -175v-12h12q0 175 93 175q0 20 315 70q152 -46 187 -46h420q397 0 397 -82l11 -23q-46 -374 -128 -374l-315 -35q-157 12 -268 12h-164q-46 -19 -46 -82v-35q0 -72 116 -93h245q164 -21 164 -128q0 -304 -222 -304 h-280q-23 -76 -23 -105v-46l11 -82q23 0 759 35q128 -27 128 -117q-18 -303 -128 -303q-317 -82 -759 -82q-560 29 -560 164q0 8 12 70q-248 -175 -618 -175q-571 0 -689 350q-128 198 -128 490zM527 945q0 -303 303 -455l93 -24q218 0 374 234q35 77 46 186q0 319 -315 444 h-105q-396 -53 -396 -385z" />
<glyph unicode="&#x178;" horiz-adv-x="1715" d="M60 1680v11q0 78 268 129q42 0 105 11q110 0 222 -361q109 -253 163 -350h12q85 0 338 490q94 233 152 233h35q234 0 280 -152q0 -26 -187 -455q-62 -258 -221 -396q-175 -111 -175 -210q35 -443 35 -537q-175 -93 -245 -93h-70q-120 0 -175 140q0 76 11 443 q0 128 -186 233q-362 776 -362 864zM457 2135v46q29 175 163 175q178 0 210 -186q0 -161 -187 -175q-186 19 -186 140zM900 2181q0 187 198 187q199 0 199 -163v-47q-50 -163 -164 -163h-23q-210 37 -210 186z" />
<glyph unicode="&#x2c6;" horiz-adv-x="722" d="M60 1079l232 355h118l232 -355h-58l-233 216l-233 -216h-58z" />
<glyph unicode="&#x2dc;" horiz-adv-x="714" d="M60 1132q19 106 68 158.5t129 52.5q46 -1 113 -24q64 -23 112 -23h4q36 0 58 20t36 66h54q-20 -103 -68.5 -154t-126.5 -51h-4q-50 0 -113 23q-66 24 -114 24q-39 0 -60.5 -20.5t-33.5 -71.5h-54z" />
<glyph unicode="&#x2000;" horiz-adv-x="1300" />
<glyph unicode="&#x2001;" horiz-adv-x="2601" />
<glyph unicode="&#x2002;" horiz-adv-x="1300" />
<glyph unicode="&#x2003;" horiz-adv-x="2601" />
<glyph unicode="&#x2004;" horiz-adv-x="867" />
<glyph unicode="&#x2005;" horiz-adv-x="650" />
<glyph unicode="&#x2006;" horiz-adv-x="433" />
<glyph unicode="&#x2007;" horiz-adv-x="433" />
<glyph unicode="&#x2008;" horiz-adv-x="325" />
<glyph unicode="&#x2009;" horiz-adv-x="520" />
<glyph unicode="&#x200a;" horiz-adv-x="144" />
<glyph unicode="&#x2010;" horiz-adv-x="1755" d="M102 851q0 304 70 304q85 11 105 23q383 -12 595 -12h432q151 0 151 -210v-81q0 -187 -93 -187q-58 0 -58 -12q-128 24 -397 24h-677q-128 0 -128 151z" />
<glyph unicode="&#x2011;" horiz-adv-x="1755" d="M102 851q0 304 70 304q85 11 105 23q383 -12 595 -12h432q151 0 151 -210v-81q0 -187 -93 -187q-58 0 -58 -12q-128 24 -397 24h-677q-128 0 -128 151z" />
<glyph unicode="&#x2012;" horiz-adv-x="1755" d="M102 851q0 304 70 304q85 11 105 23q383 -12 595 -12h432q151 0 151 -210v-81q0 -187 -93 -187q-58 0 -58 -12q-128 24 -397 24h-677q-128 0 -128 151z" />
<glyph unicode="&#x2013;" horiz-adv-x="1426" d="M102 851q0 304 53 304q64 11 79 23q290 -12 451 -12h327q114 0 114 -210v-81q0 -187 -70 -187q-44 0 -44 -12q-97 24 -301 24h-512q-97 0 -97 151z" />
<glyph unicode="&#x2014;" horiz-adv-x="2450" d="M102 851q0 304 106 304q129 11 159 23q580 -12 901 -12h653q229 0 229 -210v-81q0 -187 -141 -187q-88 0 -88 -12q-193 24 -600 24h-1025q-194 0 -194 151z" />
<glyph unicode="&#x2018;" horiz-adv-x="817" d="M60 1235q0 155 292 688q45 35 105 35h12q268 -68 268 -163q-160 -179 -315 -619q-15 -81 -82 -81h-81q-77 0 -199 140z" />
<glyph unicode="&#x2019;" horiz-adv-x="817" d="M60 1258q160 179 315 619q15 81 82 81h81q77 0 199 -140q0 -155 -292 -688q-45 -35 -105 -35h-12q-268 68 -268 163z" />
<glyph unicode="&#x201c;" horiz-adv-x="1544" d="M60 1235q0 155 292 688q45 35 105 35h12q268 -68 268 -163q-160 -179 -315 -619q-15 -81 -82 -81h-81q-77 0 -199 140zM692 1235q0 155 292 688q45 35 105 35h12q268 -68 268 -163q-160 -179 -315 -619q-15 -81 -82 -81h-81q-77 0 -199 140z" />
<glyph unicode="&#x201d;" horiz-adv-x="1582" d="M60 1258q160 179 315 619q15 81 82 81h81q77 0 199 -140q0 -155 -292 -688q-45 -35 -105 -35h-12q-268 68 -268 163zM709 1258q160 179 315 619q15 81 82 81h81q77 0 199 -140q0 -155 -292 -688q-45 -35 -105 -35h-12q-268 68 -268 163z" />
<glyph unicode="&#x2022;" horiz-adv-x="747" d="M60 1003q0 199 198 292l70 11h47q292 -89 292 -256v-35q0 -280 -292 -280q-315 0 -315 268z" />
<glyph unicode="&#x2026;" horiz-adv-x="2408" d="M60 229q0 56 28 123q77 133 234 133q27 0 57 -4l70 -41q120 -117 120 -226q0 -55 -30 -108q-70 -121 -182 -121q-74 0 -167 53l-10 6q-120 69 -120 185zM939 228q0 56 29 124q77 133 233 133q27 0 57 -4l70 -41q120 -117 120 -226q0 -55 -30 -108q-70 -121 -182 -121 q-74 0 -167 53l-10 6q-120 69 -120 184zM1819 228q0 57 28 124q77 133 233 133q27 0 57 -4l70 -41q121 -117 121 -226q0 -55 -31 -108q-70 -121 -181 -121q-74 0 -167 53l-11 6q-119 69 -119 184z" />
<glyph unicode="&#x202f;" horiz-adv-x="520" />
<glyph unicode="&#x205f;" horiz-adv-x="650" />
<glyph unicode="&#x20ac;" horiz-adv-x="1495" d="M-97 805q45 35 105 35h233q24 0 24 23v58h-269q-63 0 -93 59v11q0 175 82 175h268q21 25 93 222q277 362 607 362q407 -45 467 -210v-12q0 -29 -175 -198q-39 -24 -70 -24q-140 82 -187 82h-23q-215 0 -327 -210h467q0 -20 23 -187q0 -58 -233 -58h-280v-82q91 0 326 12 q187 0 187 -93q0 -164 -93 -164h-409q0 -147 280 -245q70 0 70 -11q96 28 199 93q65 0 245 -210v-12q-35 -183 -502 -221h-12q-241 0 -525 315q-81 127 -116 280h-339v11q0 12 -23 199z" />
<glyph unicode="&#x2122;" horiz-adv-x="1820" d="M60 1645v128l82 12h105q11 0 11 -12q117 12 117 23l58 -11h199q86 0 93 -35q0 -175 -82 -175q-151 0 -151 -70v-280q0 -187 -47 -187q-25 0 -128 -12q-47 18 -47 35q12 304 12 479v35h-152q-70 0 -70 70zM783 1656q57 129 152 129h35q187 0 187 -129q11 0 81 -233 q24 0 94 327l58 46h23q315 0 315 -81q12 -233 12 -409v-116q0 -152 -82 -152h-93q-58 0 -58 245v233l-12 59q-23 0 -128 -350l-94 -140q-20 -12 -46 -12q-59 0 -210 397h-12q0 -39 -12 -59l24 -280q-33 -80 -82 -105h-117q-23 0 -23 24v245q0 146 -12 361z" />
<glyph unicode="&#xe000;" horiz-adv-x="1830" d="M0 0v1830h1830v-1830h-1830z" />
</font>
</defs>
</svg>
